<?xml version="1.0" encoding="UTF-8" standalone="no"?>
<svg width="236.361mm" height="155.222mm"
 viewBox="0 0 670 440"
 xmlns="http://www.w3.org/2000/svg" xmlns:xlink="http://www.w3.org/1999/xlink"  version="1.2" baseProfile="tiny">
<title>Qt SVG Document</title>
<desc>MATLAB, The MathWorks, Inc. Version 25.2.0.3055257 R2025b Update 2</desc>
<defs>
</defs>
<g fill="none" stroke="black" stroke-width="1" fill-rule="evenodd" stroke-linecap="square" stroke-linejoin="bevel" >

<g fill="#ffffff" fill-opacity="1" stroke="none" transform="matrix(0.749587,0,0,0.749463,-67.8446,-23.4197)"
font-family="MS Shell Dlg 2" font-size="8.25" font-weight="400" font-style="normal" 
>
<path vector-effect="none" fill-rule="evenodd" d="M89,30 L983,30 L983,618 L89,618 L89,30"/>
</g>

<g fill="#ffffff" fill-opacity="1" stroke="none" transform="matrix(7.49587e-05,0,0,7.49463e-05,-67.8446,-23.4197)"
font-family="MS Shell Dlg 2" font-size="8.25" font-weight="400" font-style="normal" 
>
<path vector-effect="none" fill-rule="evenodd" d="M1.4e+06,490000 L1.4e+06,5.78e+06 L9.74e+06,5.78e+06 L9.74e+06,490000 L1.4e+06,490000"/>
</g>

<g fill="#212121" fill-opacity="0.14902" stroke="#212121" stroke-opacity="0.14902" stroke-width="0.666667" stroke-linecap="butt" stroke-linejoin="round" transform="matrix(0.749587,0,0,0.749463,-67.8446,-23.4197)"
font-family="MS Shell Dlg 2" font-size="8.25" font-weight="400" font-style="normal" 
>
<polyline fill="none" vector-effect="none" points="140,578 140,49 " />
<polyline fill="none" vector-effect="none" points="279,578 279,49 " />
<polyline fill="none" vector-effect="none" points="418,578 418,49 " />
<polyline fill="none" vector-effect="none" points="557,578 557,49 " />
<polyline fill="none" vector-effect="none" points="696,578 696,49 " />
<polyline fill="none" vector-effect="none" points="835,578 835,49 " />
<polyline fill="none" vector-effect="none" points="974,578 974,49 " />
</g>

<g fill="#212121" fill-opacity="0.14902" stroke="#212121" stroke-opacity="0.14902" stroke-dasharray="1,3" stroke-dashoffset="0" stroke-width="0.666667" stroke-linecap="butt" stroke-linejoin="round" transform="matrix(0.749587,0,0,0.749463,-67.8446,-23.4197)"
font-family="MS Shell Dlg 2" font-size="8.25" font-weight="400" font-style="normal" 
>
<polyline fill="none" vector-effect="none" points="974,546.151 140,546.151 " />
<polyline fill="none" vector-effect="none" points="974,527.521 140,527.521 " />
<polyline fill="none" vector-effect="none" points="974,514.302 140,514.302 " />
<polyline fill="none" vector-effect="none" points="974,504.049 140,504.049 " />
<polyline fill="none" vector-effect="none" points="974,495.672 140,495.672 " />
<polyline fill="none" vector-effect="none" points="974,488.589 140,488.589 " />
<polyline fill="none" vector-effect="none" points="974,482.453 140,482.453 " />
<polyline fill="none" vector-effect="none" points="974,477.041 140,477.041 " />
<polyline fill="none" vector-effect="none" points="974,472.2 140,472.2 " />
<polyline fill="none" vector-effect="none" points="974,440.351 140,440.351 " />
<polyline fill="none" vector-effect="none" points="974,421.721 140,421.721 " />
<polyline fill="none" vector-effect="none" points="974,408.502 140,408.502 " />
<polyline fill="none" vector-effect="none" points="974,398.249 140,398.249 " />
<polyline fill="none" vector-effect="none" points="974,389.872 140,389.872 " />
<polyline fill="none" vector-effect="none" points="974,382.789 140,382.789 " />
<polyline fill="none" vector-effect="none" points="974,376.653 140,376.653 " />
<polyline fill="none" vector-effect="none" points="974,371.241 140,371.241 " />
<polyline fill="none" vector-effect="none" points="974,334.551 140,334.551 " />
<polyline fill="none" vector-effect="none" points="974,315.921 140,315.921 " />
<polyline fill="none" vector-effect="none" points="974,302.702 140,302.702 " />
<polyline fill="none" vector-effect="none" points="974,292.449 140,292.449 " />
<polyline fill="none" vector-effect="none" points="974,284.072 140,284.072 " />
<polyline fill="none" vector-effect="none" points="974,276.989 140,276.989 " />
<polyline fill="none" vector-effect="none" points="974,270.853 140,270.853 " />
<polyline fill="none" vector-effect="none" points="974,265.441 140,265.441 " />
<polyline fill="none" vector-effect="none" points="974,228.751 140,228.751 " />
<polyline fill="none" vector-effect="none" points="974,210.121 140,210.121 " />
<polyline fill="none" vector-effect="none" points="974,196.902 140,196.902 " />
<polyline fill="none" vector-effect="none" points="974,186.649 140,186.649 " />
<polyline fill="none" vector-effect="none" points="974,178.272 140,178.272 " />
<polyline fill="none" vector-effect="none" points="974,171.189 140,171.189 " />
<polyline fill="none" vector-effect="none" points="974,165.053 140,165.053 " />
<polyline fill="none" vector-effect="none" points="974,159.641 140,159.641 " />
<polyline fill="none" vector-effect="none" points="974,122.951 140,122.951 " />
<polyline fill="none" vector-effect="none" points="974,104.321 140,104.321 " />
<polyline fill="none" vector-effect="none" points="974,91.1021 140,91.1021 " />
<polyline fill="none" vector-effect="none" points="974,80.849 140,80.849 " />
<polyline fill="none" vector-effect="none" points="974,72.4716 140,72.4716 " />
<polyline fill="none" vector-effect="none" points="974,65.3886 140,65.3886 " />
<polyline fill="none" vector-effect="none" points="974,59.2531 140,59.2531 " />
<polyline fill="none" vector-effect="none" points="974,53.8412 140,53.8412 " />
</g>

<g fill="#212121" fill-opacity="0.14902" stroke="#212121" stroke-opacity="0.14902" stroke-width="0.666667" stroke-linecap="butt" stroke-linejoin="round" transform="matrix(0.749587,0,0,0.749463,-67.8446,-23.4197)"
font-family="MS Shell Dlg 2" font-size="8.25" font-weight="400" font-style="normal" 
>
<polyline fill="none" vector-effect="none" points="974,578 140,578 " />
<polyline fill="none" vector-effect="none" points="974,472.2 140,472.2 " />
<polyline fill="none" vector-effect="none" points="974,366.4 140,366.4 " />
<polyline fill="none" vector-effect="none" points="974,260.6 140,260.6 " />
<polyline fill="none" vector-effect="none" points="974,154.8 140,154.8 " />
<polyline fill="none" vector-effect="none" points="974,49 140,49 " />
</g>

<g fill="#212121" fill-opacity="1" stroke="#212121" stroke-opacity="1" stroke-width="0.666667" stroke-linecap="square" stroke-linejoin="round" transform="matrix(0.749587,0,0,0.749463,-67.8446,-23.4197)"
font-family="MS Shell Dlg 2" font-size="8.25" font-weight="400" font-style="normal" 
>
<polyline fill="none" vector-effect="none" points="140,578 974,578 " />
<polyline fill="none" vector-effect="none" points="140,49 974,49 " />
<polyline fill="none" vector-effect="none" points="140,578 140,569.66 " />
<polyline fill="none" vector-effect="none" points="279,578 279,569.66 " />
<polyline fill="none" vector-effect="none" points="418,578 418,569.66 " />
<polyline fill="none" vector-effect="none" points="557,578 557,569.66 " />
<polyline fill="none" vector-effect="none" points="696,578 696,569.66 " />
<polyline fill="none" vector-effect="none" points="835,578 835,569.66 " />
<polyline fill="none" vector-effect="none" points="974,578 974,569.66 " />
<polyline fill="none" vector-effect="none" points="140,49 140,57.34 " />
<polyline fill="none" vector-effect="none" points="279,49 279,57.34 " />
<polyline fill="none" vector-effect="none" points="418,49 418,57.34 " />
<polyline fill="none" vector-effect="none" points="557,49 557,57.34 " />
<polyline fill="none" vector-effect="none" points="696,49 696,57.34 " />
<polyline fill="none" vector-effect="none" points="835,49 835,57.34 " />
<polyline fill="none" vector-effect="none" points="974,49 974,57.34 " />
</g>

<g fill="#212121" fill-opacity="1" stroke="#212121" stroke-opacity="1" stroke-width="1" stroke-linecap="square" stroke-linejoin="bevel" transform="matrix(0.749587,0,0,0.749463,30.3513,422.761)"
font-family="Helvetica" font-size="13" font-weight="400" font-style="normal" 
>
<text fill="#212121" fill-opacity="1" stroke="none" xml:space="preserve" x="0" y="0" font-family="Helvetica" font-size="13" font-weight="400" font-style="normal" 
 >-40</text>
</g>

<g fill="#212121" fill-opacity="1" stroke="#212121" stroke-opacity="1" stroke-width="1" stroke-linecap="square" stroke-linejoin="bevel" transform="matrix(0.749587,0,0,0.749463,134.544,422.761)"
font-family="Helvetica" font-size="13" font-weight="400" font-style="normal" 
>
<text fill="#212121" fill-opacity="1" stroke="none" xml:space="preserve" x="0" y="0" font-family="Helvetica" font-size="13" font-weight="400" font-style="normal" 
 >-30</text>
</g>

<g fill="#212121" fill-opacity="1" stroke="#212121" stroke-opacity="1" stroke-width="1" stroke-linecap="square" stroke-linejoin="bevel" transform="matrix(0.749587,0,0,0.749463,238.736,422.761)"
font-family="Helvetica" font-size="13" font-weight="400" font-style="normal" 
>
<text fill="#212121" fill-opacity="1" stroke="none" xml:space="preserve" x="0" y="0" font-family="Helvetica" font-size="13" font-weight="400" font-style="normal" 
 >-20</text>
</g>

<g fill="#212121" fill-opacity="1" stroke="#212121" stroke-opacity="1" stroke-width="1" stroke-linecap="square" stroke-linejoin="bevel" transform="matrix(0.749587,0,0,0.749463,342.929,422.761)"
font-family="Helvetica" font-size="13" font-weight="400" font-style="normal" 
>
<text fill="#212121" fill-opacity="1" stroke="none" xml:space="preserve" x="0" y="0" font-family="Helvetica" font-size="13" font-weight="400" font-style="normal" 
 >-10</text>
</g>

<g fill="#212121" fill-opacity="1" stroke="#212121" stroke-opacity="1" stroke-width="1" stroke-linecap="square" stroke-linejoin="bevel" transform="matrix(0.749587,0,0,0.749463,451.244,422.761)"
font-family="Helvetica" font-size="13" font-weight="400" font-style="normal" 
>
<text fill="#212121" fill-opacity="1" stroke="none" xml:space="preserve" x="0" y="0" font-family="Helvetica" font-size="13" font-weight="400" font-style="normal" 
 >0</text>
</g>

<g fill="#212121" fill-opacity="1" stroke="#212121" stroke-opacity="1" stroke-width="1" stroke-linecap="square" stroke-linejoin="bevel" transform="matrix(0.749587,0,0,0.749463,552.813,422.761)"
font-family="Helvetica" font-size="13" font-weight="400" font-style="normal" 
>
<text fill="#212121" fill-opacity="1" stroke="none" xml:space="preserve" x="0" y="0" font-family="Helvetica" font-size="13" font-weight="400" font-style="normal" 
 >10</text>
</g>

<g fill="#212121" fill-opacity="1" stroke="#212121" stroke-opacity="1" stroke-width="1" stroke-linecap="square" stroke-linejoin="bevel" transform="matrix(0.749587,0,0,0.749463,657.006,422.761)"
font-family="Helvetica" font-size="13" font-weight="400" font-style="normal" 
>
<text fill="#212121" fill-opacity="1" stroke="none" xml:space="preserve" x="0" y="0" font-family="Helvetica" font-size="13" font-weight="400" font-style="normal" 
 >20</text>
</g>

<g fill="#212121" fill-opacity="1" stroke="#212121" stroke-opacity="1" stroke-width="1" stroke-linecap="square" stroke-linejoin="bevel" transform="matrix(0.749587,0,0,0.749463,327.937,435.752)"
font-family="Helvetica" font-size="14" font-weight="400" font-style="normal" 
>
<text fill="#212121" fill-opacity="1" stroke="none" xml:space="preserve" x="0" y="0" font-family="Helvetica" font-size="14" font-weight="400" font-style="normal" 
 >SNR [dB]</text>
</g>

<g fill="#212121" fill-opacity="1" stroke="#212121" stroke-opacity="1" stroke-width="0.666667" stroke-linecap="square" stroke-linejoin="round" transform="matrix(0.749587,0,0,0.749463,-67.8446,-23.4197)"
font-family="Helvetica" font-size="14" font-weight="400" font-style="normal" 
>
<polyline fill="none" vector-effect="none" points="140,578 140,49 " />
<polyline fill="none" vector-effect="none" points="974,578 974,49 " />
<polyline fill="none" vector-effect="none" points="140,578 148.34,578 " />
<polyline fill="none" vector-effect="none" points="140,472.2 148.34,472.2 " />
<polyline fill="none" vector-effect="none" points="140,366.4 148.34,366.4 " />
<polyline fill="none" vector-effect="none" points="140,260.6 148.34,260.6 " />
<polyline fill="none" vector-effect="none" points="140,154.8 148.34,154.8 " />
<polyline fill="none" vector-effect="none" points="140,49 148.34,49 " />
<polyline fill="none" vector-effect="none" points="974,578 965.66,578 " />
<polyline fill="none" vector-effect="none" points="974,472.2 965.66,472.2 " />
<polyline fill="none" vector-effect="none" points="974,366.4 965.66,366.4 " />
<polyline fill="none" vector-effect="none" points="974,260.6 965.66,260.6 " />
<polyline fill="none" vector-effect="none" points="974,154.8 965.66,154.8 " />
<polyline fill="none" vector-effect="none" points="974,49 965.66,49 " />
<polyline fill="none" vector-effect="none" points="140,578 144.17,578 " />
<polyline fill="none" vector-effect="none" points="140,546.151 144.17,546.151 " />
<polyline fill="none" vector-effect="none" points="140,527.521 144.17,527.521 " />
<polyline fill="none" vector-effect="none" points="140,514.302 144.17,514.302 " />
<polyline fill="none" vector-effect="none" points="140,504.049 144.17,504.049 " />
<polyline fill="none" vector-effect="none" points="140,495.672 144.17,495.672 " />
<polyline fill="none" vector-effect="none" points="140,488.589 144.17,488.589 " />
<polyline fill="none" vector-effect="none" points="140,482.453 144.17,482.453 " />
<polyline fill="none" vector-effect="none" points="140,477.041 144.17,477.041 " />
<polyline fill="none" vector-effect="none" points="140,472.2 144.17,472.2 " />
<polyline fill="none" vector-effect="none" points="140,472.2 144.17,472.2 " />
<polyline fill="none" vector-effect="none" points="140,440.351 144.17,440.351 " />
<polyline fill="none" vector-effect="none" points="140,421.721 144.17,421.721 " />
<polyline fill="none" vector-effect="none" points="140,408.502 144.17,408.502 " />
<polyline fill="none" vector-effect="none" points="140,398.249 144.17,398.249 " />
<polyline fill="none" vector-effect="none" points="140,389.872 144.17,389.872 " />
<polyline fill="none" vector-effect="none" points="140,382.789 144.17,382.789 " />
<polyline fill="none" vector-effect="none" points="140,376.653 144.17,376.653 " />
<polyline fill="none" vector-effect="none" points="140,371.241 144.17,371.241 " />
<polyline fill="none" vector-effect="none" points="140,366.4 144.17,366.4 " />
<polyline fill="none" vector-effect="none" points="140,334.551 144.17,334.551 " />
<polyline fill="none" vector-effect="none" points="140,315.921 144.17,315.921 " />
<polyline fill="none" vector-effect="none" points="140,302.702 144.17,302.702 " />
<polyline fill="none" vector-effect="none" points="140,292.449 144.17,292.449 " />
<polyline fill="none" vector-effect="none" points="140,284.072 144.17,284.072 " />
<polyline fill="none" vector-effect="none" points="140,276.989 144.17,276.989 " />
<polyline fill="none" vector-effect="none" points="140,270.853 144.17,270.853 " />
<polyline fill="none" vector-effect="none" points="140,265.441 144.17,265.441 " />
<polyline fill="none" vector-effect="none" points="140,260.6 144.17,260.6 " />
<polyline fill="none" vector-effect="none" points="140,228.751 144.17,228.751 " />
<polyline fill="none" vector-effect="none" points="140,210.121 144.17,210.121 " />
<polyline fill="none" vector-effect="none" points="140,196.902 144.17,196.902 " />
<polyline fill="none" vector-effect="none" points="140,186.649 144.17,186.649 " />
<polyline fill="none" vector-effect="none" points="140,178.272 144.17,178.272 " />
<polyline fill="none" vector-effect="none" points="140,171.189 144.17,171.189 " />
<polyline fill="none" vector-effect="none" points="140,165.053 144.17,165.053 " />
<polyline fill="none" vector-effect="none" points="140,159.641 144.17,159.641 " />
<polyline fill="none" vector-effect="none" points="140,154.8 144.17,154.8 " />
<polyline fill="none" vector-effect="none" points="140,122.951 144.17,122.951 " />
<polyline fill="none" vector-effect="none" points="140,104.321 144.17,104.321 " />
<polyline fill="none" vector-effect="none" points="140,91.1021 144.17,91.1021 " />
<polyline fill="none" vector-effect="none" points="140,80.849 144.17,80.849 " />
<polyline fill="none" vector-effect="none" points="140,72.4716 144.17,72.4716 " />
<polyline fill="none" vector-effect="none" points="140,65.3886 144.17,65.3886 " />
<polyline fill="none" vector-effect="none" points="140,59.2531 144.17,59.2531 " />
<polyline fill="none" vector-effect="none" points="140,53.8412 144.17,53.8412 " />
<polyline fill="none" vector-effect="none" points="140,49 144.17,49 " />
<polyline fill="none" vector-effect="none" points="974,578 969.83,578 " />
<polyline fill="none" vector-effect="none" points="974,546.151 969.83,546.151 " />
<polyline fill="none" vector-effect="none" points="974,527.521 969.83,527.521 " />
<polyline fill="none" vector-effect="none" points="974,514.302 969.83,514.302 " />
<polyline fill="none" vector-effect="none" points="974,504.049 969.83,504.049 " />
<polyline fill="none" vector-effect="none" points="974,495.672 969.83,495.672 " />
<polyline fill="none" vector-effect="none" points="974,488.589 969.83,488.589 " />
<polyline fill="none" vector-effect="none" points="974,482.453 969.83,482.453 " />
<polyline fill="none" vector-effect="none" points="974,477.041 969.83,477.041 " />
<polyline fill="none" vector-effect="none" points="974,472.2 969.83,472.2 " />
<polyline fill="none" vector-effect="none" points="974,472.2 969.83,472.2 " />
<polyline fill="none" vector-effect="none" points="974,440.351 969.83,440.351 " />
<polyline fill="none" vector-effect="none" points="974,421.721 969.83,421.721 " />
<polyline fill="none" vector-effect="none" points="974,408.502 969.83,408.502 " />
<polyline fill="none" vector-effect="none" points="974,398.249 969.83,398.249 " />
<polyline fill="none" vector-effect="none" points="974,389.872 969.83,389.872 " />
<polyline fill="none" vector-effect="none" points="974,382.789 969.83,382.789 " />
<polyline fill="none" vector-effect="none" points="974,376.653 969.83,376.653 " />
<polyline fill="none" vector-effect="none" points="974,371.241 969.83,371.241 " />
<polyline fill="none" vector-effect="none" points="974,366.4 969.83,366.4 " />
<polyline fill="none" vector-effect="none" points="974,334.551 969.83,334.551 " />
<polyline fill="none" vector-effect="none" points="974,315.921 969.83,315.921 " />
<polyline fill="none" vector-effect="none" points="974,302.702 969.83,302.702 " />
<polyline fill="none" vector-effect="none" points="974,292.449 969.83,292.449 " />
<polyline fill="none" vector-effect="none" points="974,284.072 969.83,284.072 " />
<polyline fill="none" vector-effect="none" points="974,276.989 969.83,276.989 " />
<polyline fill="none" vector-effect="none" points="974,270.853 969.83,270.853 " />
<polyline fill="none" vector-effect="none" points="974,265.441 969.83,265.441 " />
<polyline fill="none" vector-effect="none" points="974,260.6 969.83,260.6 " />
<polyline fill="none" vector-effect="none" points="974,228.751 969.83,228.751 " />
<polyline fill="none" vector-effect="none" points="974,210.121 969.83,210.121 " />
<polyline fill="none" vector-effect="none" points="974,196.902 969.83,196.902 " />
<polyline fill="none" vector-effect="none" points="974,186.649 969.83,186.649 " />
<polyline fill="none" vector-effect="none" points="974,178.272 969.83,178.272 " />
<polyline fill="none" vector-effect="none" points="974,171.189 969.83,171.189 " />
<polyline fill="none" vector-effect="none" points="974,165.053 969.83,165.053 " />
<polyline fill="none" vector-effect="none" points="974,159.641 969.83,159.641 " />
<polyline fill="none" vector-effect="none" points="974,154.8 969.83,154.8 " />
<polyline fill="none" vector-effect="none" points="974,122.951 969.83,122.951 " />
<polyline fill="none" vector-effect="none" points="974,104.321 969.83,104.321 " />
<polyline fill="none" vector-effect="none" points="974,91.1021 969.83,91.1021 " />
<polyline fill="none" vector-effect="none" points="974,80.849 969.83,80.849 " />
<polyline fill="none" vector-effect="none" points="974,72.4716 969.83,72.4716 " />
<polyline fill="none" vector-effect="none" points="974,65.3886 969.83,65.3886 " />
<polyline fill="none" vector-effect="none" points="974,59.2531 969.83,59.2531 " />
<polyline fill="none" vector-effect="none" points="974,53.8412 969.83,53.8412 " />
<polyline fill="none" vector-effect="none" points="974,49 969.83,49 " />
</g>

<g fill="#212121" fill-opacity="1" stroke="#212121" stroke-opacity="1" stroke-width="1" stroke-linecap="square" stroke-linejoin="bevel" transform="matrix(0.749587,0,0,0.749463,16.1091,415.016)"
font-family="Helvetica" font-size="13" font-weight="400" font-style="normal" 
>
<text fill="#212121" fill-opacity="1" stroke="none" xml:space="preserve" x="0" y="0" font-family="Helvetica" font-size="13" font-weight="400" font-style="normal" 
 >10</text>
</g>

<g fill="#212121" fill-opacity="1" stroke="#212121" stroke-opacity="1" stroke-width="1" stroke-linecap="square" stroke-linejoin="bevel" transform="matrix(0.749587,0,0,0.749463,26.6033,410.52)"
font-family="Helvetica" font-size="10" font-weight="400" font-style="normal" 
>
<text fill="#212121" fill-opacity="1" stroke="none" xml:space="preserve" x="0" y="0" font-family="Helvetica" font-size="10" font-weight="400" font-style="normal" 
 >-5</text>
</g>

<g fill="#212121" fill-opacity="1" stroke="#212121" stroke-opacity="1" stroke-width="1" stroke-linecap="square" stroke-linejoin="bevel" transform="matrix(0.749587,0,0,0.749463,16.1091,335.573)"
font-family="Helvetica" font-size="13" font-weight="400" font-style="normal" 
>
<text fill="#212121" fill-opacity="1" stroke="none" xml:space="preserve" x="0" y="0" font-family="Helvetica" font-size="13" font-weight="400" font-style="normal" 
 >10</text>
</g>

<g fill="#212121" fill-opacity="1" stroke="#212121" stroke-opacity="1" stroke-width="1" stroke-linecap="square" stroke-linejoin="bevel" transform="matrix(0.749587,0,0,0.749463,26.6033,331.077)"
font-family="Helvetica" font-size="10" font-weight="400" font-style="normal" 
>
<text fill="#212121" fill-opacity="1" stroke="none" xml:space="preserve" x="0" y="0" font-family="Helvetica" font-size="10" font-weight="400" font-style="normal" 
 >-4</text>
</g>

<g fill="#212121" fill-opacity="1" stroke="#212121" stroke-opacity="1" stroke-width="1" stroke-linecap="square" stroke-linejoin="bevel" transform="matrix(0.749587,0,0,0.749463,16.1091,256.13)"
font-family="Helvetica" font-size="13" font-weight="400" font-style="normal" 
>
<text fill="#212121" fill-opacity="1" stroke="none" xml:space="preserve" x="0" y="0" font-family="Helvetica" font-size="13" font-weight="400" font-style="normal" 
 >10</text>
</g>

<g fill="#212121" fill-opacity="1" stroke="#212121" stroke-opacity="1" stroke-width="1" stroke-linecap="square" stroke-linejoin="bevel" transform="matrix(0.749587,0,0,0.749463,26.6033,251.633)"
font-family="Helvetica" font-size="10" font-weight="400" font-style="normal" 
>
<text fill="#212121" fill-opacity="1" stroke="none" xml:space="preserve" x="0" y="0" font-family="Helvetica" font-size="10" font-weight="400" font-style="normal" 
 >-3</text>
</g>

<g fill="#212121" fill-opacity="1" stroke="#212121" stroke-opacity="1" stroke-width="1" stroke-linecap="square" stroke-linejoin="bevel" transform="matrix(0.749587,0,0,0.749463,16.1091,177.437)"
font-family="Helvetica" font-size="13" font-weight="400" font-style="normal" 
>
<text fill="#212121" fill-opacity="1" stroke="none" xml:space="preserve" x="0" y="0" font-family="Helvetica" font-size="13" font-weight="400" font-style="normal" 
 >10</text>
</g>

<g fill="#212121" fill-opacity="1" stroke="#212121" stroke-opacity="1" stroke-width="1" stroke-linecap="square" stroke-linejoin="bevel" transform="matrix(0.749587,0,0,0.749463,26.6033,172.94)"
font-family="Helvetica" font-size="10" font-weight="400" font-style="normal" 
>
<text fill="#212121" fill-opacity="1" stroke="none" xml:space="preserve" x="0" y="0" font-family="Helvetica" font-size="10" font-weight="400" font-style="normal" 
 >-2</text>
</g>

<g fill="#212121" fill-opacity="1" stroke="#212121" stroke-opacity="1" stroke-width="1" stroke-linecap="square" stroke-linejoin="bevel" transform="matrix(0.749587,0,0,0.749463,16.1091,97.9934)"
font-family="Helvetica" font-size="13" font-weight="400" font-style="normal" 
>
<text fill="#212121" fill-opacity="1" stroke="none" xml:space="preserve" x="0" y="0" font-family="Helvetica" font-size="13" font-weight="400" font-style="normal" 
 >10</text>
</g>

<g fill="#212121" fill-opacity="1" stroke="#212121" stroke-opacity="1" stroke-width="1" stroke-linecap="square" stroke-linejoin="bevel" transform="matrix(0.749587,0,0,0.749463,26.6033,93.4966)"
font-family="Helvetica" font-size="10" font-weight="400" font-style="normal" 
>
<text fill="#212121" fill-opacity="1" stroke="none" xml:space="preserve" x="0" y="0" font-family="Helvetica" font-size="10" font-weight="400" font-style="normal" 
 >-1</text>
</g>

<g fill="#212121" fill-opacity="1" stroke="#212121" stroke-opacity="1" stroke-width="1" stroke-linecap="square" stroke-linejoin="bevel" transform="matrix(0.749587,0,0,0.749463,18.3579,18.5503)"
font-family="Helvetica" font-size="13" font-weight="400" font-style="normal" 
>
<text fill="#212121" fill-opacity="1" stroke="none" xml:space="preserve" x="0" y="0" font-family="Helvetica" font-size="13" font-weight="400" font-style="normal" 
 >10</text>
</g>

<g fill="#212121" fill-opacity="1" stroke="#212121" stroke-opacity="1" stroke-width="1" stroke-linecap="square" stroke-linejoin="bevel" transform="matrix(0.749587,0,0,0.749463,28.8521,14.0535)"
font-family="Helvetica" font-size="10" font-weight="400" font-style="normal" 
>
<text fill="#212121" fill-opacity="1" stroke="none" xml:space="preserve" x="0" y="0" font-family="Helvetica" font-size="10" font-weight="400" font-style="normal" 
 >0</text>
</g>

<g fill="#212121" fill-opacity="1" stroke="#212121" stroke-opacity="1" stroke-width="1" stroke-linecap="square" stroke-linejoin="bevel" transform="matrix(0,-0.749463,0.749587,0,8.99587,222.03)"
font-family="Helvetica" font-size="14" font-weight="400" font-style="normal" 
>
<text fill="#212121" fill-opacity="1" stroke="none" xml:space="preserve" x="0" y="0" font-family="Helvetica" font-size="14" font-weight="400" font-style="normal" 
 >BER</text>
</g>

<g fill="#212121" fill-opacity="1" stroke="#212121" stroke-opacity="1" stroke-width="1" stroke-linecap="square" stroke-linejoin="bevel" transform="matrix(0.749587,0,0,0.749463,318.942,8.99463)"
font-family="Helvetica" font-size="14" font-weight="700" font-style="normal" 
>
<text fill="#212121" fill-opacity="1" stroke="none" xml:space="preserve" x="0" y="0" font-family="Helvetica" font-size="14" font-weight="700" font-style="normal" 
 >BER vs SNR</text>
</g>

<g fill="none" stroke="#1171be" stroke-opacity="1" stroke-width="2.66667" stroke-linecap="butt" stroke-linejoin="round" transform="matrix(0.749587,0,0,0.749463,-67.8446,-23.4197)"
font-family="Helvetica" font-size="14" font-weight="700" font-style="normal" 
>
<polyline fill="none" vector-effect="none" points="140,80.8447 167.8,80.8811 195.6,80.7009 223.4,80.8576 251.2,80.7959 279,81.0967 306.8,80.9715 334.6,81.1102 362.4,81.1181 390.2,81.3246 418,81.8607 445.8,82.1569 473.6,83.2047 501.4,85.04 529.2,87.446 557,90.777 584.8,96.0405 612.6,102.764 640.4,109.673 668.2,119.698 696,133.613 723.8,152.652 751.6,180.727 779.4,222.114 807.2,283.36 835,377.667 862.8,518.499 " />
</g>

<g fill="none" stroke="#dd5400" stroke-opacity="1" stroke-width="2.66667" stroke-linecap="butt" stroke-linejoin="round" transform="matrix(0.749587,0,0,0.749463,-67.8446,-23.4197)"
font-family="Helvetica" font-size="14" font-weight="700" font-style="normal" 
>
<polyline fill="none" vector-effect="none" points="140,80.9232 167.8,80.806 195.6,80.8613 223.4,80.8621 251.2,80.8927 279,80.9201 306.8,80.9335 334.6,80.8611 362.4,81.0592 390.2,81.1876 418,81.4544 445.8,82.1441 473.6,83.9732 501.4,85.6698 529.2,87.2787 557,92.2338 584.8,96.079 612.6,102.534 640.4,109.678 668.2,119.414 696,133.068 723.8,152.258 751.6,180.356 779.4,221.237 807.2,283.67 835,373.169 862.8,496.566 " />
</g>

<g fill="#ffffff" fill-opacity="1" stroke="none" transform="matrix(7.49587e-05,0,0,7.49463e-05,-67.8446,-23.4197)"
font-family="Helvetica" font-size="14" font-weight="700" font-style="normal" 
>
<path vector-effect="none" fill-rule="evenodd" d="M8.76e+06,600000 L8.76e+06,920000 L9.63e+06,920000 L9.63e+06,600000 L8.76e+06,600000"/>
</g>

<g fill="#1171be" fill-opacity="1" stroke="#1171be" stroke-opacity="1" stroke-width="2.66667" stroke-linecap="butt" stroke-linejoin="round" transform="matrix(0.749587,0,0,0.749463,-67.8446,-23.4197)"
font-family="Helvetica" font-size="14" font-weight="700" font-style="normal" 
>
<polyline fill="none" vector-effect="none" points="880,68.8615 920,68.8615 " />
</g>

<g fill="#dd5400" fill-opacity="1" stroke="#dd5400" stroke-opacity="1" stroke-width="2.66667" stroke-linecap="butt" stroke-linejoin="round" transform="matrix(0.749587,0,0,0.749463,-67.8446,-23.4197)"
font-family="Helvetica" font-size="14" font-weight="700" font-style="normal" 
>
<polyline fill="none" vector-effect="none" points="880,83.1385 920,83.1385 " />
</g>

<g fill="#212121" fill-opacity="1" stroke="#212121" stroke-opacity="1" stroke-width="1" stroke-linecap="square" stroke-linejoin="bevel" transform="matrix(0.749587,0,0,0.749463,624.024,31.1874)"
font-family="Helvetica" font-size="12" font-weight="400" font-style="normal" 
>
<text fill="#212121" fill-opacity="1" stroke="none" xml:space="preserve" x="0" y="0" font-family="Helvetica" font-size="12" font-weight="400" font-style="normal" 
 >OFDM</text>
</g>

<g fill="#212121" fill-opacity="1" stroke="#212121" stroke-opacity="1" stroke-width="1" stroke-linecap="square" stroke-linejoin="bevel" transform="matrix(0.749587,0,0,0.749463,624.024,41.8874)"
font-family="Helvetica" font-size="12" font-weight="400" font-style="normal" 
>
<text fill="#212121" fill-opacity="1" stroke="none" xml:space="preserve" x="0" y="0" font-family="Helvetica" font-size="12" font-weight="400" font-style="normal" 
 >OTFS</text>
</g>

<g fill="none" stroke="#212121" stroke-opacity="1" stroke-width="0.666667" stroke-linecap="butt" stroke-linejoin="miter" stroke-miterlimit="2" transform="matrix(0.749587,0,0,0.749463,-67.8446,-23.4197)"
font-family="Helvetica" font-size="12" font-weight="400" font-style="normal" 
>
<path vector-effect="none" fill-rule="evenodd" d="M876,92 L876,60 L963,60 L963,92 L876,92"/>
</g>
</g>
</svg>
