<?xml version="1.0" encoding="UTF-8" standalone="no"?>
<svg width="237.772mm" height="155.222mm"
 viewBox="0 0 674 440"
 xmlns="http://www.w3.org/2000/svg" xmlns:xlink="http://www.w3.org/1999/xlink"  version="1.2" baseProfile="tiny">
<title>Qt SVG Document</title>
<desc>MATLAB, The MathWorks, Inc. Version 25.2.0.3055257 R2025b Update 2</desc>
<defs>
</defs>
<g fill="none" stroke="black" stroke-width="1" fill-rule="evenodd" stroke-linecap="square" stroke-linejoin="bevel" >

<g fill="#ffffff" fill-opacity="1" stroke="none" transform="matrix(0.749537,0,0,0.749463,-64.0455,-23.4197)"
font-family="MS Shell Dlg 2" font-size="8.25" font-weight="400" font-style="normal" 
>
<path vector-effect="none" fill-rule="evenodd" d="M84,30 L984,30 L984,618 L84,618 L84,30"/>
</g>

<g fill="#ffffff" fill-opacity="1" stroke="none" transform="matrix(7.49537e-05,0,0,7.49463e-05,-64.0455,-23.4197)"
font-family="MS Shell Dlg 2" font-size="8.25" font-weight="400" font-style="normal" 
>
<path vector-effect="none" fill-rule="evenodd" d="M1.4e+06,490000 L1.4e+06,5.78e+06 L9.75e+06,5.78e+06 L9.75e+06,490000 L1.4e+06,490000"/>
</g>

<g fill="#212121" fill-opacity="0.14902" stroke="#212121" stroke-opacity="0.14902" stroke-width="0.666667" stroke-linecap="butt" stroke-linejoin="round" transform="matrix(0.749537,0,0,0.749463,-64.0455,-23.4197)"
font-family="MS Shell Dlg 2" font-size="8.25" font-weight="400" font-style="normal" 
>
<polyline fill="none" vector-effect="none" points="140,578 140,49 " />
<polyline fill="none" vector-effect="none" points="259.286,578 259.286,49 " />
<polyline fill="none" vector-effect="none" points="378.571,578 378.571,49 " />
<polyline fill="none" vector-effect="none" points="497.857,578 497.857,49 " />
<polyline fill="none" vector-effect="none" points="617.143,578 617.143,49 " />
<polyline fill="none" vector-effect="none" points="736.429,578 736.429,49 " />
<polyline fill="none" vector-effect="none" points="855.714,578 855.714,49 " />
<polyline fill="none" vector-effect="none" points="975,578 975,49 " />
</g>

<g fill="#212121" fill-opacity="0.14902" stroke="#212121" stroke-opacity="0.14902" stroke-dasharray="1,3" stroke-dashoffset="0" stroke-width="0.666667" stroke-linecap="butt" stroke-linejoin="round" transform="matrix(0.749537,0,0,0.749463,-64.0455,-23.4197)"
font-family="MS Shell Dlg 2" font-size="8.25" font-weight="400" font-style="normal" 
>
<polyline fill="none" vector-effect="none" points="975,546.151 140,546.151 " />
<polyline fill="none" vector-effect="none" points="975,527.521 140,527.521 " />
<polyline fill="none" vector-effect="none" points="975,514.302 140,514.302 " />
<polyline fill="none" vector-effect="none" points="975,504.049 140,504.049 " />
<polyline fill="none" vector-effect="none" points="975,495.672 140,495.672 " />
<polyline fill="none" vector-effect="none" points="975,488.589 140,488.589 " />
<polyline fill="none" vector-effect="none" points="975,482.453 140,482.453 " />
<polyline fill="none" vector-effect="none" points="975,477.041 140,477.041 " />
<polyline fill="none" vector-effect="none" points="975,440.351 140,440.351 " />
<polyline fill="none" vector-effect="none" points="975,421.721 140,421.721 " />
<polyline fill="none" vector-effect="none" points="975,408.502 140,408.502 " />
<polyline fill="none" vector-effect="none" points="975,398.249 140,398.249 " />
<polyline fill="none" vector-effect="none" points="975,389.872 140,389.872 " />
<polyline fill="none" vector-effect="none" points="975,382.789 140,382.789 " />
<polyline fill="none" vector-effect="none" points="975,376.653 140,376.653 " />
<polyline fill="none" vector-effect="none" points="975,371.241 140,371.241 " />
<polyline fill="none" vector-effect="none" points="975,334.551 140,334.551 " />
<polyline fill="none" vector-effect="none" points="975,315.921 140,315.921 " />
<polyline fill="none" vector-effect="none" points="975,302.702 140,302.702 " />
<polyline fill="none" vector-effect="none" points="975,292.449 140,292.449 " />
<polyline fill="none" vector-effect="none" points="975,284.072 140,284.072 " />
<polyline fill="none" vector-effect="none" points="975,276.989 140,276.989 " />
<polyline fill="none" vector-effect="none" points="975,270.853 140,270.853 " />
<polyline fill="none" vector-effect="none" points="975,265.441 140,265.441 " />
<polyline fill="none" vector-effect="none" points="975,228.751 140,228.751 " />
<polyline fill="none" vector-effect="none" points="975,210.121 140,210.121 " />
<polyline fill="none" vector-effect="none" points="975,196.902 140,196.902 " />
<polyline fill="none" vector-effect="none" points="975,186.649 140,186.649 " />
<polyline fill="none" vector-effect="none" points="975,178.272 140,178.272 " />
<polyline fill="none" vector-effect="none" points="975,171.189 140,171.189 " />
<polyline fill="none" vector-effect="none" points="975,165.053 140,165.053 " />
<polyline fill="none" vector-effect="none" points="975,159.641 140,159.641 " />
<polyline fill="none" vector-effect="none" points="975,122.951 140,122.951 " />
<polyline fill="none" vector-effect="none" points="975,104.321 140,104.321 " />
<polyline fill="none" vector-effect="none" points="975,91.1021 140,91.1021 " />
<polyline fill="none" vector-effect="none" points="975,80.849 140,80.849 " />
<polyline fill="none" vector-effect="none" points="975,72.4716 140,72.4716 " />
<polyline fill="none" vector-effect="none" points="975,65.3886 140,65.3886 " />
<polyline fill="none" vector-effect="none" points="975,59.2531 140,59.2531 " />
<polyline fill="none" vector-effect="none" points="975,53.8412 140,53.8412 " />
</g>

<g fill="#212121" fill-opacity="0.14902" stroke="#212121" stroke-opacity="0.14902" stroke-width="0.666667" stroke-linecap="butt" stroke-linejoin="round" transform="matrix(0.749537,0,0,0.749463,-64.0455,-23.4197)"
font-family="MS Shell Dlg 2" font-size="8.25" font-weight="400" font-style="normal" 
>
<polyline fill="none" vector-effect="none" points="975,578 140,578 " />
<polyline fill="none" vector-effect="none" points="975,472.2 140,472.2 " />
<polyline fill="none" vector-effect="none" points="975,366.4 140,366.4 " />
<polyline fill="none" vector-effect="none" points="975,260.6 140,260.6 " />
<polyline fill="none" vector-effect="none" points="975,154.8 140,154.8 " />
<polyline fill="none" vector-effect="none" points="975,49 140,49 " />
</g>

<g fill="#212121" fill-opacity="1" stroke="#212121" stroke-opacity="1" stroke-width="0.666667" stroke-linecap="square" stroke-linejoin="round" transform="matrix(0.749537,0,0,0.749463,-64.0455,-23.4197)"
font-family="MS Shell Dlg 2" font-size="8.25" font-weight="400" font-style="normal" 
>
<polyline fill="none" vector-effect="none" points="140,578 975,578 " />
<polyline fill="none" vector-effect="none" points="140,49 975,49 " />
<polyline fill="none" vector-effect="none" points="140,578 140,569.65 " />
<polyline fill="none" vector-effect="none" points="259.286,578 259.286,569.65 " />
<polyline fill="none" vector-effect="none" points="378.571,578 378.571,569.65 " />
<polyline fill="none" vector-effect="none" points="497.857,578 497.857,569.65 " />
<polyline fill="none" vector-effect="none" points="617.143,578 617.143,569.65 " />
<polyline fill="none" vector-effect="none" points="736.429,578 736.429,569.65 " />
<polyline fill="none" vector-effect="none" points="855.714,578 855.714,569.65 " />
<polyline fill="none" vector-effect="none" points="975,578 975,569.65 " />
<polyline fill="none" vector-effect="none" points="140,49 140,57.35 " />
<polyline fill="none" vector-effect="none" points="259.286,49 259.286,57.35 " />
<polyline fill="none" vector-effect="none" points="378.571,49 378.571,57.35 " />
<polyline fill="none" vector-effect="none" points="497.857,49 497.857,57.35 " />
<polyline fill="none" vector-effect="none" points="617.143,49 617.143,57.35 " />
<polyline fill="none" vector-effect="none" points="736.429,49 736.429,57.35 " />
<polyline fill="none" vector-effect="none" points="855.714,49 855.714,57.35 " />
<polyline fill="none" vector-effect="none" points="975,49 975,57.35 " />
</g>

<g fill="#212121" fill-opacity="1" stroke="#212121" stroke-opacity="1" stroke-width="1" stroke-linecap="square" stroke-linejoin="bevel" transform="matrix(0.749537,0,0,0.749463,34.1439,422.761)"
font-family="Helvetica" font-size="13" font-weight="400" font-style="normal" 
>
<text fill="#212121" fill-opacity="1" stroke="none" xml:space="preserve" x="0" y="0" font-family="Helvetica" font-size="13" font-weight="400" font-style="normal" 
 >-40</text>
</g>

<g fill="#212121" fill-opacity="1" stroke="#212121" stroke-opacity="1" stroke-width="1" stroke-linecap="square" stroke-linejoin="bevel" transform="matrix(0.749537,0,0,0.749463,123.553,422.761)"
font-family="Helvetica" font-size="13" font-weight="400" font-style="normal" 
>
<text fill="#212121" fill-opacity="1" stroke="none" xml:space="preserve" x="0" y="0" font-family="Helvetica" font-size="13" font-weight="400" font-style="normal" 
 >-30</text>
</g>

<g fill="#212121" fill-opacity="1" stroke="#212121" stroke-opacity="1" stroke-width="1" stroke-linecap="square" stroke-linejoin="bevel" transform="matrix(0.749537,0,0,0.749463,212.962,422.761)"
font-family="Helvetica" font-size="13" font-weight="400" font-style="normal" 
>
<text fill="#212121" fill-opacity="1" stroke="none" xml:space="preserve" x="0" y="0" font-family="Helvetica" font-size="13" font-weight="400" font-style="normal" 
 >-20</text>
</g>

<g fill="#212121" fill-opacity="1" stroke="#212121" stroke-opacity="1" stroke-width="1" stroke-linecap="square" stroke-linejoin="bevel" transform="matrix(0.749537,0,0,0.749463,302.371,422.761)"
font-family="Helvetica" font-size="13" font-weight="400" font-style="normal" 
>
<text fill="#212121" fill-opacity="1" stroke="none" xml:space="preserve" x="0" y="0" font-family="Helvetica" font-size="13" font-weight="400" font-style="normal" 
 >-10</text>
</g>

<g fill="#212121" fill-opacity="1" stroke="#212121" stroke-opacity="1" stroke-width="1" stroke-linecap="square" stroke-linejoin="bevel" transform="matrix(0.749537,0,0,0.749463,395.903,422.761)"
font-family="Helvetica" font-size="13" font-weight="400" font-style="normal" 
>
<text fill="#212121" fill-opacity="1" stroke="none" xml:space="preserve" x="0" y="0" font-family="Helvetica" font-size="13" font-weight="400" font-style="normal" 
 >0</text>
</g>

<g fill="#212121" fill-opacity="1" stroke="#212121" stroke-opacity="1" stroke-width="1" stroke-linecap="square" stroke-linejoin="bevel" transform="matrix(0.749537,0,0,0.749463,482.688,422.761)"
font-family="Helvetica" font-size="13" font-weight="400" font-style="normal" 
>
<text fill="#212121" fill-opacity="1" stroke="none" xml:space="preserve" x="0" y="0" font-family="Helvetica" font-size="13" font-weight="400" font-style="normal" 
 >10</text>
</g>

<g fill="#212121" fill-opacity="1" stroke="#212121" stroke-opacity="1" stroke-width="1" stroke-linecap="square" stroke-linejoin="bevel" transform="matrix(0.749537,0,0,0.749463,572.097,422.761)"
font-family="Helvetica" font-size="13" font-weight="400" font-style="normal" 
>
<text fill="#212121" fill-opacity="1" stroke="none" xml:space="preserve" x="0" y="0" font-family="Helvetica" font-size="13" font-weight="400" font-style="normal" 
 >20</text>
</g>

<g fill="#212121" fill-opacity="1" stroke="#212121" stroke-opacity="1" stroke-width="1" stroke-linecap="square" stroke-linejoin="bevel" transform="matrix(0.749537,0,0,0.749463,661.506,422.761)"
font-family="Helvetica" font-size="13" font-weight="400" font-style="normal" 
>
<text fill="#212121" fill-opacity="1" stroke="none" xml:space="preserve" x="0" y="0" font-family="Helvetica" font-size="13" font-weight="400" font-style="normal" 
 >30</text>
</g>

<g fill="#212121" fill-opacity="1" stroke="#212121" stroke-opacity="1" stroke-width="1" stroke-linecap="square" stroke-linejoin="bevel" transform="matrix(0.749537,0,0,0.749463,332.085,435.752)"
font-family="Helvetica" font-size="14" font-weight="400" font-style="normal" 
>
<text fill="#212121" fill-opacity="1" stroke="none" xml:space="preserve" x="0" y="0" font-family="Helvetica" font-size="14" font-weight="400" font-style="normal" 
 >SNR [dB]</text>
</g>

<g fill="#212121" fill-opacity="1" stroke="#212121" stroke-opacity="1" stroke-width="0.666667" stroke-linecap="square" stroke-linejoin="round" transform="matrix(0.749537,0,0,0.749463,-64.0455,-23.4197)"
font-family="Helvetica" font-size="14" font-weight="400" font-style="normal" 
>
<polyline fill="none" vector-effect="none" points="140,578 140,49 " />
<polyline fill="none" vector-effect="none" points="975,578 975,49 " />
<polyline fill="none" vector-effect="none" points="140,578 148.35,578 " />
<polyline fill="none" vector-effect="none" points="140,472.2 148.35,472.2 " />
<polyline fill="none" vector-effect="none" points="140,366.4 148.35,366.4 " />
<polyline fill="none" vector-effect="none" points="140,260.6 148.35,260.6 " />
<polyline fill="none" vector-effect="none" points="140,154.8 148.35,154.8 " />
<polyline fill="none" vector-effect="none" points="140,49 148.35,49 " />
<polyline fill="none" vector-effect="none" points="975,578 966.65,578 " />
<polyline fill="none" vector-effect="none" points="975,472.2 966.65,472.2 " />
<polyline fill="none" vector-effect="none" points="975,366.4 966.65,366.4 " />
<polyline fill="none" vector-effect="none" points="975,260.6 966.65,260.6 " />
<polyline fill="none" vector-effect="none" points="975,154.8 966.65,154.8 " />
<polyline fill="none" vector-effect="none" points="975,49 966.65,49 " />
<polyline fill="none" vector-effect="none" points="140,578 144.175,578 " />
<polyline fill="none" vector-effect="none" points="140,546.151 144.175,546.151 " />
<polyline fill="none" vector-effect="none" points="140,527.521 144.175,527.521 " />
<polyline fill="none" vector-effect="none" points="140,514.302 144.175,514.302 " />
<polyline fill="none" vector-effect="none" points="140,504.049 144.175,504.049 " />
<polyline fill="none" vector-effect="none" points="140,495.672 144.175,495.672 " />
<polyline fill="none" vector-effect="none" points="140,488.589 144.175,488.589 " />
<polyline fill="none" vector-effect="none" points="140,482.453 144.175,482.453 " />
<polyline fill="none" vector-effect="none" points="140,477.041 144.175,477.041 " />
<polyline fill="none" vector-effect="none" points="140,472.2 144.175,472.2 " />
<polyline fill="none" vector-effect="none" points="140,440.351 144.175,440.351 " />
<polyline fill="none" vector-effect="none" points="140,421.721 144.175,421.721 " />
<polyline fill="none" vector-effect="none" points="140,408.502 144.175,408.502 " />
<polyline fill="none" vector-effect="none" points="140,398.249 144.175,398.249 " />
<polyline fill="none" vector-effect="none" points="140,389.872 144.175,389.872 " />
<polyline fill="none" vector-effect="none" points="140,382.789 144.175,382.789 " />
<polyline fill="none" vector-effect="none" points="140,376.653 144.175,376.653 " />
<polyline fill="none" vector-effect="none" points="140,371.241 144.175,371.241 " />
<polyline fill="none" vector-effect="none" points="140,366.4 144.175,366.4 " />
<polyline fill="none" vector-effect="none" points="140,334.551 144.175,334.551 " />
<polyline fill="none" vector-effect="none" points="140,315.921 144.175,315.921 " />
<polyline fill="none" vector-effect="none" points="140,302.702 144.175,302.702 " />
<polyline fill="none" vector-effect="none" points="140,292.449 144.175,292.449 " />
<polyline fill="none" vector-effect="none" points="140,284.072 144.175,284.072 " />
<polyline fill="none" vector-effect="none" points="140,276.989 144.175,276.989 " />
<polyline fill="none" vector-effect="none" points="140,270.853 144.175,270.853 " />
<polyline fill="none" vector-effect="none" points="140,265.441 144.175,265.441 " />
<polyline fill="none" vector-effect="none" points="140,260.6 144.175,260.6 " />
<polyline fill="none" vector-effect="none" points="140,228.751 144.175,228.751 " />
<polyline fill="none" vector-effect="none" points="140,210.121 144.175,210.121 " />
<polyline fill="none" vector-effect="none" points="140,196.902 144.175,196.902 " />
<polyline fill="none" vector-effect="none" points="140,186.649 144.175,186.649 " />
<polyline fill="none" vector-effect="none" points="140,178.272 144.175,178.272 " />
<polyline fill="none" vector-effect="none" points="140,171.189 144.175,171.189 " />
<polyline fill="none" vector-effect="none" points="140,165.053 144.175,165.053 " />
<polyline fill="none" vector-effect="none" points="140,159.641 144.175,159.641 " />
<polyline fill="none" vector-effect="none" points="140,154.8 144.175,154.8 " />
<polyline fill="none" vector-effect="none" points="140,122.951 144.175,122.951 " />
<polyline fill="none" vector-effect="none" points="140,104.321 144.175,104.321 " />
<polyline fill="none" vector-effect="none" points="140,91.1021 144.175,91.1021 " />
<polyline fill="none" vector-effect="none" points="140,80.849 144.175,80.849 " />
<polyline fill="none" vector-effect="none" points="140,72.4716 144.175,72.4716 " />
<polyline fill="none" vector-effect="none" points="140,65.3886 144.175,65.3886 " />
<polyline fill="none" vector-effect="none" points="140,59.2531 144.175,59.2531 " />
<polyline fill="none" vector-effect="none" points="140,53.8412 144.175,53.8412 " />
<polyline fill="none" vector-effect="none" points="140,49 144.175,49 " />
<polyline fill="none" vector-effect="none" points="975,578 970.825,578 " />
<polyline fill="none" vector-effect="none" points="975,546.151 970.825,546.151 " />
<polyline fill="none" vector-effect="none" points="975,527.521 970.825,527.521 " />
<polyline fill="none" vector-effect="none" points="975,514.302 970.825,514.302 " />
<polyline fill="none" vector-effect="none" points="975,504.049 970.825,504.049 " />
<polyline fill="none" vector-effect="none" points="975,495.672 970.825,495.672 " />
<polyline fill="none" vector-effect="none" points="975,488.589 970.825,488.589 " />
<polyline fill="none" vector-effect="none" points="975,482.453 970.825,482.453 " />
<polyline fill="none" vector-effect="none" points="975,477.041 970.825,477.041 " />
<polyline fill="none" vector-effect="none" points="975,472.2 970.825,472.2 " />
<polyline fill="none" vector-effect="none" points="975,440.351 970.825,440.351 " />
<polyline fill="none" vector-effect="none" points="975,421.721 970.825,421.721 " />
<polyline fill="none" vector-effect="none" points="975,408.502 970.825,408.502 " />
<polyline fill="none" vector-effect="none" points="975,398.249 970.825,398.249 " />
<polyline fill="none" vector-effect="none" points="975,389.872 970.825,389.872 " />
<polyline fill="none" vector-effect="none" points="975,382.789 970.825,382.789 " />
<polyline fill="none" vector-effect="none" points="975,376.653 970.825,376.653 " />
<polyline fill="none" vector-effect="none" points="975,371.241 970.825,371.241 " />
<polyline fill="none" vector-effect="none" points="975,366.4 970.825,366.4 " />
<polyline fill="none" vector-effect="none" points="975,334.551 970.825,334.551 " />
<polyline fill="none" vector-effect="none" points="975,315.921 970.825,315.921 " />
<polyline fill="none" vector-effect="none" points="975,302.702 970.825,302.702 " />
<polyline fill="none" vector-effect="none" points="975,292.449 970.825,292.449 " />
<polyline fill="none" vector-effect="none" points="975,284.072 970.825,284.072 " />
<polyline fill="none" vector-effect="none" points="975,276.989 970.825,276.989 " />
<polyline fill="none" vector-effect="none" points="975,270.853 970.825,270.853 " />
<polyline fill="none" vector-effect="none" points="975,265.441 970.825,265.441 " />
<polyline fill="none" vector-effect="none" points="975,260.6 970.825,260.6 " />
<polyline fill="none" vector-effect="none" points="975,228.751 970.825,228.751 " />
<polyline fill="none" vector-effect="none" points="975,210.121 970.825,210.121 " />
<polyline fill="none" vector-effect="none" points="975,196.902 970.825,196.902 " />
<polyline fill="none" vector-effect="none" points="975,186.649 970.825,186.649 " />
<polyline fill="none" vector-effect="none" points="975,178.272 970.825,178.272 " />
<polyline fill="none" vector-effect="none" points="975,171.189 970.825,171.189 " />
<polyline fill="none" vector-effect="none" points="975,165.053 970.825,165.053 " />
<polyline fill="none" vector-effect="none" points="975,159.641 970.825,159.641 " />
<polyline fill="none" vector-effect="none" points="975,154.8 970.825,154.8 " />
<polyline fill="none" vector-effect="none" points="975,122.951 970.825,122.951 " />
<polyline fill="none" vector-effect="none" points="975,104.321 970.825,104.321 " />
<polyline fill="none" vector-effect="none" points="975,91.1021 970.825,91.1021 " />
<polyline fill="none" vector-effect="none" points="975,80.849 970.825,80.849 " />
<polyline fill="none" vector-effect="none" points="975,72.4716 970.825,72.4716 " />
<polyline fill="none" vector-effect="none" points="975,65.3886 970.825,65.3886 " />
<polyline fill="none" vector-effect="none" points="975,59.2531 970.825,59.2531 " />
<polyline fill="none" vector-effect="none" points="975,53.8412 970.825,53.8412 " />
<polyline fill="none" vector-effect="none" points="975,49 970.825,49 " />
</g>

<g fill="#212121" fill-opacity="1" stroke="#212121" stroke-opacity="1" stroke-width="1" stroke-linecap="square" stroke-linejoin="bevel" transform="matrix(0.749537,0,0,0.749463,16.155,415.016)"
font-family="Helvetica" font-size="13" font-weight="400" font-style="normal" 
>
<text fill="#212121" fill-opacity="1" stroke="none" xml:space="preserve" x="0" y="0" font-family="Helvetica" font-size="13" font-weight="400" font-style="normal" 
 >10</text>
</g>

<g fill="#212121" fill-opacity="1" stroke="#212121" stroke-opacity="1" stroke-width="1" stroke-linecap="square" stroke-linejoin="bevel" transform="matrix(0.749537,0,0,0.749463,26.6485,410.52)"
font-family="Helvetica" font-size="10" font-weight="400" font-style="normal" 
>
<text fill="#212121" fill-opacity="1" stroke="none" xml:space="preserve" x="0" y="0" font-family="Helvetica" font-size="10" font-weight="400" font-style="normal" 
 >-11</text>
</g>

<g fill="#212121" fill-opacity="1" stroke="#212121" stroke-opacity="1" stroke-width="1" stroke-linecap="square" stroke-linejoin="bevel" transform="matrix(0.749537,0,0,0.749463,15.4055,335.573)"
font-family="Helvetica" font-size="13" font-weight="400" font-style="normal" 
>
<text fill="#212121" fill-opacity="1" stroke="none" xml:space="preserve" x="0" y="0" font-family="Helvetica" font-size="13" font-weight="400" font-style="normal" 
 >10</text>
</g>

<g fill="#212121" fill-opacity="1" stroke="#212121" stroke-opacity="1" stroke-width="1" stroke-linecap="square" stroke-linejoin="bevel" transform="matrix(0.749537,0,0,0.749463,25.899,331.077)"
font-family="Helvetica" font-size="10" font-weight="400" font-style="normal" 
>
<text fill="#212121" fill-opacity="1" stroke="none" xml:space="preserve" x="0" y="0" font-family="Helvetica" font-size="10" font-weight="400" font-style="normal" 
 >-10</text>
</g>

<g fill="#212121" fill-opacity="1" stroke="#212121" stroke-opacity="1" stroke-width="1" stroke-linecap="square" stroke-linejoin="bevel" transform="matrix(0.749537,0,0,0.749463,19.9027,256.13)"
font-family="Helvetica" font-size="13" font-weight="400" font-style="normal" 
>
<text fill="#212121" fill-opacity="1" stroke="none" xml:space="preserve" x="0" y="0" font-family="Helvetica" font-size="13" font-weight="400" font-style="normal" 
 >10</text>
</g>

<g fill="#212121" fill-opacity="1" stroke="#212121" stroke-opacity="1" stroke-width="1" stroke-linecap="square" stroke-linejoin="bevel" transform="matrix(0.749537,0,0,0.749463,30.3962,251.633)"
font-family="Helvetica" font-size="10" font-weight="400" font-style="normal" 
>
<text fill="#212121" fill-opacity="1" stroke="none" xml:space="preserve" x="0" y="0" font-family="Helvetica" font-size="10" font-weight="400" font-style="normal" 
 >-9</text>
</g>

<g fill="#212121" fill-opacity="1" stroke="#212121" stroke-opacity="1" stroke-width="1" stroke-linecap="square" stroke-linejoin="bevel" transform="matrix(0.749537,0,0,0.749463,19.9027,177.437)"
font-family="Helvetica" font-size="13" font-weight="400" font-style="normal" 
>
<text fill="#212121" fill-opacity="1" stroke="none" xml:space="preserve" x="0" y="0" font-family="Helvetica" font-size="13" font-weight="400" font-style="normal" 
 >10</text>
</g>

<g fill="#212121" fill-opacity="1" stroke="#212121" stroke-opacity="1" stroke-width="1" stroke-linecap="square" stroke-linejoin="bevel" transform="matrix(0.749537,0,0,0.749463,30.3962,172.94)"
font-family="Helvetica" font-size="10" font-weight="400" font-style="normal" 
>
<text fill="#212121" fill-opacity="1" stroke="none" xml:space="preserve" x="0" y="0" font-family="Helvetica" font-size="10" font-weight="400" font-style="normal" 
 >-8</text>
</g>

<g fill="#212121" fill-opacity="1" stroke="#212121" stroke-opacity="1" stroke-width="1" stroke-linecap="square" stroke-linejoin="bevel" transform="matrix(0.749537,0,0,0.749463,19.9027,97.9934)"
font-family="Helvetica" font-size="13" font-weight="400" font-style="normal" 
>
<text fill="#212121" fill-opacity="1" stroke="none" xml:space="preserve" x="0" y="0" font-family="Helvetica" font-size="13" font-weight="400" font-style="normal" 
 >10</text>
</g>

<g fill="#212121" fill-opacity="1" stroke="#212121" stroke-opacity="1" stroke-width="1" stroke-linecap="square" stroke-linejoin="bevel" transform="matrix(0.749537,0,0,0.749463,30.3962,93.4966)"
font-family="Helvetica" font-size="10" font-weight="400" font-style="normal" 
>
<text fill="#212121" fill-opacity="1" stroke="none" xml:space="preserve" x="0" y="0" font-family="Helvetica" font-size="10" font-weight="400" font-style="normal" 
 >-7</text>
</g>

<g fill="#212121" fill-opacity="1" stroke="#212121" stroke-opacity="1" stroke-width="1" stroke-linecap="square" stroke-linejoin="bevel" transform="matrix(0.749537,0,0,0.749463,19.9027,18.5503)"
font-family="Helvetica" font-size="13" font-weight="400" font-style="normal" 
>
<text fill="#212121" fill-opacity="1" stroke="none" xml:space="preserve" x="0" y="0" font-family="Helvetica" font-size="13" font-weight="400" font-style="normal" 
 >10</text>
</g>

<g fill="#212121" fill-opacity="1" stroke="#212121" stroke-opacity="1" stroke-width="1" stroke-linecap="square" stroke-linejoin="bevel" transform="matrix(0.749537,0,0,0.749463,30.3962,14.0535)"
font-family="Helvetica" font-size="10" font-weight="400" font-style="normal" 
>
<text fill="#212121" fill-opacity="1" stroke="none" xml:space="preserve" x="0" y="0" font-family="Helvetica" font-size="10" font-weight="400" font-style="normal" 
 >-6</text>
</g>

<g fill="#212121" fill-opacity="1" stroke="#212121" stroke-opacity="1" stroke-width="1" stroke-linecap="square" stroke-linejoin="bevel" transform="matrix(0,-0.749463,0.749537,0,8.99537,248.636)"
font-family="Helvetica" font-size="14" font-weight="400" font-style="normal" 
>
<text fill="#212121" fill-opacity="1" stroke="none" xml:space="preserve" x="0" y="0" font-family="Helvetica" font-size="14" font-weight="400" font-style="normal" 
 >Delay RMSE [s]</text>
</g>

<g fill="#212121" fill-opacity="1" stroke="#212121" stroke-opacity="1" stroke-width="1" stroke-linecap="square" stroke-linejoin="bevel" transform="matrix(0.749537,0,0,0.749463,338.081,8.99463)"
font-family="Helvetica" font-size="14" font-weight="700" font-style="normal" 
>
<text fill="#212121" fill-opacity="1" stroke="none" xml:space="preserve" x="0" y="0" font-family="Helvetica" font-size="14" font-weight="700" font-style="normal" 
 >OFDM</text>
</g>

<g fill="none" stroke="#f57729" stroke-opacity="1" stroke-width="2.66667" stroke-linecap="butt" stroke-linejoin="round" transform="matrix(0.749537,0,0,0.749463,-64.0455,-23.4197)"
font-family="Helvetica" font-size="14" font-weight="700" font-style="normal" 
>
<polyline fill="none" vector-effect="none" points="140,67.8746 163.857,73.5854 187.714,70.2754 211.571,66.499 235.429,70.7735 259.286,75.8814 283.143,75.4511 307,72.2872 330.857,68.342 354.714,74.3801 378.571,74.3519 402.429,71.5795 426.286,80.5535 450.143,93.0493 474,98.2544 497.857,114.887 521.714,149.881 545.571,232.384 569.429,326.275 593.286,333.061 617.143,356.468 641,357.495 664.857,366.277 688.714,379.121 712.571,393.306 736.429,405.952 760.286,412.448 784.143,426.56 808,433.683 831.857,440.179 855.714,457.315 879.571,463.982 903.429,476.251 927.286,482.345 951.143,492.442 975,505.151 " />
</g>

<g fill="none" stroke="#f57729" stroke-opacity="1" stroke-dasharray="8,8" stroke-dashoffset="0" stroke-width="2.66667" stroke-linecap="butt" stroke-linejoin="round" transform="matrix(0.749537,0,0,0.749463,-64.0455,-23.4197)"
font-family="Helvetica" font-size="14" font-weight="700" font-style="normal" 
>
<polyline fill="none" vector-effect="none" points="140,140.638 163.857,151.218 187.714,161.798 211.571,172.378 235.429,182.958 259.286,193.538 283.143,204.118 307,214.698 330.857,225.278 354.714,235.858 378.571,246.438 402.429,257.018 426.286,267.598 450.143,278.178 474,288.758 497.857,299.338 521.714,309.918 545.571,320.498 569.429,331.078 593.286,341.658 617.143,352.238 641,362.818 664.857,373.398 688.714,383.978 712.571,394.558 736.429,405.138 760.286,415.718 784.143,426.298 808,436.878 831.857,447.458 855.714,458.038 879.571,468.618 903.429,479.198 927.286,489.778 951.143,500.358 975,510.938 " />
</g>

<g fill="none" stroke="#ffe864" stroke-opacity="1" stroke-width="2.66667" stroke-linecap="butt" stroke-linejoin="round" transform="matrix(0.749537,0,0,0.749463,-64.0455,-23.4197)"
font-family="Helvetica" font-size="14" font-weight="700" font-style="normal" 
>
<polyline fill="none" vector-effect="none" points="140,69.5456 163.857,70.5709 187.714,70.1332 211.571,67.0943 235.429,70.697 259.286,80.0338 283.143,74.047 307,86.1929 330.857,83.9382 354.714,100.524 378.571,128.18 402.429,155.189 426.286,215.888 450.143,323.686 474,336.39 497.857,348.351 521.714,360.598 545.571,371.194 569.429,383.432 593.286,392.875 617.143,404.684 641,416.429 664.857,417.408 688.714,429.686 712.571,442.504 736.429,452.325 760.286,462.011 784.143,480.608 808,490.893 831.857,494.526 855.714,507.132 879.571,516.43 903.429,528.402 927.286,536.334 951.143,548.628 975,558.985 " />
</g>

<g fill="none" stroke="#ffe864" stroke-opacity="1" stroke-dasharray="8,8" stroke-dashoffset="0" stroke-width="2.66667" stroke-linecap="butt" stroke-linejoin="round" transform="matrix(0.749537,0,0,0.749463,-64.0455,-23.4197)"
font-family="Helvetica" font-size="14" font-weight="700" font-style="normal" 
>
<polyline fill="none" vector-effect="none" points="140,189.42 163.857,200 187.714,210.58 211.571,221.16 235.429,231.74 259.286,242.32 283.143,252.9 307,263.48 330.857,274.06 354.714,284.64 378.571,295.22 402.429,305.8 426.286,316.38 450.143,326.96 474,337.54 497.857,348.12 521.714,358.7 545.571,369.28 569.429,379.86 593.286,390.44 617.143,401.02 641,411.6 664.857,422.18 688.714,432.76 712.571,443.34 736.429,453.92 760.286,464.5 784.143,475.08 808,485.66 831.857,496.24 855.714,506.82 879.571,517.4 903.429,527.98 927.286,538.56 951.143,549.14 975,559.72 " />
</g>

<g fill="#ffffff" fill-opacity="1" stroke="none" transform="matrix(7.49537e-05,0,0,7.49463e-05,-64.0455,-23.4197)"
font-family="Helvetica" font-size="14" font-weight="700" font-style="normal" 
>
<path vector-effect="none" fill-rule="evenodd" d="M8.32e+06,600000 L8.32e+06,1.21e+06 L9.64e+06,1.21e+06 L9.64e+06,600000 L8.32e+06,600000"/>
</g>

<g fill="#f57729" fill-opacity="1" stroke="#f57729" stroke-opacity="1" stroke-width="2.66667" stroke-linecap="butt" stroke-linejoin="round" transform="matrix(0.749537,0,0,0.749463,-64.0455,-23.4197)"
font-family="Helvetica" font-size="14" font-weight="700" font-style="normal" 
>
<polyline fill="none" vector-effect="none" points="836,68.9268 876,68.9268 " />
</g>

<g fill="#f57729" fill-opacity="1" stroke="#f57729" stroke-opacity="1" stroke-dasharray="8,8" stroke-dashoffset="0" stroke-width="2.66667" stroke-linecap="butt" stroke-linejoin="round" transform="matrix(0.749537,0,0,0.749463,-64.0455,-23.4197)"
font-family="Helvetica" font-size="14" font-weight="700" font-style="normal" 
>
<polyline fill="none" vector-effect="none" points="836,83.3089 876,83.3089 " />
</g>

<g fill="#ffe864" fill-opacity="1" stroke="#ffe864" stroke-opacity="1" stroke-width="2.66667" stroke-linecap="butt" stroke-linejoin="round" transform="matrix(0.749537,0,0,0.749463,-64.0455,-23.4197)"
font-family="Helvetica" font-size="14" font-weight="700" font-style="normal" 
>
<polyline fill="none" vector-effect="none" points="836,97.6911 876,97.6911 " />
</g>

<g fill="#ffe864" fill-opacity="1" stroke="#ffe864" stroke-opacity="1" stroke-dasharray="8,8" stroke-dashoffset="0" stroke-width="2.66667" stroke-linecap="butt" stroke-linejoin="round" transform="matrix(0.749537,0,0,0.749463,-64.0455,-23.4197)"
font-family="Helvetica" font-size="14" font-weight="700" font-style="normal" 
>
<polyline fill="none" vector-effect="none" points="836,112.073 876,112.073 " />
</g>

<g fill="#212121" fill-opacity="1" stroke="#212121" stroke-opacity="1" stroke-width="1" stroke-linecap="square" stroke-linejoin="bevel" transform="matrix(0.749537,0,0,0.749463,594.798,31.2363)"
font-family="Helvetica" font-size="12" font-weight="400" font-style="normal" 
>
<text fill="#212121" fill-opacity="1" stroke="none" xml:space="preserve" x="0" y="0" font-family="Helvetica" font-size="12" font-weight="400" font-style="normal" 
 >Pilot Only MLE</text>
</g>

<g fill="#212121" fill-opacity="1" stroke="#212121" stroke-opacity="1" stroke-width="1" stroke-linecap="square" stroke-linejoin="bevel" transform="matrix(0.749537,0,0,0.749463,594.798,42.0152)"
font-family="Helvetica" font-size="12" font-weight="400" font-style="normal" 
>
<text fill="#212121" fill-opacity="1" stroke="none" xml:space="preserve" x="0" y="0" font-family="Helvetica" font-size="12" font-weight="400" font-style="normal" 
 >Pilot Only CRB</text>
</g>

<g fill="#212121" fill-opacity="1" stroke="#212121" stroke-opacity="1" stroke-width="1" stroke-linecap="square" stroke-linejoin="bevel" transform="matrix(0.749537,0,0,0.749463,594.798,52.7941)"
font-family="Helvetica" font-size="12" font-weight="400" font-style="normal" 
>
<text fill="#212121" fill-opacity="1" stroke="none" xml:space="preserve" x="0" y="0" font-family="Helvetica" font-size="12" font-weight="400" font-style="normal" 
 >Full Data MLE</text>
</g>

<g fill="#212121" fill-opacity="1" stroke="#212121" stroke-opacity="1" stroke-width="1" stroke-linecap="square" stroke-linejoin="bevel" transform="matrix(0.749537,0,0,0.749463,594.798,63.5729)"
font-family="Helvetica" font-size="12" font-weight="400" font-style="normal" 
>
<text fill="#212121" fill-opacity="1" stroke="none" xml:space="preserve" x="0" y="0" font-family="Helvetica" font-size="12" font-weight="400" font-style="normal" 
 >Full Data CRB</text>
</g>

<g fill="none" stroke="#212121" stroke-opacity="1" stroke-width="0.666667" stroke-linecap="butt" stroke-linejoin="miter" stroke-miterlimit="2" transform="matrix(0.749537,0,0,0.749463,-64.0455,-23.4197)"
font-family="Helvetica" font-size="12" font-weight="400" font-style="normal" 
>
<path vector-effect="none" fill-rule="evenodd" d="M832,121 L832,60 L964,60 L964,121 L832,121"/>
</g>
</g>
</svg>
