<?xml version="1.0" encoding="UTF-8" standalone="no"?>
<svg width="237.772mm" height="155.222mm"
 viewBox="0 0 674 440"
 xmlns="http://www.w3.org/2000/svg" xmlns:xlink="http://www.w3.org/1999/xlink"  version="1.2" baseProfile="tiny">
<title>Qt SVG Document</title>
<desc>MATLAB, The MathWorks, Inc. Version 25.2.0.3055257 R2025b Update 2</desc>
<defs>
</defs>
<g fill="none" stroke="black" stroke-width="1" fill-rule="evenodd" stroke-linecap="square" stroke-linejoin="bevel" >

<g fill="#ffffff" fill-opacity="1" stroke="none" transform="matrix(0.749537,0,0,0.749463,-64.0455,-23.4197)"
font-family="MS Shell Dlg 2" font-size="8.25" font-weight="400" font-style="normal" 
>
<path vector-effect="none" fill-rule="evenodd" d="M84,30 L984,30 L984,618 L84,618 L84,30"/>
</g>

<g fill="#ffffff" fill-opacity="1" stroke="none" transform="matrix(7.49537e-05,0,0,7.49463e-05,-64.0455,-23.4197)"
font-family="MS Shell Dlg 2" font-size="8.25" font-weight="400" font-style="normal" 
>
<path vector-effect="none" fill-rule="evenodd" d="M1.4e+06,490000 L1.4e+06,5.78e+06 L9.75e+06,5.78e+06 L9.75e+06,490000 L1.4e+06,490000"/>
</g>

<g fill="#212121" fill-opacity="0.14902" stroke="#212121" stroke-opacity="0.14902" stroke-width="0.666667" stroke-linecap="butt" stroke-linejoin="round" transform="matrix(0.749537,0,0,0.749463,-64.0455,-23.4197)"
font-family="MS Shell Dlg 2" font-size="8.25" font-weight="400" font-style="normal" 
>
<polyline fill="none" vector-effect="none" points="140,578 140,49 " />
<polyline fill="none" vector-effect="none" points="259.286,578 259.286,49 " />
<polyline fill="none" vector-effect="none" points="378.571,578 378.571,49 " />
<polyline fill="none" vector-effect="none" points="497.857,578 497.857,49 " />
<polyline fill="none" vector-effect="none" points="617.143,578 617.143,49 " />
<polyline fill="none" vector-effect="none" points="736.429,578 736.429,49 " />
<polyline fill="none" vector-effect="none" points="855.714,578 855.714,49 " />
<polyline fill="none" vector-effect="none" points="975,578 975,49 " />
</g>

<g fill="#212121" fill-opacity="0.14902" stroke="#212121" stroke-opacity="0.14902" stroke-dasharray="1,3" stroke-dashoffset="0" stroke-width="0.666667" stroke-linecap="butt" stroke-linejoin="round" transform="matrix(0.749537,0,0,0.749463,-64.0455,-23.4197)"
font-family="MS Shell Dlg 2" font-size="8.25" font-weight="400" font-style="normal" 
>
<polyline fill="none" vector-effect="none" points="975,546.151 140,546.151 " />
<polyline fill="none" vector-effect="none" points="975,527.521 140,527.521 " />
<polyline fill="none" vector-effect="none" points="975,514.302 140,514.302 " />
<polyline fill="none" vector-effect="none" points="975,504.049 140,504.049 " />
<polyline fill="none" vector-effect="none" points="975,495.672 140,495.672 " />
<polyline fill="none" vector-effect="none" points="975,488.589 140,488.589 " />
<polyline fill="none" vector-effect="none" points="975,482.453 140,482.453 " />
<polyline fill="none" vector-effect="none" points="975,477.041 140,477.041 " />
<polyline fill="none" vector-effect="none" points="975,440.351 140,440.351 " />
<polyline fill="none" vector-effect="none" points="975,421.721 140,421.721 " />
<polyline fill="none" vector-effect="none" points="975,408.502 140,408.502 " />
<polyline fill="none" vector-effect="none" points="975,398.249 140,398.249 " />
<polyline fill="none" vector-effect="none" points="975,389.872 140,389.872 " />
<polyline fill="none" vector-effect="none" points="975,382.789 140,382.789 " />
<polyline fill="none" vector-effect="none" points="975,376.653 140,376.653 " />
<polyline fill="none" vector-effect="none" points="975,371.241 140,371.241 " />
<polyline fill="none" vector-effect="none" points="975,334.551 140,334.551 " />
<polyline fill="none" vector-effect="none" points="975,315.921 140,315.921 " />
<polyline fill="none" vector-effect="none" points="975,302.702 140,302.702 " />
<polyline fill="none" vector-effect="none" points="975,292.449 140,292.449 " />
<polyline fill="none" vector-effect="none" points="975,284.072 140,284.072 " />
<polyline fill="none" vector-effect="none" points="975,276.989 140,276.989 " />
<polyline fill="none" vector-effect="none" points="975,270.853 140,270.853 " />
<polyline fill="none" vector-effect="none" points="975,265.441 140,265.441 " />
<polyline fill="none" vector-effect="none" points="975,228.751 140,228.751 " />
<polyline fill="none" vector-effect="none" points="975,210.121 140,210.121 " />
<polyline fill="none" vector-effect="none" points="975,196.902 140,196.902 " />
<polyline fill="none" vector-effect="none" points="975,186.649 140,186.649 " />
<polyline fill="none" vector-effect="none" points="975,178.272 140,178.272 " />
<polyline fill="none" vector-effect="none" points="975,171.189 140,171.189 " />
<polyline fill="none" vector-effect="none" points="975,165.053 140,165.053 " />
<polyline fill="none" vector-effect="none" points="975,159.641 140,159.641 " />
<polyline fill="none" vector-effect="none" points="975,122.951 140,122.951 " />
<polyline fill="none" vector-effect="none" points="975,104.321 140,104.321 " />
<polyline fill="none" vector-effect="none" points="975,91.1021 140,91.1021 " />
<polyline fill="none" vector-effect="none" points="975,80.849 140,80.849 " />
<polyline fill="none" vector-effect="none" points="975,72.4716 140,72.4716 " />
<polyline fill="none" vector-effect="none" points="975,65.3886 140,65.3886 " />
<polyline fill="none" vector-effect="none" points="975,59.2531 140,59.2531 " />
<polyline fill="none" vector-effect="none" points="975,53.8412 140,53.8412 " />
</g>

<g fill="#212121" fill-opacity="0.14902" stroke="#212121" stroke-opacity="0.14902" stroke-width="0.666667" stroke-linecap="butt" stroke-linejoin="round" transform="matrix(0.749537,0,0,0.749463,-64.0455,-23.4197)"
font-family="MS Shell Dlg 2" font-size="8.25" font-weight="400" font-style="normal" 
>
<polyline fill="none" vector-effect="none" points="975,578 140,578 " />
<polyline fill="none" vector-effect="none" points="975,472.2 140,472.2 " />
<polyline fill="none" vector-effect="none" points="975,366.4 140,366.4 " />
<polyline fill="none" vector-effect="none" points="975,260.6 140,260.6 " />
<polyline fill="none" vector-effect="none" points="975,154.8 140,154.8 " />
<polyline fill="none" vector-effect="none" points="975,49 140,49 " />
</g>

<g fill="#212121" fill-opacity="1" stroke="#212121" stroke-opacity="1" stroke-width="0.666667" stroke-linecap="square" stroke-linejoin="round" transform="matrix(0.749537,0,0,0.749463,-64.0455,-23.4197)"
font-family="MS Shell Dlg 2" font-size="8.25" font-weight="400" font-style="normal" 
>
<polyline fill="none" vector-effect="none" points="140,578 975,578 " />
<polyline fill="none" vector-effect="none" points="140,49 975,49 " />
<polyline fill="none" vector-effect="none" points="140,578 140,569.65 " />
<polyline fill="none" vector-effect="none" points="259.286,578 259.286,569.65 " />
<polyline fill="none" vector-effect="none" points="378.571,578 378.571,569.65 " />
<polyline fill="none" vector-effect="none" points="497.857,578 497.857,569.65 " />
<polyline fill="none" vector-effect="none" points="617.143,578 617.143,569.65 " />
<polyline fill="none" vector-effect="none" points="736.429,578 736.429,569.65 " />
<polyline fill="none" vector-effect="none" points="855.714,578 855.714,569.65 " />
<polyline fill="none" vector-effect="none" points="975,578 975,569.65 " />
<polyline fill="none" vector-effect="none" points="140,49 140,57.35 " />
<polyline fill="none" vector-effect="none" points="259.286,49 259.286,57.35 " />
<polyline fill="none" vector-effect="none" points="378.571,49 378.571,57.35 " />
<polyline fill="none" vector-effect="none" points="497.857,49 497.857,57.35 " />
<polyline fill="none" vector-effect="none" points="617.143,49 617.143,57.35 " />
<polyline fill="none" vector-effect="none" points="736.429,49 736.429,57.35 " />
<polyline fill="none" vector-effect="none" points="855.714,49 855.714,57.35 " />
<polyline fill="none" vector-effect="none" points="975,49 975,57.35 " />
</g>

<g fill="#212121" fill-opacity="1" stroke="#212121" stroke-opacity="1" stroke-width="1" stroke-linecap="square" stroke-linejoin="bevel" transform="matrix(0.749537,0,0,0.749463,34.1439,422.761)"
font-family="Helvetica" font-size="13" font-weight="400" font-style="normal" 
>
<text fill="#212121" fill-opacity="1" stroke="none" xml:space="preserve" x="0" y="0" font-family="Helvetica" font-size="13" font-weight="400" font-style="normal" 
 >-40</text>
</g>

<g fill="#212121" fill-opacity="1" stroke="#212121" stroke-opacity="1" stroke-width="1" stroke-linecap="square" stroke-linejoin="bevel" transform="matrix(0.749537,0,0,0.749463,123.553,422.761)"
font-family="Helvetica" font-size="13" font-weight="400" font-style="normal" 
>
<text fill="#212121" fill-opacity="1" stroke="none" xml:space="preserve" x="0" y="0" font-family="Helvetica" font-size="13" font-weight="400" font-style="normal" 
 >-30</text>
</g>

<g fill="#212121" fill-opacity="1" stroke="#212121" stroke-opacity="1" stroke-width="1" stroke-linecap="square" stroke-linejoin="bevel" transform="matrix(0.749537,0,0,0.749463,212.962,422.761)"
font-family="Helvetica" font-size="13" font-weight="400" font-style="normal" 
>
<text fill="#212121" fill-opacity="1" stroke="none" xml:space="preserve" x="0" y="0" font-family="Helvetica" font-size="13" font-weight="400" font-style="normal" 
 >-20</text>
</g>

<g fill="#212121" fill-opacity="1" stroke="#212121" stroke-opacity="1" stroke-width="1" stroke-linecap="square" stroke-linejoin="bevel" transform="matrix(0.749537,0,0,0.749463,302.371,422.761)"
font-family="Helvetica" font-size="13" font-weight="400" font-style="normal" 
>
<text fill="#212121" fill-opacity="1" stroke="none" xml:space="preserve" x="0" y="0" font-family="Helvetica" font-size="13" font-weight="400" font-style="normal" 
 >-10</text>
</g>

<g fill="#212121" fill-opacity="1" stroke="#212121" stroke-opacity="1" stroke-width="1" stroke-linecap="square" stroke-linejoin="bevel" transform="matrix(0.749537,0,0,0.749463,395.903,422.761)"
font-family="Helvetica" font-size="13" font-weight="400" font-style="normal" 
>
<text fill="#212121" fill-opacity="1" stroke="none" xml:space="preserve" x="0" y="0" font-family="Helvetica" font-size="13" font-weight="400" font-style="normal" 
 >0</text>
</g>

<g fill="#212121" fill-opacity="1" stroke="#212121" stroke-opacity="1" stroke-width="1" stroke-linecap="square" stroke-linejoin="bevel" transform="matrix(0.749537,0,0,0.749463,482.688,422.761)"
font-family="Helvetica" font-size="13" font-weight="400" font-style="normal" 
>
<text fill="#212121" fill-opacity="1" stroke="none" xml:space="preserve" x="0" y="0" font-family="Helvetica" font-size="13" font-weight="400" font-style="normal" 
 >10</text>
</g>

<g fill="#212121" fill-opacity="1" stroke="#212121" stroke-opacity="1" stroke-width="1" stroke-linecap="square" stroke-linejoin="bevel" transform="matrix(0.749537,0,0,0.749463,572.097,422.761)"
font-family="Helvetica" font-size="13" font-weight="400" font-style="normal" 
>
<text fill="#212121" fill-opacity="1" stroke="none" xml:space="preserve" x="0" y="0" font-family="Helvetica" font-size="13" font-weight="400" font-style="normal" 
 >20</text>
</g>

<g fill="#212121" fill-opacity="1" stroke="#212121" stroke-opacity="1" stroke-width="1" stroke-linecap="square" stroke-linejoin="bevel" transform="matrix(0.749537,0,0,0.749463,661.506,422.761)"
font-family="Helvetica" font-size="13" font-weight="400" font-style="normal" 
>
<text fill="#212121" fill-opacity="1" stroke="none" xml:space="preserve" x="0" y="0" font-family="Helvetica" font-size="13" font-weight="400" font-style="normal" 
 >30</text>
</g>

<g fill="#212121" fill-opacity="1" stroke="#212121" stroke-opacity="1" stroke-width="1" stroke-linecap="square" stroke-linejoin="bevel" transform="matrix(0.749537,0,0,0.749463,332.085,435.752)"
font-family="Helvetica" font-size="14" font-weight="400" font-style="normal" 
>
<text fill="#212121" fill-opacity="1" stroke="none" xml:space="preserve" x="0" y="0" font-family="Helvetica" font-size="14" font-weight="400" font-style="normal" 
 >SNR [dB]</text>
</g>

<g fill="#212121" fill-opacity="1" stroke="#212121" stroke-opacity="1" stroke-width="0.666667" stroke-linecap="square" stroke-linejoin="round" transform="matrix(0.749537,0,0,0.749463,-64.0455,-23.4197)"
font-family="Helvetica" font-size="14" font-weight="400" font-style="normal" 
>
<polyline fill="none" vector-effect="none" points="140,578 140,49 " />
<polyline fill="none" vector-effect="none" points="975,578 975,49 " />
<polyline fill="none" vector-effect="none" points="140,578 148.35,578 " />
<polyline fill="none" vector-effect="none" points="140,472.2 148.35,472.2 " />
<polyline fill="none" vector-effect="none" points="140,366.4 148.35,366.4 " />
<polyline fill="none" vector-effect="none" points="140,260.6 148.35,260.6 " />
<polyline fill="none" vector-effect="none" points="140,154.8 148.35,154.8 " />
<polyline fill="none" vector-effect="none" points="140,49 148.35,49 " />
<polyline fill="none" vector-effect="none" points="975,578 966.65,578 " />
<polyline fill="none" vector-effect="none" points="975,472.2 966.65,472.2 " />
<polyline fill="none" vector-effect="none" points="975,366.4 966.65,366.4 " />
<polyline fill="none" vector-effect="none" points="975,260.6 966.65,260.6 " />
<polyline fill="none" vector-effect="none" points="975,154.8 966.65,154.8 " />
<polyline fill="none" vector-effect="none" points="975,49 966.65,49 " />
<polyline fill="none" vector-effect="none" points="140,578 144.175,578 " />
<polyline fill="none" vector-effect="none" points="140,546.151 144.175,546.151 " />
<polyline fill="none" vector-effect="none" points="140,527.521 144.175,527.521 " />
<polyline fill="none" vector-effect="none" points="140,514.302 144.175,514.302 " />
<polyline fill="none" vector-effect="none" points="140,504.049 144.175,504.049 " />
<polyline fill="none" vector-effect="none" points="140,495.672 144.175,495.672 " />
<polyline fill="none" vector-effect="none" points="140,488.589 144.175,488.589 " />
<polyline fill="none" vector-effect="none" points="140,482.453 144.175,482.453 " />
<polyline fill="none" vector-effect="none" points="140,477.041 144.175,477.041 " />
<polyline fill="none" vector-effect="none" points="140,472.2 144.175,472.2 " />
<polyline fill="none" vector-effect="none" points="140,440.351 144.175,440.351 " />
<polyline fill="none" vector-effect="none" points="140,421.721 144.175,421.721 " />
<polyline fill="none" vector-effect="none" points="140,408.502 144.175,408.502 " />
<polyline fill="none" vector-effect="none" points="140,398.249 144.175,398.249 " />
<polyline fill="none" vector-effect="none" points="140,389.872 144.175,389.872 " />
<polyline fill="none" vector-effect="none" points="140,382.789 144.175,382.789 " />
<polyline fill="none" vector-effect="none" points="140,376.653 144.175,376.653 " />
<polyline fill="none" vector-effect="none" points="140,371.241 144.175,371.241 " />
<polyline fill="none" vector-effect="none" points="140,366.4 144.175,366.4 " />
<polyline fill="none" vector-effect="none" points="140,334.551 144.175,334.551 " />
<polyline fill="none" vector-effect="none" points="140,315.921 144.175,315.921 " />
<polyline fill="none" vector-effect="none" points="140,302.702 144.175,302.702 " />
<polyline fill="none" vector-effect="none" points="140,292.449 144.175,292.449 " />
<polyline fill="none" vector-effect="none" points="140,284.072 144.175,284.072 " />
<polyline fill="none" vector-effect="none" points="140,276.989 144.175,276.989 " />
<polyline fill="none" vector-effect="none" points="140,270.853 144.175,270.853 " />
<polyline fill="none" vector-effect="none" points="140,265.441 144.175,265.441 " />
<polyline fill="none" vector-effect="none" points="140,260.6 144.175,260.6 " />
<polyline fill="none" vector-effect="none" points="140,228.751 144.175,228.751 " />
<polyline fill="none" vector-effect="none" points="140,210.121 144.175,210.121 " />
<polyline fill="none" vector-effect="none" points="140,196.902 144.175,196.902 " />
<polyline fill="none" vector-effect="none" points="140,186.649 144.175,186.649 " />
<polyline fill="none" vector-effect="none" points="140,178.272 144.175,178.272 " />
<polyline fill="none" vector-effect="none" points="140,171.189 144.175,171.189 " />
<polyline fill="none" vector-effect="none" points="140,165.053 144.175,165.053 " />
<polyline fill="none" vector-effect="none" points="140,159.641 144.175,159.641 " />
<polyline fill="none" vector-effect="none" points="140,154.8 144.175,154.8 " />
<polyline fill="none" vector-effect="none" points="140,122.951 144.175,122.951 " />
<polyline fill="none" vector-effect="none" points="140,104.321 144.175,104.321 " />
<polyline fill="none" vector-effect="none" points="140,91.1021 144.175,91.1021 " />
<polyline fill="none" vector-effect="none" points="140,80.849 144.175,80.849 " />
<polyline fill="none" vector-effect="none" points="140,72.4716 144.175,72.4716 " />
<polyline fill="none" vector-effect="none" points="140,65.3886 144.175,65.3886 " />
<polyline fill="none" vector-effect="none" points="140,59.2531 144.175,59.2531 " />
<polyline fill="none" vector-effect="none" points="140,53.8412 144.175,53.8412 " />
<polyline fill="none" vector-effect="none" points="140,49 144.175,49 " />
<polyline fill="none" vector-effect="none" points="975,578 970.825,578 " />
<polyline fill="none" vector-effect="none" points="975,546.151 970.825,546.151 " />
<polyline fill="none" vector-effect="none" points="975,527.521 970.825,527.521 " />
<polyline fill="none" vector-effect="none" points="975,514.302 970.825,514.302 " />
<polyline fill="none" vector-effect="none" points="975,504.049 970.825,504.049 " />
<polyline fill="none" vector-effect="none" points="975,495.672 970.825,495.672 " />
<polyline fill="none" vector-effect="none" points="975,488.589 970.825,488.589 " />
<polyline fill="none" vector-effect="none" points="975,482.453 970.825,482.453 " />
<polyline fill="none" vector-effect="none" points="975,477.041 970.825,477.041 " />
<polyline fill="none" vector-effect="none" points="975,472.2 970.825,472.2 " />
<polyline fill="none" vector-effect="none" points="975,440.351 970.825,440.351 " />
<polyline fill="none" vector-effect="none" points="975,421.721 970.825,421.721 " />
<polyline fill="none" vector-effect="none" points="975,408.502 970.825,408.502 " />
<polyline fill="none" vector-effect="none" points="975,398.249 970.825,398.249 " />
<polyline fill="none" vector-effect="none" points="975,389.872 970.825,389.872 " />
<polyline fill="none" vector-effect="none" points="975,382.789 970.825,382.789 " />
<polyline fill="none" vector-effect="none" points="975,376.653 970.825,376.653 " />
<polyline fill="none" vector-effect="none" points="975,371.241 970.825,371.241 " />
<polyline fill="none" vector-effect="none" points="975,366.4 970.825,366.4 " />
<polyline fill="none" vector-effect="none" points="975,334.551 970.825,334.551 " />
<polyline fill="none" vector-effect="none" points="975,315.921 970.825,315.921 " />
<polyline fill="none" vector-effect="none" points="975,302.702 970.825,302.702 " />
<polyline fill="none" vector-effect="none" points="975,292.449 970.825,292.449 " />
<polyline fill="none" vector-effect="none" points="975,284.072 970.825,284.072 " />
<polyline fill="none" vector-effect="none" points="975,276.989 970.825,276.989 " />
<polyline fill="none" vector-effect="none" points="975,270.853 970.825,270.853 " />
<polyline fill="none" vector-effect="none" points="975,265.441 970.825,265.441 " />
<polyline fill="none" vector-effect="none" points="975,260.6 970.825,260.6 " />
<polyline fill="none" vector-effect="none" points="975,228.751 970.825,228.751 " />
<polyline fill="none" vector-effect="none" points="975,210.121 970.825,210.121 " />
<polyline fill="none" vector-effect="none" points="975,196.902 970.825,196.902 " />
<polyline fill="none" vector-effect="none" points="975,186.649 970.825,186.649 " />
<polyline fill="none" vector-effect="none" points="975,178.272 970.825,178.272 " />
<polyline fill="none" vector-effect="none" points="975,171.189 970.825,171.189 " />
<polyline fill="none" vector-effect="none" points="975,165.053 970.825,165.053 " />
<polyline fill="none" vector-effect="none" points="975,159.641 970.825,159.641 " />
<polyline fill="none" vector-effect="none" points="975,154.8 970.825,154.8 " />
<polyline fill="none" vector-effect="none" points="975,122.951 970.825,122.951 " />
<polyline fill="none" vector-effect="none" points="975,104.321 970.825,104.321 " />
<polyline fill="none" vector-effect="none" points="975,91.1021 970.825,91.1021 " />
<polyline fill="none" vector-effect="none" points="975,80.849 970.825,80.849 " />
<polyline fill="none" vector-effect="none" points="975,72.4716 970.825,72.4716 " />
<polyline fill="none" vector-effect="none" points="975,65.3886 970.825,65.3886 " />
<polyline fill="none" vector-effect="none" points="975,59.2531 970.825,59.2531 " />
<polyline fill="none" vector-effect="none" points="975,53.8412 970.825,53.8412 " />
<polyline fill="none" vector-effect="none" points="975,49 970.825,49 " />
</g>

<g fill="#212121" fill-opacity="1" stroke="#212121" stroke-opacity="1" stroke-width="1" stroke-linecap="square" stroke-linejoin="bevel" transform="matrix(0.749537,0,0,0.749463,16.155,415.016)"
font-family="Helvetica" font-size="13" font-weight="400" font-style="normal" 
>
<text fill="#212121" fill-opacity="1" stroke="none" xml:space="preserve" x="0" y="0" font-family="Helvetica" font-size="13" font-weight="400" font-style="normal" 
 >10</text>
</g>

<g fill="#212121" fill-opacity="1" stroke="#212121" stroke-opacity="1" stroke-width="1" stroke-linecap="square" stroke-linejoin="bevel" transform="matrix(0.749537,0,0,0.749463,26.6485,410.52)"
font-family="Helvetica" font-size="10" font-weight="400" font-style="normal" 
>
<text fill="#212121" fill-opacity="1" stroke="none" xml:space="preserve" x="0" y="0" font-family="Helvetica" font-size="10" font-weight="400" font-style="normal" 
 >-11</text>
</g>

<g fill="#212121" fill-opacity="1" stroke="#212121" stroke-opacity="1" stroke-width="1" stroke-linecap="square" stroke-linejoin="bevel" transform="matrix(0.749537,0,0,0.749463,15.4055,335.573)"
font-family="Helvetica" font-size="13" font-weight="400" font-style="normal" 
>
<text fill="#212121" fill-opacity="1" stroke="none" xml:space="preserve" x="0" y="0" font-family="Helvetica" font-size="13" font-weight="400" font-style="normal" 
 >10</text>
</g>

<g fill="#212121" fill-opacity="1" stroke="#212121" stroke-opacity="1" stroke-width="1" stroke-linecap="square" stroke-linejoin="bevel" transform="matrix(0.749537,0,0,0.749463,25.899,331.077)"
font-family="Helvetica" font-size="10" font-weight="400" font-style="normal" 
>
<text fill="#212121" fill-opacity="1" stroke="none" xml:space="preserve" x="0" y="0" font-family="Helvetica" font-size="10" font-weight="400" font-style="normal" 
 >-10</text>
</g>

<g fill="#212121" fill-opacity="1" stroke="#212121" stroke-opacity="1" stroke-width="1" stroke-linecap="square" stroke-linejoin="bevel" transform="matrix(0.749537,0,0,0.749463,19.9027,256.13)"
font-family="Helvetica" font-size="13" font-weight="400" font-style="normal" 
>
<text fill="#212121" fill-opacity="1" stroke="none" xml:space="preserve" x="0" y="0" font-family="Helvetica" font-size="13" font-weight="400" font-style="normal" 
 >10</text>
</g>

<g fill="#212121" fill-opacity="1" stroke="#212121" stroke-opacity="1" stroke-width="1" stroke-linecap="square" stroke-linejoin="bevel" transform="matrix(0.749537,0,0,0.749463,30.3962,251.633)"
font-family="Helvetica" font-size="10" font-weight="400" font-style="normal" 
>
<text fill="#212121" fill-opacity="1" stroke="none" xml:space="preserve" x="0" y="0" font-family="Helvetica" font-size="10" font-weight="400" font-style="normal" 
 >-9</text>
</g>

<g fill="#212121" fill-opacity="1" stroke="#212121" stroke-opacity="1" stroke-width="1" stroke-linecap="square" stroke-linejoin="bevel" transform="matrix(0.749537,0,0,0.749463,19.9027,177.437)"
font-family="Helvetica" font-size="13" font-weight="400" font-style="normal" 
>
<text fill="#212121" fill-opacity="1" stroke="none" xml:space="preserve" x="0" y="0" font-family="Helvetica" font-size="13" font-weight="400" font-style="normal" 
 >10</text>
</g>

<g fill="#212121" fill-opacity="1" stroke="#212121" stroke-opacity="1" stroke-width="1" stroke-linecap="square" stroke-linejoin="bevel" transform="matrix(0.749537,0,0,0.749463,30.3962,172.94)"
font-family="Helvetica" font-size="10" font-weight="400" font-style="normal" 
>
<text fill="#212121" fill-opacity="1" stroke="none" xml:space="preserve" x="0" y="0" font-family="Helvetica" font-size="10" font-weight="400" font-style="normal" 
 >-8</text>
</g>

<g fill="#212121" fill-opacity="1" stroke="#212121" stroke-opacity="1" stroke-width="1" stroke-linecap="square" stroke-linejoin="bevel" transform="matrix(0.749537,0,0,0.749463,19.9027,97.9934)"
font-family="Helvetica" font-size="13" font-weight="400" font-style="normal" 
>
<text fill="#212121" fill-opacity="1" stroke="none" xml:space="preserve" x="0" y="0" font-family="Helvetica" font-size="13" font-weight="400" font-style="normal" 
 >10</text>
</g>

<g fill="#212121" fill-opacity="1" stroke="#212121" stroke-opacity="1" stroke-width="1" stroke-linecap="square" stroke-linejoin="bevel" transform="matrix(0.749537,0,0,0.749463,30.3962,93.4966)"
font-family="Helvetica" font-size="10" font-weight="400" font-style="normal" 
>
<text fill="#212121" fill-opacity="1" stroke="none" xml:space="preserve" x="0" y="0" font-family="Helvetica" font-size="10" font-weight="400" font-style="normal" 
 >-7</text>
</g>

<g fill="#212121" fill-opacity="1" stroke="#212121" stroke-opacity="1" stroke-width="1" stroke-linecap="square" stroke-linejoin="bevel" transform="matrix(0.749537,0,0,0.749463,19.9027,18.5503)"
font-family="Helvetica" font-size="13" font-weight="400" font-style="normal" 
>
<text fill="#212121" fill-opacity="1" stroke="none" xml:space="preserve" x="0" y="0" font-family="Helvetica" font-size="13" font-weight="400" font-style="normal" 
 >10</text>
</g>

<g fill="#212121" fill-opacity="1" stroke="#212121" stroke-opacity="1" stroke-width="1" stroke-linecap="square" stroke-linejoin="bevel" transform="matrix(0.749537,0,0,0.749463,30.3962,14.0535)"
font-family="Helvetica" font-size="10" font-weight="400" font-style="normal" 
>
<text fill="#212121" fill-opacity="1" stroke="none" xml:space="preserve" x="0" y="0" font-family="Helvetica" font-size="10" font-weight="400" font-style="normal" 
 >-6</text>
</g>

<g fill="#212121" fill-opacity="1" stroke="#212121" stroke-opacity="1" stroke-width="1" stroke-linecap="square" stroke-linejoin="bevel" transform="matrix(0,-0.749463,0.749537,0,8.99537,248.636)"
font-family="Helvetica" font-size="14" font-weight="400" font-style="normal" 
>
<text fill="#212121" fill-opacity="1" stroke="none" xml:space="preserve" x="0" y="0" font-family="Helvetica" font-size="14" font-weight="400" font-style="normal" 
 >Delay RMSE [s]</text>
</g>

<g fill="#212121" fill-opacity="1" stroke="#212121" stroke-opacity="1" stroke-width="1" stroke-linecap="square" stroke-linejoin="bevel" transform="matrix(0.749537,0,0,0.749463,339.58,8.99463)"
font-family="Helvetica" font-size="14" font-weight="700" font-style="normal" 
>
<text fill="#212121" fill-opacity="1" stroke="none" xml:space="preserve" x="0" y="0" font-family="Helvetica" font-size="14" font-weight="700" font-style="normal" 
 >OTFS</text>
</g>

<g fill="none" stroke="#f57729" stroke-opacity="1" stroke-width="2.66667" stroke-linecap="butt" stroke-linejoin="round" transform="matrix(0.749537,0,0,0.749463,-64.0455,-23.4197)"
font-family="Helvetica" font-size="14" font-weight="700" font-style="normal" 
>
<polyline fill="none" vector-effect="none" points="140,71.1465 163.857,72.5875 187.714,70.6676 211.571,72.251 235.429,72.5951 259.286,72.0771 283.143,65.7621 307,70.2976 330.857,68.2058 354.714,73.7003 378.571,73.9134 402.429,76.368 426.286,77.8338 450.143,89.4327 474,99.3745 497.857,120.863 521.714,244.875 545.571,319.564 569.429,328.791 593.286,343.396 617.143,346.864 641,365.244 664.857,373.14 688.714,386.221 712.571,384.85 736.429,403.76 760.286,404.804 784.143,417.871 808,413.67 831.857,416.521 855.714,419.279 879.571,418.814 903.429,416.314 927.286,416.777 951.143,413.051 975,421.219 " />
</g>

<g fill="none" stroke="#f57729" stroke-opacity="1" stroke-dasharray="8,8" stroke-dashoffset="0" stroke-width="2.66667" stroke-linecap="butt" stroke-linejoin="round" transform="matrix(0.749537,0,0,0.749463,-64.0455,-23.4197)"
font-family="Helvetica" font-size="14" font-weight="700" font-style="normal" 
>
<polyline fill="none" vector-effect="none" points="140,141.83 163.857,152.41 187.714,162.99 211.571,173.57 235.429,184.15 259.286,194.73 283.143,205.31 307,215.89 330.857,226.47 354.714,237.05 378.571,247.63 402.429,258.21 426.286,268.79 450.143,279.37 474,289.95 497.857,300.53 521.714,311.11 545.571,321.69 569.429,332.27 593.286,342.85 617.143,353.43 641,364.01 664.857,374.59 688.714,385.17 712.571,395.75 736.429,406.33 760.286,416.91 784.143,427.49 808,438.07 831.857,448.65 855.714,459.23 879.571,469.81 903.429,480.39 927.286,490.97 951.143,501.55 975,512.13 " />
</g>

<g fill="none" stroke="#ffe864" stroke-opacity="1" stroke-width="2.66667" stroke-linecap="butt" stroke-linejoin="round" transform="matrix(0.749537,0,0,0.749463,-64.0455,-23.4197)"
font-family="Helvetica" font-size="14" font-weight="700" font-style="normal" 
>
<polyline fill="none" vector-effect="none" points="140,68.5277 163.857,71.3741 187.714,70.2011 211.571,75.5128 235.429,70.9739 259.286,79.9854 283.143,76.5451 307,89.1221 330.857,84.3865 354.714,99.2541 378.571,118.25 402.429,131.045 426.286,217.452 450.143,326.946 474,337.185 497.857,347.529 521.714,351.886 545.571,365.62 569.429,376.604 593.286,388.003 617.143,409.628 641,407.643 664.857,429.882 688.714,433.853 712.571,444.766 736.429,459.24 760.286,466.323 784.143,478.187 808,484.84 831.857,502.003 855.714,504.31 879.571,514.413 903.429,528.308 927.286,542.533 951.143,556.282 975,553.464 " />
</g>

<g fill="none" stroke="#ffe864" stroke-opacity="1" stroke-dasharray="8,8" stroke-dashoffset="0" stroke-width="2.66667" stroke-linecap="butt" stroke-linejoin="round" transform="matrix(0.749537,0,0,0.749463,-64.0455,-23.4197)"
font-family="Helvetica" font-size="14" font-weight="700" font-style="normal" 
>
<polyline fill="none" vector-effect="none" points="140,189.414 163.857,199.973 187.714,210.535 211.571,221.172 235.429,231.738 259.286,242.304 283.143,252.934 307,263.403 330.857,274.065 354.714,284.589 378.571,295.233 402.429,305.718 426.286,316.371 450.143,326.93 474,337.481 497.857,348.067 521.714,358.629 545.571,369.276 569.429,379.819 593.286,390.462 617.143,401.038 641,411.587 664.857,422.218 688.714,432.731 712.571,443.381 736.429,453.913 760.286,464.486 784.143,475.1 808,485.622 831.857,496.304 855.714,506.783 879.571,517.344 903.429,527.979 927.286,538.525 951.143,549.153 975,559.725 " />
</g>

<g fill="#ffffff" fill-opacity="1" stroke="none" transform="matrix(7.49537e-05,0,0,7.49463e-05,-64.0455,-23.4197)"
font-family="Helvetica" font-size="14" font-weight="700" font-style="normal" 
>
<path vector-effect="none" fill-rule="evenodd" d="M8.32e+06,600000 L8.32e+06,1.21e+06 L9.64e+06,1.21e+06 L9.64e+06,600000 L8.32e+06,600000"/>
</g>

<g fill="#f57729" fill-opacity="1" stroke="#f57729" stroke-opacity="1" stroke-width="2.66667" stroke-linecap="butt" stroke-linejoin="round" transform="matrix(0.749537,0,0,0.749463,-64.0455,-23.4197)"
font-family="Helvetica" font-size="14" font-weight="700" font-style="normal" 
>
<polyline fill="none" vector-effect="none" points="836,68.9268 876,68.9268 " />
</g>

<g fill="#f57729" fill-opacity="1" stroke="#f57729" stroke-opacity="1" stroke-dasharray="8,8" stroke-dashoffset="0" stroke-width="2.66667" stroke-linecap="butt" stroke-linejoin="round" transform="matrix(0.749537,0,0,0.749463,-64.0455,-23.4197)"
font-family="Helvetica" font-size="14" font-weight="700" font-style="normal" 
>
<polyline fill="none" vector-effect="none" points="836,83.3089 876,83.3089 " />
</g>

<g fill="#ffe864" fill-opacity="1" stroke="#ffe864" stroke-opacity="1" stroke-width="2.66667" stroke-linecap="butt" stroke-linejoin="round" transform="matrix(0.749537,0,0,0.749463,-64.0455,-23.4197)"
font-family="Helvetica" font-size="14" font-weight="700" font-style="normal" 
>
<polyline fill="none" vector-effect="none" points="836,97.6911 876,97.6911 " />
</g>

<g fill="#ffe864" fill-opacity="1" stroke="#ffe864" stroke-opacity="1" stroke-dasharray="8,8" stroke-dashoffset="0" stroke-width="2.66667" stroke-linecap="butt" stroke-linejoin="round" transform="matrix(0.749537,0,0,0.749463,-64.0455,-23.4197)"
font-family="Helvetica" font-size="14" font-weight="700" font-style="normal" 
>
<polyline fill="none" vector-effect="none" points="836,112.073 876,112.073 " />
</g>

<g fill="#212121" fill-opacity="1" stroke="#212121" stroke-opacity="1" stroke-width="1" stroke-linecap="square" stroke-linejoin="bevel" transform="matrix(0.749537,0,0,0.749463,594.798,31.2363)"
font-family="Helvetica" font-size="12" font-weight="400" font-style="normal" 
>
<text fill="#212121" fill-opacity="1" stroke="none" xml:space="preserve" x="0" y="0" font-family="Helvetica" font-size="12" font-weight="400" font-style="normal" 
 >Pilot Only MLE</text>
</g>

<g fill="#212121" fill-opacity="1" stroke="#212121" stroke-opacity="1" stroke-width="1" stroke-linecap="square" stroke-linejoin="bevel" transform="matrix(0.749537,0,0,0.749463,594.798,42.0152)"
font-family="Helvetica" font-size="12" font-weight="400" font-style="normal" 
>
<text fill="#212121" fill-opacity="1" stroke="none" xml:space="preserve" x="0" y="0" font-family="Helvetica" font-size="12" font-weight="400" font-style="normal" 
 >Pilot Only CRB</text>
</g>

<g fill="#212121" fill-opacity="1" stroke="#212121" stroke-opacity="1" stroke-width="1" stroke-linecap="square" stroke-linejoin="bevel" transform="matrix(0.749537,0,0,0.749463,594.798,52.7941)"
font-family="Helvetica" font-size="12" font-weight="400" font-style="normal" 
>
<text fill="#212121" fill-opacity="1" stroke="none" xml:space="preserve" x="0" y="0" font-family="Helvetica" font-size="12" font-weight="400" font-style="normal" 
 >Full Data MLE</text>
</g>

<g fill="#212121" fill-opacity="1" stroke="#212121" stroke-opacity="1" stroke-width="1" stroke-linecap="square" stroke-linejoin="bevel" transform="matrix(0.749537,0,0,0.749463,594.798,63.5729)"
font-family="Helvetica" font-size="12" font-weight="400" font-style="normal" 
>
<text fill="#212121" fill-opacity="1" stroke="none" xml:space="preserve" x="0" y="0" font-family="Helvetica" font-size="12" font-weight="400" font-style="normal" 
 >Full Data CRB</text>
</g>

<g fill="none" stroke="#212121" stroke-opacity="1" stroke-width="0.666667" stroke-linecap="butt" stroke-linejoin="miter" stroke-miterlimit="2" transform="matrix(0.749537,0,0,0.749463,-64.0455,-23.4197)"
font-family="Helvetica" font-size="12" font-weight="400" font-style="normal" 
>
<path vector-effect="none" fill-rule="evenodd" d="M832,121 L832,60 L964,60 L964,121 L832,121"/>
</g>
</g>
</svg>
