<?xml version="1.0" encoding="UTF-8" standalone="no"?>
<svg width="237.772mm" height="155.222mm"
 viewBox="0 0 674 440"
 xmlns="http://www.w3.org/2000/svg" xmlns:xlink="http://www.w3.org/1999/xlink"  version="1.2" baseProfile="tiny">
<title>Qt SVG Document</title>
<desc>MATLAB, The MathWorks, Inc. Version 25.2.0.3055257 R2025b Update 2</desc>
<defs>
</defs>
<g fill="none" stroke="black" stroke-width="1" fill-rule="evenodd" stroke-linecap="square" stroke-linejoin="bevel" >

<g fill="#ffffff" fill-opacity="1" stroke="none" transform="matrix(0.749537,0,0,0.749463,-64.0455,-23.4197)"
font-family="MS Shell Dlg 2" font-size="8.25" font-weight="400" font-style="normal" 
>
<path vector-effect="none" fill-rule="evenodd" d="M84,30 L984,30 L984,618 L84,618 L84,30"/>
</g>

<g fill="#ffffff" fill-opacity="1" stroke="none" transform="matrix(7.49537e-05,0,0,7.49463e-05,-64.0455,-23.4197)"
font-family="MS Shell Dlg 2" font-size="8.25" font-weight="400" font-style="normal" 
>
<path vector-effect="none" fill-rule="evenodd" d="M1.4e+06,490000 L1.4e+06,5.78e+06 L9.75e+06,5.78e+06 L9.75e+06,490000 L1.4e+06,490000"/>
</g>

<g fill="#212121" fill-opacity="0.14902" stroke="#212121" stroke-opacity="0.14902" stroke-width="0.666667" stroke-linecap="butt" stroke-linejoin="round" transform="matrix(0.749537,0,0,0.749463,-64.0455,-23.4197)"
font-family="MS Shell Dlg 2" font-size="8.25" font-weight="400" font-style="normal" 
>
<polyline fill="none" vector-effect="none" points="140,578 140,49 " />
<polyline fill="none" vector-effect="none" points="279.167,578 279.167,49 " />
<polyline fill="none" vector-effect="none" points="418.333,578 418.333,49 " />
<polyline fill="none" vector-effect="none" points="557.5,578 557.5,49 " />
<polyline fill="none" vector-effect="none" points="696.667,578 696.667,49 " />
<polyline fill="none" vector-effect="none" points="835.833,578 835.833,49 " />
<polyline fill="none" vector-effect="none" points="975,578 975,49 " />
</g>

<g fill="#212121" fill-opacity="0.14902" stroke="#212121" stroke-opacity="0.14902" stroke-dasharray="1,3" stroke-dashoffset="0" stroke-width="0.666667" stroke-linecap="butt" stroke-linejoin="round" transform="matrix(0.749537,0,0,0.749463,-64.0455,-23.4197)"
font-family="MS Shell Dlg 2" font-size="8.25" font-weight="400" font-style="normal" 
>
<polyline fill="none" vector-effect="none" points="975,546.151 140,546.151 " />
<polyline fill="none" vector-effect="none" points="975,527.521 140,527.521 " />
<polyline fill="none" vector-effect="none" points="975,514.302 140,514.302 " />
<polyline fill="none" vector-effect="none" points="975,504.049 140,504.049 " />
<polyline fill="none" vector-effect="none" points="975,495.672 140,495.672 " />
<polyline fill="none" vector-effect="none" points="975,488.589 140,488.589 " />
<polyline fill="none" vector-effect="none" points="975,482.453 140,482.453 " />
<polyline fill="none" vector-effect="none" points="975,477.041 140,477.041 " />
<polyline fill="none" vector-effect="none" points="975,440.351 140,440.351 " />
<polyline fill="none" vector-effect="none" points="975,421.721 140,421.721 " />
<polyline fill="none" vector-effect="none" points="975,408.502 140,408.502 " />
<polyline fill="none" vector-effect="none" points="975,398.249 140,398.249 " />
<polyline fill="none" vector-effect="none" points="975,389.872 140,389.872 " />
<polyline fill="none" vector-effect="none" points="975,382.789 140,382.789 " />
<polyline fill="none" vector-effect="none" points="975,376.653 140,376.653 " />
<polyline fill="none" vector-effect="none" points="975,371.241 140,371.241 " />
<polyline fill="none" vector-effect="none" points="975,334.551 140,334.551 " />
<polyline fill="none" vector-effect="none" points="975,315.921 140,315.921 " />
<polyline fill="none" vector-effect="none" points="975,302.702 140,302.702 " />
<polyline fill="none" vector-effect="none" points="975,292.449 140,292.449 " />
<polyline fill="none" vector-effect="none" points="975,284.072 140,284.072 " />
<polyline fill="none" vector-effect="none" points="975,276.989 140,276.989 " />
<polyline fill="none" vector-effect="none" points="975,270.853 140,270.853 " />
<polyline fill="none" vector-effect="none" points="975,265.441 140,265.441 " />
<polyline fill="none" vector-effect="none" points="975,228.751 140,228.751 " />
<polyline fill="none" vector-effect="none" points="975,210.121 140,210.121 " />
<polyline fill="none" vector-effect="none" points="975,196.902 140,196.902 " />
<polyline fill="none" vector-effect="none" points="975,186.649 140,186.649 " />
<polyline fill="none" vector-effect="none" points="975,178.272 140,178.272 " />
<polyline fill="none" vector-effect="none" points="975,171.189 140,171.189 " />
<polyline fill="none" vector-effect="none" points="975,165.053 140,165.053 " />
<polyline fill="none" vector-effect="none" points="975,159.641 140,159.641 " />
<polyline fill="none" vector-effect="none" points="975,122.951 140,122.951 " />
<polyline fill="none" vector-effect="none" points="975,104.321 140,104.321 " />
<polyline fill="none" vector-effect="none" points="975,91.1021 140,91.1021 " />
<polyline fill="none" vector-effect="none" points="975,80.849 140,80.849 " />
<polyline fill="none" vector-effect="none" points="975,72.4716 140,72.4716 " />
<polyline fill="none" vector-effect="none" points="975,65.3886 140,65.3886 " />
<polyline fill="none" vector-effect="none" points="975,59.2531 140,59.2531 " />
<polyline fill="none" vector-effect="none" points="975,53.8412 140,53.8412 " />
</g>

<g fill="#212121" fill-opacity="0.14902" stroke="#212121" stroke-opacity="0.14902" stroke-width="0.666667" stroke-linecap="butt" stroke-linejoin="round" transform="matrix(0.749537,0,0,0.749463,-64.0455,-23.4197)"
font-family="MS Shell Dlg 2" font-size="8.25" font-weight="400" font-style="normal" 
>
<polyline fill="none" vector-effect="none" points="975,578 140,578 " />
<polyline fill="none" vector-effect="none" points="975,472.2 140,472.2 " />
<polyline fill="none" vector-effect="none" points="975,366.4 140,366.4 " />
<polyline fill="none" vector-effect="none" points="975,260.6 140,260.6 " />
<polyline fill="none" vector-effect="none" points="975,154.8 140,154.8 " />
<polyline fill="none" vector-effect="none" points="975,49 140,49 " />
</g>

<g fill="#212121" fill-opacity="1" stroke="#212121" stroke-opacity="1" stroke-width="0.666667" stroke-linecap="square" stroke-linejoin="round" transform="matrix(0.749537,0,0,0.749463,-64.0455,-23.4197)"
font-family="MS Shell Dlg 2" font-size="8.25" font-weight="400" font-style="normal" 
>
<polyline fill="none" vector-effect="none" points="140,578 975,578 " />
<polyline fill="none" vector-effect="none" points="140,49 975,49 " />
<polyline fill="none" vector-effect="none" points="140,578 140,569.65 " />
<polyline fill="none" vector-effect="none" points="279.167,578 279.167,569.65 " />
<polyline fill="none" vector-effect="none" points="418.333,578 418.333,569.65 " />
<polyline fill="none" vector-effect="none" points="557.5,578 557.5,569.65 " />
<polyline fill="none" vector-effect="none" points="696.667,578 696.667,569.65 " />
<polyline fill="none" vector-effect="none" points="835.833,578 835.833,569.65 " />
<polyline fill="none" vector-effect="none" points="975,578 975,569.65 " />
<polyline fill="none" vector-effect="none" points="140,49 140,57.35 " />
<polyline fill="none" vector-effect="none" points="279.167,49 279.167,57.35 " />
<polyline fill="none" vector-effect="none" points="418.333,49 418.333,57.35 " />
<polyline fill="none" vector-effect="none" points="557.5,49 557.5,57.35 " />
<polyline fill="none" vector-effect="none" points="696.667,49 696.667,57.35 " />
<polyline fill="none" vector-effect="none" points="835.833,49 835.833,57.35 " />
<polyline fill="none" vector-effect="none" points="975,49 975,57.35 " />
</g>

<g fill="#212121" fill-opacity="1" stroke="#212121" stroke-opacity="1" stroke-width="1" stroke-linecap="square" stroke-linejoin="bevel" transform="matrix(0.749537,0,0,0.749463,34.1439,422.761)"
font-family="Helvetica" font-size="13" font-weight="400" font-style="normal" 
>
<text fill="#212121" fill-opacity="1" stroke="none" xml:space="preserve" x="0" y="0" font-family="Helvetica" font-size="13" font-weight="400" font-style="normal" 
 >-30</text>
</g>

<g fill="#212121" fill-opacity="1" stroke="#212121" stroke-opacity="1" stroke-width="1" stroke-linecap="square" stroke-linejoin="bevel" transform="matrix(0.749537,0,0,0.749463,138.454,422.761)"
font-family="Helvetica" font-size="13" font-weight="400" font-style="normal" 
>
<text fill="#212121" fill-opacity="1" stroke="none" xml:space="preserve" x="0" y="0" font-family="Helvetica" font-size="13" font-weight="400" font-style="normal" 
 >-20</text>
</g>

<g fill="#212121" fill-opacity="1" stroke="#212121" stroke-opacity="1" stroke-width="1" stroke-linecap="square" stroke-linejoin="bevel" transform="matrix(0.749537,0,0,0.749463,242.765,422.761)"
font-family="Helvetica" font-size="13" font-weight="400" font-style="normal" 
>
<text fill="#212121" fill-opacity="1" stroke="none" xml:space="preserve" x="0" y="0" font-family="Helvetica" font-size="13" font-weight="400" font-style="normal" 
 >-10</text>
</g>

<g fill="#212121" fill-opacity="1" stroke="#212121" stroke-opacity="1" stroke-width="1" stroke-linecap="square" stroke-linejoin="bevel" transform="matrix(0.749537,0,0,0.749463,351.198,422.761)"
font-family="Helvetica" font-size="13" font-weight="400" font-style="normal" 
>
<text fill="#212121" fill-opacity="1" stroke="none" xml:space="preserve" x="0" y="0" font-family="Helvetica" font-size="13" font-weight="400" font-style="normal" 
 >0</text>
</g>

<g fill="#212121" fill-opacity="1" stroke="#212121" stroke-opacity="1" stroke-width="1" stroke-linecap="square" stroke-linejoin="bevel" transform="matrix(0.749537,0,0,0.749463,452.885,422.761)"
font-family="Helvetica" font-size="13" font-weight="400" font-style="normal" 
>
<text fill="#212121" fill-opacity="1" stroke="none" xml:space="preserve" x="0" y="0" font-family="Helvetica" font-size="13" font-weight="400" font-style="normal" 
 >10</text>
</g>

<g fill="#212121" fill-opacity="1" stroke="#212121" stroke-opacity="1" stroke-width="1" stroke-linecap="square" stroke-linejoin="bevel" transform="matrix(0.749537,0,0,0.749463,557.196,422.761)"
font-family="Helvetica" font-size="13" font-weight="400" font-style="normal" 
>
<text fill="#212121" fill-opacity="1" stroke="none" xml:space="preserve" x="0" y="0" font-family="Helvetica" font-size="13" font-weight="400" font-style="normal" 
 >20</text>
</g>

<g fill="#212121" fill-opacity="1" stroke="#212121" stroke-opacity="1" stroke-width="1" stroke-linecap="square" stroke-linejoin="bevel" transform="matrix(0.749537,0,0,0.749463,661.506,422.761)"
font-family="Helvetica" font-size="13" font-weight="400" font-style="normal" 
>
<text fill="#212121" fill-opacity="1" stroke="none" xml:space="preserve" x="0" y="0" font-family="Helvetica" font-size="13" font-weight="400" font-style="normal" 
 >30</text>
</g>

<g fill="#212121" fill-opacity="1" stroke="#212121" stroke-opacity="1" stroke-width="1" stroke-linecap="square" stroke-linejoin="bevel" transform="matrix(0.749537,0,0,0.749463,332.085,435.752)"
font-family="Helvetica" font-size="14" font-weight="400" font-style="normal" 
>
<text fill="#212121" fill-opacity="1" stroke="none" xml:space="preserve" x="0" y="0" font-family="Helvetica" font-size="14" font-weight="400" font-style="normal" 
 >SNR [dB]</text>
</g>

<g fill="#212121" fill-opacity="1" stroke="#212121" stroke-opacity="1" stroke-width="0.666667" stroke-linecap="square" stroke-linejoin="round" transform="matrix(0.749537,0,0,0.749463,-64.0455,-23.4197)"
font-family="Helvetica" font-size="14" font-weight="400" font-style="normal" 
>
<polyline fill="none" vector-effect="none" points="140,578 140,49 " />
<polyline fill="none" vector-effect="none" points="975,578 975,49 " />
<polyline fill="none" vector-effect="none" points="140,578 148.35,578 " />
<polyline fill="none" vector-effect="none" points="140,472.2 148.35,472.2 " />
<polyline fill="none" vector-effect="none" points="140,366.4 148.35,366.4 " />
<polyline fill="none" vector-effect="none" points="140,260.6 148.35,260.6 " />
<polyline fill="none" vector-effect="none" points="140,154.8 148.35,154.8 " />
<polyline fill="none" vector-effect="none" points="140,49 148.35,49 " />
<polyline fill="none" vector-effect="none" points="975,578 966.65,578 " />
<polyline fill="none" vector-effect="none" points="975,472.2 966.65,472.2 " />
<polyline fill="none" vector-effect="none" points="975,366.4 966.65,366.4 " />
<polyline fill="none" vector-effect="none" points="975,260.6 966.65,260.6 " />
<polyline fill="none" vector-effect="none" points="975,154.8 966.65,154.8 " />
<polyline fill="none" vector-effect="none" points="975,49 966.65,49 " />
<polyline fill="none" vector-effect="none" points="140,578 144.175,578 " />
<polyline fill="none" vector-effect="none" points="140,546.151 144.175,546.151 " />
<polyline fill="none" vector-effect="none" points="140,527.521 144.175,527.521 " />
<polyline fill="none" vector-effect="none" points="140,514.302 144.175,514.302 " />
<polyline fill="none" vector-effect="none" points="140,504.049 144.175,504.049 " />
<polyline fill="none" vector-effect="none" points="140,495.672 144.175,495.672 " />
<polyline fill="none" vector-effect="none" points="140,488.589 144.175,488.589 " />
<polyline fill="none" vector-effect="none" points="140,482.453 144.175,482.453 " />
<polyline fill="none" vector-effect="none" points="140,477.041 144.175,477.041 " />
<polyline fill="none" vector-effect="none" points="140,472.2 144.175,472.2 " />
<polyline fill="none" vector-effect="none" points="140,440.351 144.175,440.351 " />
<polyline fill="none" vector-effect="none" points="140,421.721 144.175,421.721 " />
<polyline fill="none" vector-effect="none" points="140,408.502 144.175,408.502 " />
<polyline fill="none" vector-effect="none" points="140,398.249 144.175,398.249 " />
<polyline fill="none" vector-effect="none" points="140,389.872 144.175,389.872 " />
<polyline fill="none" vector-effect="none" points="140,382.789 144.175,382.789 " />
<polyline fill="none" vector-effect="none" points="140,376.653 144.175,376.653 " />
<polyline fill="none" vector-effect="none" points="140,371.241 144.175,371.241 " />
<polyline fill="none" vector-effect="none" points="140,366.4 144.175,366.4 " />
<polyline fill="none" vector-effect="none" points="140,334.551 144.175,334.551 " />
<polyline fill="none" vector-effect="none" points="140,315.921 144.175,315.921 " />
<polyline fill="none" vector-effect="none" points="140,302.702 144.175,302.702 " />
<polyline fill="none" vector-effect="none" points="140,292.449 144.175,292.449 " />
<polyline fill="none" vector-effect="none" points="140,284.072 144.175,284.072 " />
<polyline fill="none" vector-effect="none" points="140,276.989 144.175,276.989 " />
<polyline fill="none" vector-effect="none" points="140,270.853 144.175,270.853 " />
<polyline fill="none" vector-effect="none" points="140,265.441 144.175,265.441 " />
<polyline fill="none" vector-effect="none" points="140,260.6 144.175,260.6 " />
<polyline fill="none" vector-effect="none" points="140,228.751 144.175,228.751 " />
<polyline fill="none" vector-effect="none" points="140,210.121 144.175,210.121 " />
<polyline fill="none" vector-effect="none" points="140,196.902 144.175,196.902 " />
<polyline fill="none" vector-effect="none" points="140,186.649 144.175,186.649 " />
<polyline fill="none" vector-effect="none" points="140,178.272 144.175,178.272 " />
<polyline fill="none" vector-effect="none" points="140,171.189 144.175,171.189 " />
<polyline fill="none" vector-effect="none" points="140,165.053 144.175,165.053 " />
<polyline fill="none" vector-effect="none" points="140,159.641 144.175,159.641 " />
<polyline fill="none" vector-effect="none" points="140,154.8 144.175,154.8 " />
<polyline fill="none" vector-effect="none" points="140,122.951 144.175,122.951 " />
<polyline fill="none" vector-effect="none" points="140,104.321 144.175,104.321 " />
<polyline fill="none" vector-effect="none" points="140,91.1021 144.175,91.1021 " />
<polyline fill="none" vector-effect="none" points="140,80.849 144.175,80.849 " />
<polyline fill="none" vector-effect="none" points="140,72.4716 144.175,72.4716 " />
<polyline fill="none" vector-effect="none" points="140,65.3886 144.175,65.3886 " />
<polyline fill="none" vector-effect="none" points="140,59.2531 144.175,59.2531 " />
<polyline fill="none" vector-effect="none" points="140,53.8412 144.175,53.8412 " />
<polyline fill="none" vector-effect="none" points="140,49 144.175,49 " />
<polyline fill="none" vector-effect="none" points="975,578 970.825,578 " />
<polyline fill="none" vector-effect="none" points="975,546.151 970.825,546.151 " />
<polyline fill="none" vector-effect="none" points="975,527.521 970.825,527.521 " />
<polyline fill="none" vector-effect="none" points="975,514.302 970.825,514.302 " />
<polyline fill="none" vector-effect="none" points="975,504.049 970.825,504.049 " />
<polyline fill="none" vector-effect="none" points="975,495.672 970.825,495.672 " />
<polyline fill="none" vector-effect="none" points="975,488.589 970.825,488.589 " />
<polyline fill="none" vector-effect="none" points="975,482.453 970.825,482.453 " />
<polyline fill="none" vector-effect="none" points="975,477.041 970.825,477.041 " />
<polyline fill="none" vector-effect="none" points="975,472.2 970.825,472.2 " />
<polyline fill="none" vector-effect="none" points="975,440.351 970.825,440.351 " />
<polyline fill="none" vector-effect="none" points="975,421.721 970.825,421.721 " />
<polyline fill="none" vector-effect="none" points="975,408.502 970.825,408.502 " />
<polyline fill="none" vector-effect="none" points="975,398.249 970.825,398.249 " />
<polyline fill="none" vector-effect="none" points="975,389.872 970.825,389.872 " />
<polyline fill="none" vector-effect="none" points="975,382.789 970.825,382.789 " />
<polyline fill="none" vector-effect="none" points="975,376.653 970.825,376.653 " />
<polyline fill="none" vector-effect="none" points="975,371.241 970.825,371.241 " />
<polyline fill="none" vector-effect="none" points="975,366.4 970.825,366.4 " />
<polyline fill="none" vector-effect="none" points="975,334.551 970.825,334.551 " />
<polyline fill="none" vector-effect="none" points="975,315.921 970.825,315.921 " />
<polyline fill="none" vector-effect="none" points="975,302.702 970.825,302.702 " />
<polyline fill="none" vector-effect="none" points="975,292.449 970.825,292.449 " />
<polyline fill="none" vector-effect="none" points="975,284.072 970.825,284.072 " />
<polyline fill="none" vector-effect="none" points="975,276.989 970.825,276.989 " />
<polyline fill="none" vector-effect="none" points="975,270.853 970.825,270.853 " />
<polyline fill="none" vector-effect="none" points="975,265.441 970.825,265.441 " />
<polyline fill="none" vector-effect="none" points="975,260.6 970.825,260.6 " />
<polyline fill="none" vector-effect="none" points="975,228.751 970.825,228.751 " />
<polyline fill="none" vector-effect="none" points="975,210.121 970.825,210.121 " />
<polyline fill="none" vector-effect="none" points="975,196.902 970.825,196.902 " />
<polyline fill="none" vector-effect="none" points="975,186.649 970.825,186.649 " />
<polyline fill="none" vector-effect="none" points="975,178.272 970.825,178.272 " />
<polyline fill="none" vector-effect="none" points="975,171.189 970.825,171.189 " />
<polyline fill="none" vector-effect="none" points="975,165.053 970.825,165.053 " />
<polyline fill="none" vector-effect="none" points="975,159.641 970.825,159.641 " />
<polyline fill="none" vector-effect="none" points="975,154.8 970.825,154.8 " />
<polyline fill="none" vector-effect="none" points="975,122.951 970.825,122.951 " />
<polyline fill="none" vector-effect="none" points="975,104.321 970.825,104.321 " />
<polyline fill="none" vector-effect="none" points="975,91.1021 970.825,91.1021 " />
<polyline fill="none" vector-effect="none" points="975,80.849 970.825,80.849 " />
<polyline fill="none" vector-effect="none" points="975,72.4716 970.825,72.4716 " />
<polyline fill="none" vector-effect="none" points="975,65.3886 970.825,65.3886 " />
<polyline fill="none" vector-effect="none" points="975,59.2531 970.825,59.2531 " />
<polyline fill="none" vector-effect="none" points="975,53.8412 970.825,53.8412 " />
<polyline fill="none" vector-effect="none" points="975,49 970.825,49 " />
</g>

<g fill="#212121" fill-opacity="1" stroke="#212121" stroke-opacity="1" stroke-width="1" stroke-linecap="square" stroke-linejoin="bevel" transform="matrix(0.749537,0,0,0.749463,16.155,415.016)"
font-family="Helvetica" font-size="13" font-weight="400" font-style="normal" 
>
<text fill="#212121" fill-opacity="1" stroke="none" xml:space="preserve" x="0" y="0" font-family="Helvetica" font-size="13" font-weight="400" font-style="normal" 
 >10</text>
</g>

<g fill="#212121" fill-opacity="1" stroke="#212121" stroke-opacity="1" stroke-width="1" stroke-linecap="square" stroke-linejoin="bevel" transform="matrix(0.749537,0,0,0.749463,26.6485,410.52)"
font-family="Helvetica" font-size="10" font-weight="400" font-style="normal" 
>
<text fill="#212121" fill-opacity="1" stroke="none" xml:space="preserve" x="0" y="0" font-family="Helvetica" font-size="10" font-weight="400" font-style="normal" 
 >-11</text>
</g>

<g fill="#212121" fill-opacity="1" stroke="#212121" stroke-opacity="1" stroke-width="1" stroke-linecap="square" stroke-linejoin="bevel" transform="matrix(0.749537,0,0,0.749463,15.4055,335.573)"
font-family="Helvetica" font-size="13" font-weight="400" font-style="normal" 
>
<text fill="#212121" fill-opacity="1" stroke="none" xml:space="preserve" x="0" y="0" font-family="Helvetica" font-size="13" font-weight="400" font-style="normal" 
 >10</text>
</g>

<g fill="#212121" fill-opacity="1" stroke="#212121" stroke-opacity="1" stroke-width="1" stroke-linecap="square" stroke-linejoin="bevel" transform="matrix(0.749537,0,0,0.749463,25.899,331.077)"
font-family="Helvetica" font-size="10" font-weight="400" font-style="normal" 
>
<text fill="#212121" fill-opacity="1" stroke="none" xml:space="preserve" x="0" y="0" font-family="Helvetica" font-size="10" font-weight="400" font-style="normal" 
 >-10</text>
</g>

<g fill="#212121" fill-opacity="1" stroke="#212121" stroke-opacity="1" stroke-width="1" stroke-linecap="square" stroke-linejoin="bevel" transform="matrix(0.749537,0,0,0.749463,19.9027,256.13)"
font-family="Helvetica" font-size="13" font-weight="400" font-style="normal" 
>
<text fill="#212121" fill-opacity="1" stroke="none" xml:space="preserve" x="0" y="0" font-family="Helvetica" font-size="13" font-weight="400" font-style="normal" 
 >10</text>
</g>

<g fill="#212121" fill-opacity="1" stroke="#212121" stroke-opacity="1" stroke-width="1" stroke-linecap="square" stroke-linejoin="bevel" transform="matrix(0.749537,0,0,0.749463,30.3962,251.633)"
font-family="Helvetica" font-size="10" font-weight="400" font-style="normal" 
>
<text fill="#212121" fill-opacity="1" stroke="none" xml:space="preserve" x="0" y="0" font-family="Helvetica" font-size="10" font-weight="400" font-style="normal" 
 >-9</text>
</g>

<g fill="#212121" fill-opacity="1" stroke="#212121" stroke-opacity="1" stroke-width="1" stroke-linecap="square" stroke-linejoin="bevel" transform="matrix(0.749537,0,0,0.749463,19.9027,177.437)"
font-family="Helvetica" font-size="13" font-weight="400" font-style="normal" 
>
<text fill="#212121" fill-opacity="1" stroke="none" xml:space="preserve" x="0" y="0" font-family="Helvetica" font-size="13" font-weight="400" font-style="normal" 
 >10</text>
</g>

<g fill="#212121" fill-opacity="1" stroke="#212121" stroke-opacity="1" stroke-width="1" stroke-linecap="square" stroke-linejoin="bevel" transform="matrix(0.749537,0,0,0.749463,30.3962,172.94)"
font-family="Helvetica" font-size="10" font-weight="400" font-style="normal" 
>
<text fill="#212121" fill-opacity="1" stroke="none" xml:space="preserve" x="0" y="0" font-family="Helvetica" font-size="10" font-weight="400" font-style="normal" 
 >-8</text>
</g>

<g fill="#212121" fill-opacity="1" stroke="#212121" stroke-opacity="1" stroke-width="1" stroke-linecap="square" stroke-linejoin="bevel" transform="matrix(0.749537,0,0,0.749463,19.9027,97.9934)"
font-family="Helvetica" font-size="13" font-weight="400" font-style="normal" 
>
<text fill="#212121" fill-opacity="1" stroke="none" xml:space="preserve" x="0" y="0" font-family="Helvetica" font-size="13" font-weight="400" font-style="normal" 
 >10</text>
</g>

<g fill="#212121" fill-opacity="1" stroke="#212121" stroke-opacity="1" stroke-width="1" stroke-linecap="square" stroke-linejoin="bevel" transform="matrix(0.749537,0,0,0.749463,30.3962,93.4966)"
font-family="Helvetica" font-size="10" font-weight="400" font-style="normal" 
>
<text fill="#212121" fill-opacity="1" stroke="none" xml:space="preserve" x="0" y="0" font-family="Helvetica" font-size="10" font-weight="400" font-style="normal" 
 >-7</text>
</g>

<g fill="#212121" fill-opacity="1" stroke="#212121" stroke-opacity="1" stroke-width="1" stroke-linecap="square" stroke-linejoin="bevel" transform="matrix(0.749537,0,0,0.749463,19.9027,18.5503)"
font-family="Helvetica" font-size="13" font-weight="400" font-style="normal" 
>
<text fill="#212121" fill-opacity="1" stroke="none" xml:space="preserve" x="0" y="0" font-family="Helvetica" font-size="13" font-weight="400" font-style="normal" 
 >10</text>
</g>

<g fill="#212121" fill-opacity="1" stroke="#212121" stroke-opacity="1" stroke-width="1" stroke-linecap="square" stroke-linejoin="bevel" transform="matrix(0.749537,0,0,0.749463,30.3962,14.0535)"
font-family="Helvetica" font-size="10" font-weight="400" font-style="normal" 
>
<text fill="#212121" fill-opacity="1" stroke="none" xml:space="preserve" x="0" y="0" font-family="Helvetica" font-size="10" font-weight="400" font-style="normal" 
 >-6</text>
</g>

<g fill="#212121" fill-opacity="1" stroke="#212121" stroke-opacity="1" stroke-width="1" stroke-linecap="square" stroke-linejoin="bevel" transform="matrix(0,-0.749463,0.749537,0,8.99537,248.636)"
font-family="Helvetica" font-size="14" font-weight="400" font-style="normal" 
>
<text fill="#212121" fill-opacity="1" stroke="none" xml:space="preserve" x="0" y="0" font-family="Helvetica" font-size="14" font-weight="400" font-style="normal" 
 >Delay RMSE [s]</text>
</g>

<g fill="#212121" fill-opacity="1" stroke="#212121" stroke-opacity="1" stroke-width="1" stroke-linecap="square" stroke-linejoin="bevel" transform="matrix(0.749537,0,0,0.749463,339.58,8.99463)"
font-family="Helvetica" font-size="14" font-weight="700" font-style="normal" 
>
<text fill="#212121" fill-opacity="1" stroke="none" xml:space="preserve" x="0" y="0" font-family="Helvetica" font-size="14" font-weight="700" font-style="normal" 
 >OTFS</text>
</g>

<g fill="none" stroke="#268cdd" stroke-opacity="1" stroke-width="2.66667" stroke-linecap="butt" stroke-linejoin="round" transform="matrix(0.749537,0,0,0.749463,-64.0455,-23.4197)"
font-family="Helvetica" font-size="14" font-weight="700" font-style="normal" 
>
<polyline fill="none" vector-effect="none" points="140,74.6935 153.917,73.0889 167.833,72.0951 181.75,71.1065 195.667,72.4947 209.583,71.5787 223.5,71.4841 237.417,71.5536 251.333,70.5418 265.25,75.5977 279.167,73.8488 293.083,78.4703 307,78.1693 320.917,84.6941 334.833,86.794 348.75,85.7934 362.667,85.9763 376.583,99.2457 390.5,100.683 404.417,111.072 418.333,105.925 432.25,168.285 446.167,150.34 460.083,136.199 474,317.322 487.917,212.609 501.833,274.94 515.75,339.147 529.667,349.876 543.583,349.476 557.5,357.035 571.417,362.255 585.333,374.769 599.25,382.573 613.167,393.667 627.083,407.698 641,421.15 654.917,428.283 668.833,438.05 682.75,448.111 696.667,451.175 710.583,456.045 724.5,462.758 738.417,469.457 752.333,476.283 766.25,474.041 780.167,489.194 794.083,496.145 808,492.663 821.917,505.555 835.833,509.15 849.75,506.288 863.667,525.769 877.583,519.223 891.5,526.326 905.417,532.018 919.333,541.382 933.25,546.283 947.167,552.8 961.083,551.504 975,562.811 " />
</g>

<g fill="none" stroke="#268cdd" stroke-opacity="1" stroke-dasharray="8,8" stroke-dashoffset="0" stroke-width="2.66667" stroke-linecap="butt" stroke-linejoin="round" transform="matrix(0.749537,0,0,0.749463,-64.0455,-23.4197)"
font-family="Helvetica" font-size="14" font-weight="700" font-style="normal" 
>
<polyline fill="none" vector-effect="none" points="140,146.516 153.917,151.692 167.833,156.807 181.75,162.968 195.667,167.246 209.583,172.517 223.5,177.689 237.417,182.836 251.333,190.049 265.25,195.101 279.167,200.884 293.083,206.7 307,216.761 320.917,220.659 334.833,230.384 348.75,235.707 362.667,243.987 376.583,241.206 390.5,257.73 404.417,237.467 418.333,240.405 432.25,254.93 446.167,303.204 460.083,308.394 474,316.909 487.917,325.153 501.833,331.119 515.75,337.441 529.667,349.043 543.583,350.12 557.5,360.778 571.417,367.203 585.333,379.477 599.25,386.046 613.167,395.472 627.083,409.292 641,419.204 654.917,428.005 668.833,438.955 682.75,446.048 696.667,453.004 710.583,458.992 724.5,464.421 738.417,469.785 752.333,475.054 766.25,480.354 780.167,485.63 794.083,490.948 808,496.218 821.917,501.512 835.833,506.788 849.75,512.125 863.667,517.36 877.583,522.663 891.5,527.973 905.417,533.286 919.333,538.539 933.25,543.781 947.167,549.109 961.083,554.373 975,559.735 " />
</g>

<g fill="none" stroke="#f57729" stroke-opacity="1" stroke-width="2.66667" stroke-linecap="butt" stroke-linejoin="round" transform="matrix(0.749537,0,0,0.749463,-64.0455,-23.4197)"
font-family="Helvetica" font-size="14" font-weight="700" font-style="normal" 
>
<polyline fill="none" vector-effect="none" points="140,73.0896 153.917,71.6514 167.833,74.5237 181.75,73.7104 195.667,70.8582 209.583,71.4507 223.5,69.0158 237.417,71.4185 251.333,70.2244 265.25,73.4278 279.167,71.4433 293.083,78.5145 307,77.3624 320.917,85.0751 334.833,85.4581 348.75,90.9026 362.667,89.9053 376.583,99.1172 390.5,107.361 404.417,121.781 418.333,114.107 432.25,151.878 446.167,146.558 460.083,138.94 474,316.778 487.917,232.329 501.833,233.558 515.75,336.267 529.667,347.245 543.583,346.065 557.5,349.946 571.417,352.903 585.333,364.746 599.25,366.117 613.167,368.126 627.083,380.078 641,380.333 654.917,385.178 668.833,392.977 682.75,390.561 696.667,393.73 710.583,393.914 724.5,406.089 738.417,408.429 752.333,409.168 766.25,406.645 780.167,409.753 794.083,413.755 808,417.584 821.917,419.495 835.833,415.959 849.75,410.603 863.667,416.959 877.583,412.624 891.5,417.257 905.417,420.521 919.333,418.321 933.25,418.979 947.167,424.487 961.083,418.256 975,419.696 " />
</g>

<g fill="none" stroke="#f57729" stroke-opacity="1" stroke-dasharray="8,8" stroke-dashoffset="0" stroke-width="2.66667" stroke-linecap="butt" stroke-linejoin="round" transform="matrix(0.749537,0,0,0.749463,-64.0455,-23.4197)"
font-family="Helvetica" font-size="14" font-weight="700" font-style="normal" 
>
<polyline fill="none" vector-effect="none" points="140,194.73 153.917,200.02 167.833,205.31 181.75,210.6 195.667,215.89 209.583,221.18 223.5,226.47 237.417,231.76 251.333,237.05 265.25,242.34 279.167,247.63 293.083,252.92 307,258.21 320.917,263.5 334.833,268.79 348.75,274.08 362.667,279.37 376.583,284.66 390.5,289.95 404.417,295.24 418.333,300.53 432.25,305.82 446.167,311.11 460.083,316.4 474,321.69 487.917,326.98 501.833,332.27 515.75,337.56 529.667,342.85 543.583,348.14 557.5,353.43 571.417,358.72 585.333,364.01 599.25,369.3 613.167,374.59 627.083,379.88 641,385.17 654.917,390.46 668.833,395.75 682.75,401.04 696.667,406.33 710.583,411.62 724.5,416.91 738.417,422.2 752.333,427.49 766.25,432.78 780.167,438.07 794.083,443.36 808,448.65 821.917,453.94 835.833,459.23 849.75,464.52 863.667,469.81 877.583,475.1 891.5,480.39 905.417,485.68 919.333,490.97 933.25,496.26 947.167,501.55 961.083,506.84 975,512.13 " />
</g>

<g fill="none" stroke="#ffe864" stroke-opacity="1" stroke-width="2.66667" stroke-linecap="butt" stroke-linejoin="round" transform="matrix(0.749537,0,0,0.749463,-64.0455,-23.4197)"
font-family="Helvetica" font-size="14" font-weight="700" font-style="normal" 
>
<polyline fill="none" vector-effect="none" points="140,74.238 153.917,75.5178 167.833,74.1676 181.75,86.0006 195.667,79.2648 209.583,83.7612 223.5,89.191 237.417,85.9595 251.333,93.298 265.25,117.371 279.167,107.699 293.083,130.189 307,155.242 320.917,197.905 334.833,185.5 348.75,323.911 362.667,329.808 376.583,336.392 390.5,337.842 404.417,349.343 418.333,346.759 432.25,350.055 446.167,360.542 460.083,361.601 474,368.285 487.917,373.169 501.833,379.114 515.75,387.15 529.667,396.659 543.583,397.233 557.5,398.715 571.417,403.427 585.333,412.328 599.25,416.389 613.167,424.089 627.083,429.021 641,438.087 654.917,437.956 668.833,442.272 682.75,451.755 696.667,452.482 710.583,456.486 724.5,462.774 738.417,469.457 752.333,476.31 766.25,474.041 780.167,489.194 794.083,496.145 808,492.663 821.917,505.555 835.833,509.15 849.75,506.288 863.667,525.769 877.583,519.223 891.5,526.326 905.417,532.018 919.333,541.382 933.25,546.283 947.167,552.8 961.083,551.504 975,562.811 " />
</g>

<g fill="none" stroke="#ffe864" stroke-opacity="1" stroke-dasharray="8,8" stroke-dashoffset="0" stroke-width="2.66667" stroke-linecap="butt" stroke-linejoin="round" transform="matrix(0.749537,0,0,0.749463,-64.0455,-23.4197)"
font-family="Helvetica" font-size="14" font-weight="700" font-style="normal" 
>
<polyline fill="none" vector-effect="none" points="140,242.351 153.917,247.603 167.833,252.898 181.75,258.231 195.667,263.51 209.583,268.725 223.5,274.007 237.417,279.366 251.333,284.623 265.25,289.957 279.167,295.21 293.083,300.466 307,305.793 320.917,311.035 334.833,316.388 348.75,321.699 362.667,326.839 376.583,332.203 390.5,337.511 404.417,342.854 418.333,348.131 432.25,353.446 446.167,358.684 460.083,363.996 474,369.246 487.917,374.561 501.833,379.85 515.75,385.133 529.667,390.431 543.583,395.668 557.5,400.977 571.417,406.29 585.333,411.547 599.25,416.836 613.167,422.193 627.083,427.447 641,432.772 654.917,438.099 668.833,443.254 682.75,448.626 696.667,453.928 710.583,459.218 724.5,464.491 738.417,469.785 752.333,475.062 766.25,480.354 780.167,485.63 794.083,490.948 808,496.218 821.917,501.512 835.833,506.788 849.75,512.125 863.667,517.36 877.583,522.663 891.5,527.973 905.417,533.286 919.333,538.539 933.25,543.781 947.167,549.109 961.083,554.373 975,559.735 " />
</g>

<g fill="#ffffff" fill-opacity="1" stroke="none" transform="matrix(7.49537e-05,0,0,7.49463e-05,-64.0455,-23.4197)"
font-family="Helvetica" font-size="14" font-weight="700" font-style="normal" 
>
<path vector-effect="none" fill-rule="evenodd" d="M8.14e+06,600000 L8.14e+06,1.5e+06 L9.64e+06,1.5e+06 L9.64e+06,600000 L8.14e+06,600000"/>
</g>

<g fill="#268cdd" fill-opacity="1" stroke="#268cdd" stroke-opacity="1" stroke-width="2.66667" stroke-linecap="butt" stroke-linejoin="round" transform="matrix(0.749537,0,0,0.749463,-64.0455,-23.4197)"
font-family="Helvetica" font-size="14" font-weight="700" font-style="normal" 
>
<polyline fill="none" vector-effect="none" points="818,68.9503 858,68.9503 " />
</g>

<g fill="#268cdd" fill-opacity="1" stroke="#268cdd" stroke-opacity="1" stroke-dasharray="8,8" stroke-dashoffset="0" stroke-width="2.66667" stroke-linecap="butt" stroke-linejoin="round" transform="matrix(0.749537,0,0,0.749463,-64.0455,-23.4197)"
font-family="Helvetica" font-size="14" font-weight="700" font-style="normal" 
>
<polyline fill="none" vector-effect="none" points="818,83.3702 858,83.3702 " />
</g>

<g fill="#f57729" fill-opacity="1" stroke="#f57729" stroke-opacity="1" stroke-width="2.66667" stroke-linecap="butt" stroke-linejoin="round" transform="matrix(0.749537,0,0,0.749463,-64.0455,-23.4197)"
font-family="Helvetica" font-size="14" font-weight="700" font-style="normal" 
>
<polyline fill="none" vector-effect="none" points="818,97.7901 858,97.7901 " />
</g>

<g fill="#f57729" fill-opacity="1" stroke="#f57729" stroke-opacity="1" stroke-dasharray="8,8" stroke-dashoffset="0" stroke-width="2.66667" stroke-linecap="butt" stroke-linejoin="round" transform="matrix(0.749537,0,0,0.749463,-64.0455,-23.4197)"
font-family="Helvetica" font-size="14" font-weight="700" font-style="normal" 
>
<polyline fill="none" vector-effect="none" points="818,112.21 858,112.21 " />
</g>

<g fill="#ffe864" fill-opacity="1" stroke="#ffe864" stroke-opacity="1" stroke-width="2.66667" stroke-linecap="butt" stroke-linejoin="round" transform="matrix(0.749537,0,0,0.749463,-64.0455,-23.4197)"
font-family="Helvetica" font-size="14" font-weight="700" font-style="normal" 
>
<polyline fill="none" vector-effect="none" points="818,126.63 858,126.63 " />
</g>

<g fill="#ffe864" fill-opacity="1" stroke="#ffe864" stroke-opacity="1" stroke-dasharray="8,8" stroke-dashoffset="0" stroke-width="2.66667" stroke-linecap="butt" stroke-linejoin="round" transform="matrix(0.749537,0,0,0.749463,-64.0455,-23.4197)"
font-family="Helvetica" font-size="14" font-weight="700" font-style="normal" 
>
<polyline fill="none" vector-effect="none" points="818,141.05 858,141.05 " />
</g>

<g fill="#212121" fill-opacity="1" stroke="#212121" stroke-opacity="1" stroke-width="1" stroke-linecap="square" stroke-linejoin="bevel" transform="matrix(0.749537,0,0,0.749463,581.306,31.2539)"
font-family="Helvetica" font-size="12" font-weight="400" font-style="normal" 
>
<text fill="#212121" fill-opacity="1" stroke="none" xml:space="preserve" x="0" y="0" font-family="Helvetica" font-size="12" font-weight="400" font-style="normal" 
 >Data Aided MLE</text>
</g>

<g fill="#212121" fill-opacity="1" stroke="#212121" stroke-opacity="1" stroke-width="1" stroke-linecap="square" stroke-linejoin="bevel" transform="matrix(0.749537,0,0,0.749463,581.306,42.0611)"
font-family="Helvetica" font-size="12" font-weight="400" font-style="normal" 
>
<text fill="#212121" fill-opacity="1" stroke="none" xml:space="preserve" x="0" y="0" font-family="Helvetica" font-size="12" font-weight="400" font-style="normal" 
 >Data Aided MCRB</text>
</g>

<g fill="#212121" fill-opacity="1" stroke="#212121" stroke-opacity="1" stroke-width="1" stroke-linecap="square" stroke-linejoin="bevel" transform="matrix(0.749537,0,0,0.749463,581.306,52.8683)"
font-family="Helvetica" font-size="12" font-weight="400" font-style="normal" 
>
<text fill="#212121" fill-opacity="1" stroke="none" xml:space="preserve" x="0" y="0" font-family="Helvetica" font-size="12" font-weight="400" font-style="normal" 
 >Pilot Only MLE</text>
</g>

<g fill="#212121" fill-opacity="1" stroke="#212121" stroke-opacity="1" stroke-width="1" stroke-linecap="square" stroke-linejoin="bevel" transform="matrix(0.749537,0,0,0.749463,581.306,63.6754)"
font-family="Helvetica" font-size="12" font-weight="400" font-style="normal" 
>
<text fill="#212121" fill-opacity="1" stroke="none" xml:space="preserve" x="0" y="0" font-family="Helvetica" font-size="12" font-weight="400" font-style="normal" 
 >Pilot Only CRB</text>
</g>

<g fill="#212121" fill-opacity="1" stroke="#212121" stroke-opacity="1" stroke-width="1" stroke-linecap="square" stroke-linejoin="bevel" transform="matrix(0.749537,0,0,0.749463,581.306,74.4826)"
font-family="Helvetica" font-size="12" font-weight="400" font-style="normal" 
>
<text fill="#212121" fill-opacity="1" stroke="none" xml:space="preserve" x="0" y="0" font-family="Helvetica" font-size="12" font-weight="400" font-style="normal" 
 >Full Data MLE</text>
</g>

<g fill="#212121" fill-opacity="1" stroke="#212121" stroke-opacity="1" stroke-width="1" stroke-linecap="square" stroke-linejoin="bevel" transform="matrix(0.749537,0,0,0.749463,581.306,85.2898)"
font-family="Helvetica" font-size="12" font-weight="400" font-style="normal" 
>
<text fill="#212121" fill-opacity="1" stroke="none" xml:space="preserve" x="0" y="0" font-family="Helvetica" font-size="12" font-weight="400" font-style="normal" 
 >Full Data CRB</text>
</g>

<g fill="none" stroke="#212121" stroke-opacity="1" stroke-width="0.666667" stroke-linecap="butt" stroke-linejoin="miter" stroke-miterlimit="2" transform="matrix(0.749537,0,0,0.749463,-64.0455,-23.4197)"
font-family="Helvetica" font-size="12" font-weight="400" font-style="normal" 
>
<path vector-effect="none" fill-rule="evenodd" d="M814,150 L814,60 L964,60 L964,150 L814,150"/>
</g>
</g>
</svg>
