<?xml version="1.0" encoding="UTF-8" standalone="no"?>
<svg width="235.303mm" height="155.222mm"
 viewBox="0 0 667 440"
 xmlns="http://www.w3.org/2000/svg" xmlns:xlink="http://www.w3.org/1999/xlink"  version="1.2" baseProfile="tiny">
<title>Qt SVG Document</title>
<desc>MATLAB, The MathWorks, Inc. Version 25.2.0.3055257 R2025b Update 2</desc>
<defs>
</defs>
<g fill="none" stroke="black" stroke-width="1" fill-rule="evenodd" stroke-linecap="square" stroke-linejoin="bevel" >

<g fill="#ffffff" fill-opacity="1" stroke="none" transform="matrix(0.749612,0,0,0.749463,-70.1192,-23.4197)"
font-family="MS Shell Dlg 2" font-size="8.25" font-weight="400" font-style="normal" 
>
<path vector-effect="none" fill-rule="evenodd" d="M92,30 L983,30 L983,618 L92,618 L92,30"/>
</g>

<g fill="#ffffff" fill-opacity="1" stroke="none" transform="matrix(7.49612e-05,0,0,7.49463e-05,-70.1192,-23.4197)"
font-family="MS Shell Dlg 2" font-size="8.25" font-weight="400" font-style="normal" 
>
<path vector-effect="none" fill-rule="evenodd" d="M1.4e+06,490000 L1.4e+06,5.78e+06 L9.74e+06,5.78e+06 L9.74e+06,490000 L1.4e+06,490000"/>
</g>

<g fill="#212121" fill-opacity="0.14902" stroke="#212121" stroke-opacity="0.14902" stroke-width="0.666667" stroke-linecap="butt" stroke-linejoin="round" transform="matrix(0.749612,0,0,0.749463,-70.1192,-23.4197)"
font-family="MS Shell Dlg 2" font-size="8.25" font-weight="400" font-style="normal" 
>
<polyline fill="none" vector-effect="none" points="140,578 140,49 " />
<polyline fill="none" vector-effect="none" points="279,578 279,49 " />
<polyline fill="none" vector-effect="none" points="418,578 418,49 " />
<polyline fill="none" vector-effect="none" points="557,578 557,49 " />
<polyline fill="none" vector-effect="none" points="696,578 696,49 " />
<polyline fill="none" vector-effect="none" points="835,578 835,49 " />
<polyline fill="none" vector-effect="none" points="974,578 974,49 " />
</g>

<g fill="#212121" fill-opacity="0.14902" stroke="#212121" stroke-opacity="0.14902" stroke-dasharray="1,3" stroke-dashoffset="0" stroke-width="0.666667" stroke-linecap="butt" stroke-linejoin="round" transform="matrix(0.749612,0,0,0.749463,-70.1192,-23.4197)"
font-family="MS Shell Dlg 2" font-size="8.25" font-weight="400" font-style="normal" 
>
<polyline fill="none" vector-effect="none" points="974,551.587 140,551.587 " />
<polyline fill="none" vector-effect="none" points="974,536.061 140,536.061 " />
<polyline fill="none" vector-effect="none" points="974,525.045 140,525.045 " />
<polyline fill="none" vector-effect="none" points="974,516.501 140,516.501 " />
<polyline fill="none" vector-effect="none" points="974,509.519 140,509.519 " />
<polyline fill="none" vector-effect="none" points="974,503.617 140,503.617 " />
<polyline fill="none" vector-effect="none" points="974,498.503 140,498.503 " />
<polyline fill="none" vector-effect="none" points="974,493.993 140,493.993 " />
<polyline fill="none" vector-effect="none" points="974,463.417 140,463.417 " />
<polyline fill="none" vector-effect="none" points="974,447.891 140,447.891 " />
<polyline fill="none" vector-effect="none" points="974,436.875 140,436.875 " />
<polyline fill="none" vector-effect="none" points="974,428.331 140,428.331 " />
<polyline fill="none" vector-effect="none" points="974,421.349 140,421.349 " />
<polyline fill="none" vector-effect="none" points="974,415.447 140,415.447 " />
<polyline fill="none" vector-effect="none" points="974,410.334 140,410.334 " />
<polyline fill="none" vector-effect="none" points="974,405.824 140,405.824 " />
<polyline fill="none" vector-effect="none" points="974,375.247 140,375.247 " />
<polyline fill="none" vector-effect="none" points="974,359.721 140,359.721 " />
<polyline fill="none" vector-effect="none" points="974,348.706 140,348.706 " />
<polyline fill="none" vector-effect="none" points="974,340.161 140,340.161 " />
<polyline fill="none" vector-effect="none" points="974,333.18 140,333.18 " />
<polyline fill="none" vector-effect="none" points="974,327.277 140,327.277 " />
<polyline fill="none" vector-effect="none" points="974,322.164 140,322.164 " />
<polyline fill="none" vector-effect="none" points="974,317.654 140,317.654 " />
<polyline fill="none" vector-effect="none" points="974,287.077 140,287.077 " />
<polyline fill="none" vector-effect="none" points="974,271.552 140,271.552 " />
<polyline fill="none" vector-effect="none" points="974,260.536 140,260.536 " />
<polyline fill="none" vector-effect="none" points="974,251.991 140,251.991 " />
<polyline fill="none" vector-effect="none" points="974,245.01 140,245.01 " />
<polyline fill="none" vector-effect="none" points="974,239.107 140,239.107 " />
<polyline fill="none" vector-effect="none" points="974,233.994 140,233.994 " />
<polyline fill="none" vector-effect="none" points="974,229.484 140,229.484 " />
<polyline fill="none" vector-effect="none" points="974,198.908 140,198.908 " />
<polyline fill="none" vector-effect="none" points="974,183.382 140,183.382 " />
<polyline fill="none" vector-effect="none" points="974,172.366 140,172.366 " />
<polyline fill="none" vector-effect="none" points="974,163.821 140,163.821 " />
<polyline fill="none" vector-effect="none" points="974,156.84 140,156.84 " />
<polyline fill="none" vector-effect="none" points="974,150.937 140,150.937 " />
<polyline fill="none" vector-effect="none" points="974,145.824 140,145.824 " />
<polyline fill="none" vector-effect="none" points="974,141.314 140,141.314 " />
<polyline fill="none" vector-effect="none" points="974,110.738 140,110.738 " />
<polyline fill="none" vector-effect="none" points="974,95.2119 140,95.2119 " />
<polyline fill="none" vector-effect="none" points="974,84.1961 140,84.1961 " />
<polyline fill="none" vector-effect="none" points="974,75.6516 140,75.6516 " />
<polyline fill="none" vector-effect="none" points="974,68.6702 140,68.6702 " />
<polyline fill="none" vector-effect="none" points="974,62.7675 140,62.7675 " />
<polyline fill="none" vector-effect="none" points="974,57.6543 140,57.6543 " />
<polyline fill="none" vector-effect="none" points="974,53.1442 140,53.1442 " />
</g>

<g fill="#212121" fill-opacity="0.14902" stroke="#212121" stroke-opacity="0.14902" stroke-width="0.666667" stroke-linecap="butt" stroke-linejoin="round" transform="matrix(0.749612,0,0,0.749463,-70.1192,-23.4197)"
font-family="MS Shell Dlg 2" font-size="8.25" font-weight="400" font-style="normal" 
>
<polyline fill="none" vector-effect="none" points="974,489.959 140,489.959 " />
<polyline fill="none" vector-effect="none" points="974,401.789 140,401.789 " />
<polyline fill="none" vector-effect="none" points="974,313.619 140,313.619 " />
<polyline fill="none" vector-effect="none" points="974,225.449 140,225.449 " />
<polyline fill="none" vector-effect="none" points="974,137.28 140,137.28 " />
<polyline fill="none" vector-effect="none" points="974,49.1098 140,49.1098 " />
</g>

<g fill="#212121" fill-opacity="1" stroke="#212121" stroke-opacity="1" stroke-width="0.666667" stroke-linecap="square" stroke-linejoin="round" transform="matrix(0.749612,0,0,0.749463,-70.1192,-23.4197)"
font-family="MS Shell Dlg 2" font-size="8.25" font-weight="400" font-style="normal" 
>
<polyline fill="none" vector-effect="none" points="140,578 974,578 " />
<polyline fill="none" vector-effect="none" points="140,49 974,49 " />
<polyline fill="none" vector-effect="none" points="140,578 140,569.66 " />
<polyline fill="none" vector-effect="none" points="279,578 279,569.66 " />
<polyline fill="none" vector-effect="none" points="418,578 418,569.66 " />
<polyline fill="none" vector-effect="none" points="557,578 557,569.66 " />
<polyline fill="none" vector-effect="none" points="696,578 696,569.66 " />
<polyline fill="none" vector-effect="none" points="835,578 835,569.66 " />
<polyline fill="none" vector-effect="none" points="974,578 974,569.66 " />
<polyline fill="none" vector-effect="none" points="140,49 140,57.34 " />
<polyline fill="none" vector-effect="none" points="279,49 279,57.34 " />
<polyline fill="none" vector-effect="none" points="418,49 418,57.34 " />
<polyline fill="none" vector-effect="none" points="557,49 557,57.34 " />
<polyline fill="none" vector-effect="none" points="696,49 696,57.34 " />
<polyline fill="none" vector-effect="none" points="835,49 835,57.34 " />
<polyline fill="none" vector-effect="none" points="974,49 974,57.34 " />
</g>

<g fill="#212121" fill-opacity="1" stroke="#212121" stroke-opacity="1" stroke-width="1" stroke-linecap="square" stroke-linejoin="bevel" transform="matrix(0.749612,0,0,0.749463,28.08,422.761)"
font-family="Helvetica" font-size="13" font-weight="400" font-style="normal" 
>
<text fill="#212121" fill-opacity="1" stroke="none" xml:space="preserve" x="0" y="0" font-family="Helvetica" font-size="13" font-weight="400" font-style="normal" 
 >-30</text>
</g>

<g fill="#212121" fill-opacity="1" stroke="#212121" stroke-opacity="1" stroke-width="1" stroke-linecap="square" stroke-linejoin="bevel" transform="matrix(0.749612,0,0,0.749463,132.276,422.761)"
font-family="Helvetica" font-size="13" font-weight="400" font-style="normal" 
>
<text fill="#212121" fill-opacity="1" stroke="none" xml:space="preserve" x="0" y="0" font-family="Helvetica" font-size="13" font-weight="400" font-style="normal" 
 >-20</text>
</g>

<g fill="#212121" fill-opacity="1" stroke="#212121" stroke-opacity="1" stroke-width="1" stroke-linecap="square" stroke-linejoin="bevel" transform="matrix(0.749612,0,0,0.749463,236.472,422.761)"
font-family="Helvetica" font-size="13" font-weight="400" font-style="normal" 
>
<text fill="#212121" fill-opacity="1" stroke="none" xml:space="preserve" x="0" y="0" font-family="Helvetica" font-size="13" font-weight="400" font-style="normal" 
 >-10</text>
</g>

<g fill="#212121" fill-opacity="1" stroke="#212121" stroke-opacity="1" stroke-width="1" stroke-linecap="square" stroke-linejoin="bevel" transform="matrix(0.749612,0,0,0.749463,344.791,422.761)"
font-family="Helvetica" font-size="13" font-weight="400" font-style="normal" 
>
<text fill="#212121" fill-opacity="1" stroke="none" xml:space="preserve" x="0" y="0" font-family="Helvetica" font-size="13" font-weight="400" font-style="normal" 
 >0</text>
</g>

<g fill="#212121" fill-opacity="1" stroke="#212121" stroke-opacity="1" stroke-width="1" stroke-linecap="square" stroke-linejoin="bevel" transform="matrix(0.749612,0,0,0.749463,446.363,422.761)"
font-family="Helvetica" font-size="13" font-weight="400" font-style="normal" 
>
<text fill="#212121" fill-opacity="1" stroke="none" xml:space="preserve" x="0" y="0" font-family="Helvetica" font-size="13" font-weight="400" font-style="normal" 
 >10</text>
</g>

<g fill="#212121" fill-opacity="1" stroke="#212121" stroke-opacity="1" stroke-width="1" stroke-linecap="square" stroke-linejoin="bevel" transform="matrix(0.749612,0,0,0.749463,550.559,422.761)"
font-family="Helvetica" font-size="13" font-weight="400" font-style="normal" 
>
<text fill="#212121" fill-opacity="1" stroke="none" xml:space="preserve" x="0" y="0" font-family="Helvetica" font-size="13" font-weight="400" font-style="normal" 
 >20</text>
</g>

<g fill="#212121" fill-opacity="1" stroke="#212121" stroke-opacity="1" stroke-width="1" stroke-linecap="square" stroke-linejoin="bevel" transform="matrix(0.749612,0,0,0.749463,654.755,422.761)"
font-family="Helvetica" font-size="13" font-weight="400" font-style="normal" 
>
<text fill="#212121" fill-opacity="1" stroke="none" xml:space="preserve" x="0" y="0" font-family="Helvetica" font-size="13" font-weight="400" font-style="normal" 
 >30</text>
</g>

<g fill="#212121" fill-opacity="1" stroke="#212121" stroke-opacity="1" stroke-width="1" stroke-linecap="square" stroke-linejoin="bevel" transform="matrix(0.749612,0,0,0.749463,325.676,435.752)"
font-family="Helvetica" font-size="14" font-weight="400" font-style="normal" 
>
<text fill="#212121" fill-opacity="1" stroke="none" xml:space="preserve" x="0" y="0" font-family="Helvetica" font-size="14" font-weight="400" font-style="normal" 
 >SNR [dB]</text>
</g>

<g fill="#212121" fill-opacity="1" stroke="#212121" stroke-opacity="1" stroke-width="0.666667" stroke-linecap="square" stroke-linejoin="round" transform="matrix(0.749612,0,0,0.749463,-70.1192,-23.4197)"
font-family="Helvetica" font-size="14" font-weight="400" font-style="normal" 
>
<polyline fill="none" vector-effect="none" points="140,578 140,49 " />
<polyline fill="none" vector-effect="none" points="974,578 974,49 " />
<polyline fill="none" vector-effect="none" points="140,489.959 148.34,489.959 " />
<polyline fill="none" vector-effect="none" points="140,401.789 148.34,401.789 " />
<polyline fill="none" vector-effect="none" points="140,313.619 148.34,313.619 " />
<polyline fill="none" vector-effect="none" points="140,225.449 148.34,225.449 " />
<polyline fill="none" vector-effect="none" points="140,137.28 148.34,137.28 " />
<polyline fill="none" vector-effect="none" points="140,49.1098 148.34,49.1098 " />
<polyline fill="none" vector-effect="none" points="974,489.959 965.66,489.959 " />
<polyline fill="none" vector-effect="none" points="974,401.789 965.66,401.789 " />
<polyline fill="none" vector-effect="none" points="974,313.619 965.66,313.619 " />
<polyline fill="none" vector-effect="none" points="974,225.449 965.66,225.449 " />
<polyline fill="none" vector-effect="none" points="974,137.28 965.66,137.28 " />
<polyline fill="none" vector-effect="none" points="974,49.1098 965.66,49.1098 " />
<polyline fill="none" vector-effect="none" points="140,551.587 144.17,551.587 " />
<polyline fill="none" vector-effect="none" points="140,536.061 144.17,536.061 " />
<polyline fill="none" vector-effect="none" points="140,525.045 144.17,525.045 " />
<polyline fill="none" vector-effect="none" points="140,516.501 144.17,516.501 " />
<polyline fill="none" vector-effect="none" points="140,509.519 144.17,509.519 " />
<polyline fill="none" vector-effect="none" points="140,503.617 144.17,503.617 " />
<polyline fill="none" vector-effect="none" points="140,498.503 144.17,498.503 " />
<polyline fill="none" vector-effect="none" points="140,493.993 144.17,493.993 " />
<polyline fill="none" vector-effect="none" points="140,489.959 144.17,489.959 " />
<polyline fill="none" vector-effect="none" points="140,463.417 144.17,463.417 " />
<polyline fill="none" vector-effect="none" points="140,447.891 144.17,447.891 " />
<polyline fill="none" vector-effect="none" points="140,436.875 144.17,436.875 " />
<polyline fill="none" vector-effect="none" points="140,428.331 144.17,428.331 " />
<polyline fill="none" vector-effect="none" points="140,421.349 144.17,421.349 " />
<polyline fill="none" vector-effect="none" points="140,415.447 144.17,415.447 " />
<polyline fill="none" vector-effect="none" points="140,410.334 144.17,410.334 " />
<polyline fill="none" vector-effect="none" points="140,405.824 144.17,405.824 " />
<polyline fill="none" vector-effect="none" points="140,401.789 144.17,401.789 " />
<polyline fill="none" vector-effect="none" points="140,375.247 144.17,375.247 " />
<polyline fill="none" vector-effect="none" points="140,359.721 144.17,359.721 " />
<polyline fill="none" vector-effect="none" points="140,348.706 144.17,348.706 " />
<polyline fill="none" vector-effect="none" points="140,340.161 144.17,340.161 " />
<polyline fill="none" vector-effect="none" points="140,333.18 144.17,333.18 " />
<polyline fill="none" vector-effect="none" points="140,327.277 144.17,327.277 " />
<polyline fill="none" vector-effect="none" points="140,322.164 144.17,322.164 " />
<polyline fill="none" vector-effect="none" points="140,317.654 144.17,317.654 " />
<polyline fill="none" vector-effect="none" points="140,313.619 144.17,313.619 " />
<polyline fill="none" vector-effect="none" points="140,287.077 144.17,287.077 " />
<polyline fill="none" vector-effect="none" points="140,271.552 144.17,271.552 " />
<polyline fill="none" vector-effect="none" points="140,260.536 144.17,260.536 " />
<polyline fill="none" vector-effect="none" points="140,251.991 144.17,251.991 " />
<polyline fill="none" vector-effect="none" points="140,245.01 144.17,245.01 " />
<polyline fill="none" vector-effect="none" points="140,239.107 144.17,239.107 " />
<polyline fill="none" vector-effect="none" points="140,233.994 144.17,233.994 " />
<polyline fill="none" vector-effect="none" points="140,229.484 144.17,229.484 " />
<polyline fill="none" vector-effect="none" points="140,225.449 144.17,225.449 " />
<polyline fill="none" vector-effect="none" points="140,198.908 144.17,198.908 " />
<polyline fill="none" vector-effect="none" points="140,183.382 144.17,183.382 " />
<polyline fill="none" vector-effect="none" points="140,172.366 144.17,172.366 " />
<polyline fill="none" vector-effect="none" points="140,163.821 144.17,163.821 " />
<polyline fill="none" vector-effect="none" points="140,156.84 144.17,156.84 " />
<polyline fill="none" vector-effect="none" points="140,150.937 144.17,150.937 " />
<polyline fill="none" vector-effect="none" points="140,145.824 144.17,145.824 " />
<polyline fill="none" vector-effect="none" points="140,141.314 144.17,141.314 " />
<polyline fill="none" vector-effect="none" points="140,137.28 144.17,137.28 " />
<polyline fill="none" vector-effect="none" points="140,110.738 144.17,110.738 " />
<polyline fill="none" vector-effect="none" points="140,95.2119 144.17,95.2119 " />
<polyline fill="none" vector-effect="none" points="140,84.1961 144.17,84.1961 " />
<polyline fill="none" vector-effect="none" points="140,75.6516 144.17,75.6516 " />
<polyline fill="none" vector-effect="none" points="140,68.6702 144.17,68.6702 " />
<polyline fill="none" vector-effect="none" points="140,62.7675 144.17,62.7675 " />
<polyline fill="none" vector-effect="none" points="140,57.6543 144.17,57.6543 " />
<polyline fill="none" vector-effect="none" points="140,53.1442 144.17,53.1442 " />
<polyline fill="none" vector-effect="none" points="140,49.1098 144.17,49.1098 " />
<polyline fill="none" vector-effect="none" points="974,551.587 969.83,551.587 " />
<polyline fill="none" vector-effect="none" points="974,536.061 969.83,536.061 " />
<polyline fill="none" vector-effect="none" points="974,525.045 969.83,525.045 " />
<polyline fill="none" vector-effect="none" points="974,516.501 969.83,516.501 " />
<polyline fill="none" vector-effect="none" points="974,509.519 969.83,509.519 " />
<polyline fill="none" vector-effect="none" points="974,503.617 969.83,503.617 " />
<polyline fill="none" vector-effect="none" points="974,498.503 969.83,498.503 " />
<polyline fill="none" vector-effect="none" points="974,493.993 969.83,493.993 " />
<polyline fill="none" vector-effect="none" points="974,489.959 969.83,489.959 " />
<polyline fill="none" vector-effect="none" points="974,463.417 969.83,463.417 " />
<polyline fill="none" vector-effect="none" points="974,447.891 969.83,447.891 " />
<polyline fill="none" vector-effect="none" points="974,436.875 969.83,436.875 " />
<polyline fill="none" vector-effect="none" points="974,428.331 969.83,428.331 " />
<polyline fill="none" vector-effect="none" points="974,421.349 969.83,421.349 " />
<polyline fill="none" vector-effect="none" points="974,415.447 969.83,415.447 " />
<polyline fill="none" vector-effect="none" points="974,410.334 969.83,410.334 " />
<polyline fill="none" vector-effect="none" points="974,405.824 969.83,405.824 " />
<polyline fill="none" vector-effect="none" points="974,401.789 969.83,401.789 " />
<polyline fill="none" vector-effect="none" points="974,375.247 969.83,375.247 " />
<polyline fill="none" vector-effect="none" points="974,359.721 969.83,359.721 " />
<polyline fill="none" vector-effect="none" points="974,348.706 969.83,348.706 " />
<polyline fill="none" vector-effect="none" points="974,340.161 969.83,340.161 " />
<polyline fill="none" vector-effect="none" points="974,333.18 969.83,333.18 " />
<polyline fill="none" vector-effect="none" points="974,327.277 969.83,327.277 " />
<polyline fill="none" vector-effect="none" points="974,322.164 969.83,322.164 " />
<polyline fill="none" vector-effect="none" points="974,317.654 969.83,317.654 " />
<polyline fill="none" vector-effect="none" points="974,313.619 969.83,313.619 " />
<polyline fill="none" vector-effect="none" points="974,287.077 969.83,287.077 " />
<polyline fill="none" vector-effect="none" points="974,271.552 969.83,271.552 " />
<polyline fill="none" vector-effect="none" points="974,260.536 969.83,260.536 " />
<polyline fill="none" vector-effect="none" points="974,251.991 969.83,251.991 " />
<polyline fill="none" vector-effect="none" points="974,245.01 969.83,245.01 " />
<polyline fill="none" vector-effect="none" points="974,239.107 969.83,239.107 " />
<polyline fill="none" vector-effect="none" points="974,233.994 969.83,233.994 " />
<polyline fill="none" vector-effect="none" points="974,229.484 969.83,229.484 " />
<polyline fill="none" vector-effect="none" points="974,225.449 969.83,225.449 " />
<polyline fill="none" vector-effect="none" points="974,198.908 969.83,198.908 " />
<polyline fill="none" vector-effect="none" points="974,183.382 969.83,183.382 " />
<polyline fill="none" vector-effect="none" points="974,172.366 969.83,172.366 " />
<polyline fill="none" vector-effect="none" points="974,163.821 969.83,163.821 " />
<polyline fill="none" vector-effect="none" points="974,156.84 969.83,156.84 " />
<polyline fill="none" vector-effect="none" points="974,150.937 969.83,150.937 " />
<polyline fill="none" vector-effect="none" points="974,145.824 969.83,145.824 " />
<polyline fill="none" vector-effect="none" points="974,141.314 969.83,141.314 " />
<polyline fill="none" vector-effect="none" points="974,137.28 969.83,137.28 " />
<polyline fill="none" vector-effect="none" points="974,110.738 969.83,110.738 " />
<polyline fill="none" vector-effect="none" points="974,95.2119 969.83,95.2119 " />
<polyline fill="none" vector-effect="none" points="974,84.1961 969.83,84.1961 " />
<polyline fill="none" vector-effect="none" points="974,75.6516 969.83,75.6516 " />
<polyline fill="none" vector-effect="none" points="974,68.6702 969.83,68.6702 " />
<polyline fill="none" vector-effect="none" points="974,62.7675 969.83,62.7675 " />
<polyline fill="none" vector-effect="none" points="974,57.6543 969.83,57.6543 " />
<polyline fill="none" vector-effect="none" points="974,53.1442 969.83,53.1442 " />
<polyline fill="none" vector-effect="none" points="974,49.1098 969.83,49.1098 " />
</g>

<g fill="#212121" fill-opacity="1" stroke="#212121" stroke-opacity="1" stroke-width="1" stroke-linecap="square" stroke-linejoin="bevel" transform="matrix(0.749612,0,0,0.749463,16.0862,349.064)"
font-family="Helvetica" font-size="13" font-weight="400" font-style="normal" 
>
<text fill="#212121" fill-opacity="1" stroke="none" xml:space="preserve" x="0" y="0" font-family="Helvetica" font-size="13" font-weight="400" font-style="normal" 
 >10</text>
</g>

<g fill="#212121" fill-opacity="1" stroke="#212121" stroke-opacity="1" stroke-width="1" stroke-linecap="square" stroke-linejoin="bevel" transform="matrix(0.749612,0,0,0.749463,26.5808,344.567)"
font-family="Helvetica" font-size="10" font-weight="400" font-style="normal" 
>
<text fill="#212121" fill-opacity="1" stroke="none" xml:space="preserve" x="0" y="0" font-family="Helvetica" font-size="10" font-weight="400" font-style="normal" 
 >0</text>
</g>

<g fill="#212121" fill-opacity="1" stroke="#212121" stroke-opacity="1" stroke-width="1" stroke-linecap="square" stroke-linejoin="bevel" transform="matrix(0.749612,0,0,0.749463,16.0862,283.111)"
font-family="Helvetica" font-size="13" font-weight="400" font-style="normal" 
>
<text fill="#212121" fill-opacity="1" stroke="none" xml:space="preserve" x="0" y="0" font-family="Helvetica" font-size="13" font-weight="400" font-style="normal" 
 >10</text>
</g>

<g fill="#212121" fill-opacity="1" stroke="#212121" stroke-opacity="1" stroke-width="1" stroke-linecap="square" stroke-linejoin="bevel" transform="matrix(0.749612,0,0,0.749463,26.5808,278.614)"
font-family="Helvetica" font-size="10" font-weight="400" font-style="normal" 
>
<text fill="#212121" fill-opacity="1" stroke="none" xml:space="preserve" x="0" y="0" font-family="Helvetica" font-size="10" font-weight="400" font-style="normal" 
 >1</text>
</g>

<g fill="#212121" fill-opacity="1" stroke="#212121" stroke-opacity="1" stroke-width="1" stroke-linecap="square" stroke-linejoin="bevel" transform="matrix(0.749612,0,0,0.749463,16.0862,217.158)"
font-family="Helvetica" font-size="13" font-weight="400" font-style="normal" 
>
<text fill="#212121" fill-opacity="1" stroke="none" xml:space="preserve" x="0" y="0" font-family="Helvetica" font-size="13" font-weight="400" font-style="normal" 
 >10</text>
</g>

<g fill="#212121" fill-opacity="1" stroke="#212121" stroke-opacity="1" stroke-width="1" stroke-linecap="square" stroke-linejoin="bevel" transform="matrix(0.749612,0,0,0.749463,26.5808,212.661)"
font-family="Helvetica" font-size="10" font-weight="400" font-style="normal" 
>
<text fill="#212121" fill-opacity="1" stroke="none" xml:space="preserve" x="0" y="0" font-family="Helvetica" font-size="10" font-weight="400" font-style="normal" 
 >2</text>
</g>

<g fill="#212121" fill-opacity="1" stroke="#212121" stroke-opacity="1" stroke-width="1" stroke-linecap="square" stroke-linejoin="bevel" transform="matrix(0.749612,0,0,0.749463,16.0862,150.456)"
font-family="Helvetica" font-size="13" font-weight="400" font-style="normal" 
>
<text fill="#212121" fill-opacity="1" stroke="none" xml:space="preserve" x="0" y="0" font-family="Helvetica" font-size="13" font-weight="400" font-style="normal" 
 >10</text>
</g>

<g fill="#212121" fill-opacity="1" stroke="#212121" stroke-opacity="1" stroke-width="1" stroke-linecap="square" stroke-linejoin="bevel" transform="matrix(0.749612,0,0,0.749463,26.5808,145.959)"
font-family="Helvetica" font-size="10" font-weight="400" font-style="normal" 
>
<text fill="#212121" fill-opacity="1" stroke="none" xml:space="preserve" x="0" y="0" font-family="Helvetica" font-size="10" font-weight="400" font-style="normal" 
 >3</text>
</g>

<g fill="#212121" fill-opacity="1" stroke="#212121" stroke-opacity="1" stroke-width="1" stroke-linecap="square" stroke-linejoin="bevel" transform="matrix(0.749612,0,0,0.749463,16.0862,84.5031)"
font-family="Helvetica" font-size="13" font-weight="400" font-style="normal" 
>
<text fill="#212121" fill-opacity="1" stroke="none" xml:space="preserve" x="0" y="0" font-family="Helvetica" font-size="13" font-weight="400" font-style="normal" 
 >10</text>
</g>

<g fill="#212121" fill-opacity="1" stroke="#212121" stroke-opacity="1" stroke-width="1" stroke-linecap="square" stroke-linejoin="bevel" transform="matrix(0.749612,0,0,0.749463,26.5808,80.0063)"
font-family="Helvetica" font-size="10" font-weight="400" font-style="normal" 
>
<text fill="#212121" fill-opacity="1" stroke="none" xml:space="preserve" x="0" y="0" font-family="Helvetica" font-size="10" font-weight="400" font-style="normal" 
 >4</text>
</g>

<g fill="#212121" fill-opacity="1" stroke="#212121" stroke-opacity="1" stroke-width="1" stroke-linecap="square" stroke-linejoin="bevel" transform="matrix(0.749612,0,0,0.749463,16.0862,18.5503)"
font-family="Helvetica" font-size="13" font-weight="400" font-style="normal" 
>
<text fill="#212121" fill-opacity="1" stroke="none" xml:space="preserve" x="0" y="0" font-family="Helvetica" font-size="13" font-weight="400" font-style="normal" 
 >10</text>
</g>

<g fill="#212121" fill-opacity="1" stroke="#212121" stroke-opacity="1" stroke-width="1" stroke-linecap="square" stroke-linejoin="bevel" transform="matrix(0.749612,0,0,0.749463,26.5808,14.0535)"
font-family="Helvetica" font-size="10" font-weight="400" font-style="normal" 
>
<text fill="#212121" fill-opacity="1" stroke="none" xml:space="preserve" x="0" y="0" font-family="Helvetica" font-size="10" font-weight="400" font-style="normal" 
 >5</text>
</g>

<g fill="#212121" fill-opacity="1" stroke="#212121" stroke-opacity="1" stroke-width="1" stroke-linecap="square" stroke-linejoin="bevel" transform="matrix(0,-0.749463,0.749612,0,8.99612,257.629)"
font-family="Helvetica" font-size="14" font-weight="400" font-style="normal" 
>
<text fill="#212121" fill-opacity="1" stroke="none" xml:space="preserve" x="0" y="0" font-family="Helvetica" font-size="14" font-weight="400" font-style="normal" 
 >Doppler RMSE [Hz]</text>
</g>

<g fill="#212121" fill-opacity="1" stroke="#212121" stroke-opacity="1" stroke-width="1" stroke-linecap="square" stroke-linejoin="bevel" transform="matrix(0.749612,0,0,0.749463,331.673,8.99463)"
font-family="Helvetica" font-size="14" font-weight="700" font-style="normal" 
>
<text fill="#212121" fill-opacity="1" stroke="none" xml:space="preserve" x="0" y="0" font-family="Helvetica" font-size="14" font-weight="700" font-style="normal" 
 >OFDM</text>
</g>

<g fill="none" stroke="#268cdd" stroke-opacity="1" stroke-width="2.66667" stroke-linecap="butt" stroke-linejoin="round" transform="matrix(0.749612,0,0,0.749463,-70.1192,-23.4197)"
font-family="Helvetica" font-size="14" font-weight="700" font-style="normal" 
>
<polyline fill="none" vector-effect="none" points="140,221.061 153.9,217.628 167.8,169.177 181.7,217.603 195.6,219.253 209.5,224.118 223.4,137.437 237.3,221.129 251.2,219.307 265.1,179.217 279,235.532 292.9,223.427 306.8,180.435 320.7,225.777 334.6,223.749 348.5,232.73 362.4,244.262 376.3,240.26 390.2,255.029 404.1,260.249 418,257.528 431.9,270.074 445.8,284.789 459.7,277.126 473.6,301.143 487.5,305.909 501.4,313.651 515.3,309.154 529.2,317.187 543.1,323.785 557,336.222 570.9,336.602 584.8,348.793 598.7,354.588 612.6,365.37 626.5,373 640.4,380.849 654.3,395.124 668.2,398.602 682.1,406.753 696,414.317 709.9,417.077 723.8,426.053 737.7,425.545 751.6,430.587 765.5,440.649 779.4,440.388 793.3,451.438 807.2,448.23 821.1,457.818 835,458.028 848.9,464.865 862.8,470.231 876.7,475.265 890.6,474.592 904.5,485.283 918.4,491.36 932.3,490.145 946.2,491.23 960.1,496.449 974,506.626 " />
</g>

<g fill="none" stroke="#268cdd" stroke-opacity="1" stroke-dasharray="8,8" stroke-dashoffset="0" stroke-width="2.66667" stroke-linecap="butt" stroke-linejoin="round" transform="matrix(0.749612,0,0,0.749463,-70.1192,-23.4197)"
font-family="Helvetica" font-size="14" font-weight="700" font-style="normal" 
>
<polyline fill="none" vector-effect="none" points="140,146.246 153.9,152.54 167.8,156.417 181.7,158.87 195.6,164.911 209.5,168.035 223.4,173.642 237.3,178.598 251.2,181.208 265.1,188.296 279,194.558 292.9,197.884 306.8,203.956 317.293,49 " />
<polyline fill="none" vector-effect="none" points="323.921,49 334.6,215.838 348.5,222.064 362.4,232.726 376.3,235.772 390.2,245.077 404.1,250.581 418,263.106 431.9,273.375 445.8,270.666 459.7,286.437 473.6,299.691 487.5,305.779 501.4,315.727 515.3,315.439 529.2,320.801 543.1,328.654 557,339.748 570.9,342.641 584.8,356.42 598.7,363.894 612.6,373.924 626.5,382.532 640.4,390.168 654.3,396.774 668.2,402.604 682.1,409.503 696,415.18 709.9,419.895 723.8,424.508 737.7,428.958 751.6,433.369 765.5,437.778 779.4,442.186 793.3,446.595 807.2,451.003 821.1,455.412 835,459.82 848.9,464.229 862.8,468.637 876.7,473.046 890.6,477.454 904.5,481.862 918.4,486.271 932.3,490.679 946.2,495.088 960.1,499.496 974,503.905 " />
</g>

<g fill="none" stroke="#f57729" stroke-opacity="1" stroke-width="2.66667" stroke-linecap="butt" stroke-linejoin="round" transform="matrix(0.749612,0,0,0.749463,-70.1192,-23.4197)"
font-family="Helvetica" font-size="14" font-weight="700" font-style="normal" 
>
<polyline fill="none" vector-effect="none" points="140,166.265 153.9,201.924 167.8,166.896 181.7,192.853 195.6,143.123 209.5,193.075 223.4,128.521 237.3,203.564 251.2,216.076 265.1,210.223 279,214.618 292.9,188.887 306.8,221.238 320.7,199.177 334.6,215.857 348.5,234.791 362.4,238.641 376.3,237.701 390.2,248.014 404.1,253.36 418,252.945 431.9,271.364 445.8,284.75 459.7,280.488 473.6,301.366 487.5,305.3 501.4,313.533 515.3,308.178 529.2,314.884 543.1,320.848 557,331.902 570.9,329.11 584.8,335.966 598.7,339.825 612.6,344.835 626.5,348.721 640.4,350.238 654.3,361.602 668.2,362.694 682.1,364.074 696,376.958 709.9,372.825 723.8,377.847 737.7,385.609 751.6,390.986 765.5,394.765 779.4,395.674 793.3,403.413 807.2,409.047 821.1,415.14 835,422.14 848.9,424.196 862.8,427.878 876.7,433.95 890.6,431.971 904.5,435.829 918.4,441.993 932.3,446.077 946.2,452.588 960.1,453.329 974,459.782 " />
</g>

<g fill="none" stroke="#f57729" stroke-opacity="1" stroke-dasharray="8,8" stroke-dashoffset="0" stroke-width="2.66667" stroke-linecap="butt" stroke-linejoin="round" transform="matrix(0.749612,0,0,0.749463,-70.1192,-23.4197)"
font-family="Helvetica" font-size="14" font-weight="700" font-style="normal" 
>
<polyline fill="none" vector-effect="none" points="140,201.173 153.9,205.582 167.8,209.99 181.7,214.399 195.6,218.807 209.5,223.216 223.4,227.624 237.3,232.033 251.2,236.441 265.1,240.85 279,245.258 292.9,249.667 306.8,254.075 320.7,258.483 334.6,262.892 348.5,267.3 362.4,271.709 376.3,276.117 390.2,280.526 404.1,284.934 418,289.343 431.9,293.751 445.8,298.16 459.7,302.568 473.6,306.977 487.5,311.385 501.4,315.794 515.3,320.202 529.2,324.611 543.1,329.019 557,333.428 570.9,337.836 584.8,342.245 598.7,346.653 612.6,351.062 626.5,355.47 640.4,359.879 654.3,364.287 668.2,368.696 682.1,373.104 696,377.513 709.9,381.921 723.8,386.33 737.7,390.738 751.6,395.147 765.5,399.555 779.4,403.964 793.3,408.372 807.2,412.781 821.1,417.189 835,421.598 848.9,426.006 862.8,430.415 876.7,434.823 890.6,439.232 904.5,443.64 918.4,448.049 932.3,452.457 946.2,456.866 960.1,461.274 974,465.683 " />
</g>

<g fill="none" stroke="#ffe864" stroke-opacity="1" stroke-width="2.66667" stroke-linecap="butt" stroke-linejoin="round" transform="matrix(0.749612,0,0,0.749463,-70.1192,-23.4197)"
font-family="Helvetica" font-size="14" font-weight="700" font-style="normal" 
>
<polyline fill="none" vector-effect="none" points="140,216.358 153.9,167.638 167.8,234.258 181.7,159.029 195.6,230.769 209.5,237.709 223.4,232.341 237.3,243.297 251.2,252.021 265.1,244.73 279,258.531 292.9,278.175 306.8,276.72 320.7,286.272 334.6,301.904 348.5,309.787 362.4,309.621 376.3,316.858 390.2,320.415 404.1,321.557 418,323.544 431.9,329.498 445.8,340.222 459.7,344.284 473.6,347.611 487.5,349.341 501.4,350.872 515.3,353.37 529.2,361.261 543.1,366.738 557,366.082 570.9,377.137 584.8,381.621 598.7,387.611 612.6,387.87 626.5,394.834 640.4,392.785 654.3,401.973 668.2,406.267 682.1,409.035 696,415.827 709.9,417.96 723.8,426.262 737.7,425.585 751.6,430.587 765.5,440.649 779.4,440.388 793.3,451.438 807.2,448.23 821.1,457.818 835,458.028 848.9,464.865 862.8,470.231 876.7,475.265 890.6,474.592 904.5,485.283 918.4,491.36 932.3,490.145 946.2,491.23 960.1,496.449 974,506.626 " />
</g>

<g fill="none" stroke="#ffe864" stroke-opacity="1" stroke-dasharray="8,8" stroke-dashoffset="0" stroke-width="2.66667" stroke-linecap="butt" stroke-linejoin="round" transform="matrix(0.749612,0,0,0.749463,-70.1192,-23.4197)"
font-family="Helvetica" font-size="14" font-weight="700" font-style="normal" 
>
<polyline fill="none" vector-effect="none" points="140,239.395 153.9,243.804 167.8,248.212 181.7,252.621 195.6,257.029 209.5,261.438 223.4,265.846 237.3,270.255 251.2,274.663 265.1,279.072 279,283.48 292.9,287.889 306.8,292.297 320.7,296.706 334.6,301.114 348.5,305.523 362.4,309.931 376.3,314.34 390.2,318.748 404.1,323.157 418,327.565 431.9,331.974 445.8,336.382 459.7,340.791 473.6,345.199 487.5,349.608 501.4,354.016 515.3,358.425 529.2,362.833 543.1,367.242 557,371.65 570.9,376.059 584.8,380.467 598.7,384.876 612.6,389.284 626.5,393.693 640.4,398.101 654.3,402.51 668.2,406.918 682.1,411.327 696,415.735 709.9,420.144 723.8,424.552 737.7,428.961 751.6,433.369 765.5,437.778 779.4,442.186 793.3,446.595 807.2,451.003 821.1,455.412 835,459.82 848.9,464.229 862.8,468.637 876.7,473.046 890.6,477.454 904.5,481.862 918.4,486.271 932.3,490.679 946.2,495.088 960.1,499.496 974,503.905 " />
</g>

<g fill="#ffffff" fill-opacity="1" stroke="none" transform="matrix(7.49612e-05,0,0,7.49463e-05,-70.1192,-23.4197)"
font-family="Helvetica" font-size="14" font-weight="700" font-style="normal" 
>
<path vector-effect="none" fill-rule="evenodd" d="M8.13e+06,600000 L8.13e+06,1.5e+06 L9.63e+06,1.5e+06 L9.63e+06,600000 L8.13e+06,600000"/>
</g>

<g fill="#268cdd" fill-opacity="1" stroke="#268cdd" stroke-opacity="1" stroke-width="2.66667" stroke-linecap="butt" stroke-linejoin="round" transform="matrix(0.749612,0,0,0.749463,-70.1192,-23.4197)"
font-family="Helvetica" font-size="14" font-weight="700" font-style="normal" 
>
<polyline fill="none" vector-effect="none" points="817,68.9503 857,68.9503 " />
</g>

<g fill="#268cdd" fill-opacity="1" stroke="#268cdd" stroke-opacity="1" stroke-dasharray="8,8" stroke-dashoffset="0" stroke-width="2.66667" stroke-linecap="butt" stroke-linejoin="round" transform="matrix(0.749612,0,0,0.749463,-70.1192,-23.4197)"
font-family="Helvetica" font-size="14" font-weight="700" font-style="normal" 
>
<polyline fill="none" vector-effect="none" points="817,83.3702 857,83.3702 " />
</g>

<g fill="#f57729" fill-opacity="1" stroke="#f57729" stroke-opacity="1" stroke-width="2.66667" stroke-linecap="butt" stroke-linejoin="round" transform="matrix(0.749612,0,0,0.749463,-70.1192,-23.4197)"
font-family="Helvetica" font-size="14" font-weight="700" font-style="normal" 
>
<polyline fill="none" vector-effect="none" points="817,97.7901 857,97.7901 " />
</g>

<g fill="#f57729" fill-opacity="1" stroke="#f57729" stroke-opacity="1" stroke-dasharray="8,8" stroke-dashoffset="0" stroke-width="2.66667" stroke-linecap="butt" stroke-linejoin="round" transform="matrix(0.749612,0,0,0.749463,-70.1192,-23.4197)"
font-family="Helvetica" font-size="14" font-weight="700" font-style="normal" 
>
<polyline fill="none" vector-effect="none" points="817,112.21 857,112.21 " />
</g>

<g fill="#ffe864" fill-opacity="1" stroke="#ffe864" stroke-opacity="1" stroke-width="2.66667" stroke-linecap="butt" stroke-linejoin="round" transform="matrix(0.749612,0,0,0.749463,-70.1192,-23.4197)"
font-family="Helvetica" font-size="14" font-weight="700" font-style="normal" 
>
<polyline fill="none" vector-effect="none" points="817,126.63 857,126.63 " />
</g>

<g fill="#ffe864" fill-opacity="1" stroke="#ffe864" stroke-opacity="1" stroke-dasharray="8,8" stroke-dashoffset="0" stroke-width="2.66667" stroke-linecap="butt" stroke-linejoin="round" transform="matrix(0.749612,0,0,0.749463,-70.1192,-23.4197)"
font-family="Helvetica" font-size="14" font-weight="700" font-style="normal" 
>
<polyline fill="none" vector-effect="none" points="817,141.05 857,141.05 " />
</g>

<g fill="#212121" fill-opacity="1" stroke="#212121" stroke-opacity="1" stroke-width="1" stroke-linecap="square" stroke-linejoin="bevel" transform="matrix(0.749612,0,0,0.749463,574.547,31.2539)"
font-family="Helvetica" font-size="12" font-weight="400" font-style="normal" 
>
<text fill="#212121" fill-opacity="1" stroke="none" xml:space="preserve" x="0" y="0" font-family="Helvetica" font-size="12" font-weight="400" font-style="normal" 
 >Data Aided MLE</text>
</g>

<g fill="#212121" fill-opacity="1" stroke="#212121" stroke-opacity="1" stroke-width="1" stroke-linecap="square" stroke-linejoin="bevel" transform="matrix(0.749612,0,0,0.749463,574.547,42.0611)"
font-family="Helvetica" font-size="12" font-weight="400" font-style="normal" 
>
<text fill="#212121" fill-opacity="1" stroke="none" xml:space="preserve" x="0" y="0" font-family="Helvetica" font-size="12" font-weight="400" font-style="normal" 
 >Data Aided MCRB</text>
</g>

<g fill="#212121" fill-opacity="1" stroke="#212121" stroke-opacity="1" stroke-width="1" stroke-linecap="square" stroke-linejoin="bevel" transform="matrix(0.749612,0,0,0.749463,574.547,52.8683)"
font-family="Helvetica" font-size="12" font-weight="400" font-style="normal" 
>
<text fill="#212121" fill-opacity="1" stroke="none" xml:space="preserve" x="0" y="0" font-family="Helvetica" font-size="12" font-weight="400" font-style="normal" 
 >Pilot Only MLE</text>
</g>

<g fill="#212121" fill-opacity="1" stroke="#212121" stroke-opacity="1" stroke-width="1" stroke-linecap="square" stroke-linejoin="bevel" transform="matrix(0.749612,0,0,0.749463,574.547,63.6754)"
font-family="Helvetica" font-size="12" font-weight="400" font-style="normal" 
>
<text fill="#212121" fill-opacity="1" stroke="none" xml:space="preserve" x="0" y="0" font-family="Helvetica" font-size="12" font-weight="400" font-style="normal" 
 >Pilot Only CRB</text>
</g>

<g fill="#212121" fill-opacity="1" stroke="#212121" stroke-opacity="1" stroke-width="1" stroke-linecap="square" stroke-linejoin="bevel" transform="matrix(0.749612,0,0,0.749463,574.547,74.4826)"
font-family="Helvetica" font-size="12" font-weight="400" font-style="normal" 
>
<text fill="#212121" fill-opacity="1" stroke="none" xml:space="preserve" x="0" y="0" font-family="Helvetica" font-size="12" font-weight="400" font-style="normal" 
 >Full Data MLE</text>
</g>

<g fill="#212121" fill-opacity="1" stroke="#212121" stroke-opacity="1" stroke-width="1" stroke-linecap="square" stroke-linejoin="bevel" transform="matrix(0.749612,0,0,0.749463,574.547,85.2898)"
font-family="Helvetica" font-size="12" font-weight="400" font-style="normal" 
>
<text fill="#212121" fill-opacity="1" stroke="none" xml:space="preserve" x="0" y="0" font-family="Helvetica" font-size="12" font-weight="400" font-style="normal" 
 >Full Data CRB</text>
</g>

<g fill="none" stroke="#212121" stroke-opacity="1" stroke-width="0.666667" stroke-linecap="butt" stroke-linejoin="miter" stroke-miterlimit="2" transform="matrix(0.749612,0,0,0.749463,-70.1192,-23.4197)"
font-family="Helvetica" font-size="12" font-weight="400" font-style="normal" 
>
<path vector-effect="none" fill-rule="evenodd" d="M813,150 L813,60 L963,60 L963,150 L813,150"/>
</g>
</g>
</svg>
