<?xml version="1.0" encoding="UTF-8" standalone="no"?>
<svg width="236.361mm" height="155.222mm"
 viewBox="0 0 670 440"
 xmlns="http://www.w3.org/2000/svg" xmlns:xlink="http://www.w3.org/1999/xlink"  version="1.2" baseProfile="tiny">
<title>Qt SVG Document</title>
<desc>MATLAB, The MathWorks, Inc. Version 25.2.0.3055257 R2025b Update 2</desc>
<defs>
</defs>
<g fill="none" stroke="black" stroke-width="1" fill-rule="evenodd" stroke-linecap="square" stroke-linejoin="bevel" >

<g fill="#ffffff" fill-opacity="1" stroke="none" transform="matrix(0.749587,0,0,0.749463,-67.8446,-23.4197)"
font-family="MS Shell Dlg 2" font-size="8.25" font-weight="400" font-style="normal" 
>
<path vector-effect="none" fill-rule="evenodd" d="M89,30 L983,30 L983,618 L89,618 L89,30"/>
</g>

<g fill="#ffffff" fill-opacity="1" stroke="none" transform="matrix(7.49587e-05,0,0,7.49463e-05,-67.8446,-23.4197)"
font-family="MS Shell Dlg 2" font-size="8.25" font-weight="400" font-style="normal" 
>
<path vector-effect="none" fill-rule="evenodd" d="M1.4e+06,490000 L1.4e+06,5.78e+06 L9.74e+06,5.78e+06 L9.74e+06,490000 L1.4e+06,490000"/>
</g>

<g fill="#212121" fill-opacity="0.14902" stroke="#212121" stroke-opacity="0.14902" stroke-width="0.666667" stroke-linecap="butt" stroke-linejoin="round" transform="matrix(0.749587,0,0,0.749463,-67.8446,-23.4197)"
font-family="MS Shell Dlg 2" font-size="8.25" font-weight="400" font-style="normal" 
>
<polyline fill="none" vector-effect="none" points="140,578 140,49 " />
<polyline fill="none" vector-effect="none" points="279,578 279,49 " />
<polyline fill="none" vector-effect="none" points="418,578 418,49 " />
<polyline fill="none" vector-effect="none" points="557,578 557,49 " />
<polyline fill="none" vector-effect="none" points="696,578 696,49 " />
<polyline fill="none" vector-effect="none" points="835,578 835,49 " />
<polyline fill="none" vector-effect="none" points="974,578 974,49 " />
</g>

<g fill="#212121" fill-opacity="0.14902" stroke="#212121" stroke-opacity="0.14902" stroke-dasharray="1,3" stroke-dashoffset="0" stroke-width="0.666667" stroke-linecap="butt" stroke-linejoin="round" transform="matrix(0.749587,0,0,0.749463,-67.8446,-23.4197)"
font-family="MS Shell Dlg 2" font-size="8.25" font-weight="400" font-style="normal" 
>
<polyline fill="none" vector-effect="none" points="974,551.459 140,551.459 " />
<polyline fill="none" vector-effect="none" points="974,535.934 140,535.934 " />
<polyline fill="none" vector-effect="none" points="974,524.918 140,524.918 " />
<polyline fill="none" vector-effect="none" points="974,516.374 140,516.374 " />
<polyline fill="none" vector-effect="none" points="974,509.393 140,509.393 " />
<polyline fill="none" vector-effect="none" points="974,503.491 140,503.491 " />
<polyline fill="none" vector-effect="none" points="974,498.378 140,498.378 " />
<polyline fill="none" vector-effect="none" points="974,493.868 140,493.868 " />
<polyline fill="none" vector-effect="none" points="974,463.293 140,463.293 " />
<polyline fill="none" vector-effect="none" points="974,447.767 140,447.767 " />
<polyline fill="none" vector-effect="none" points="974,436.752 140,436.752 " />
<polyline fill="none" vector-effect="none" points="974,428.207 140,428.207 " />
<polyline fill="none" vector-effect="none" points="974,421.226 140,421.226 " />
<polyline fill="none" vector-effect="none" points="974,415.324 140,415.324 " />
<polyline fill="none" vector-effect="none" points="974,410.211 140,410.211 " />
<polyline fill="none" vector-effect="none" points="974,405.701 140,405.701 " />
<polyline fill="none" vector-effect="none" points="974,375.126 140,375.126 " />
<polyline fill="none" vector-effect="none" points="974,359.6 140,359.6 " />
<polyline fill="none" vector-effect="none" points="974,348.585 140,348.585 " />
<polyline fill="none" vector-effect="none" points="974,340.041 140,340.041 " />
<polyline fill="none" vector-effect="none" points="974,333.06 140,333.06 " />
<polyline fill="none" vector-effect="none" points="974,327.157 140,327.157 " />
<polyline fill="none" vector-effect="none" points="974,322.044 140,322.044 " />
<polyline fill="none" vector-effect="none" points="974,317.534 140,317.534 " />
<polyline fill="none" vector-effect="none" points="974,286.959 140,286.959 " />
<polyline fill="none" vector-effect="none" points="974,271.434 140,271.434 " />
<polyline fill="none" vector-effect="none" points="974,260.418 140,260.418 " />
<polyline fill="none" vector-effect="none" points="974,251.874 140,251.874 " />
<polyline fill="none" vector-effect="none" points="974,244.893 140,244.893 " />
<polyline fill="none" vector-effect="none" points="974,238.991 140,238.991 " />
<polyline fill="none" vector-effect="none" points="974,233.878 140,233.878 " />
<polyline fill="none" vector-effect="none" points="974,229.368 140,229.368 " />
<polyline fill="none" vector-effect="none" points="974,198.793 140,198.793 " />
<polyline fill="none" vector-effect="none" points="974,183.267 140,183.267 " />
<polyline fill="none" vector-effect="none" points="974,172.252 140,172.252 " />
<polyline fill="none" vector-effect="none" points="974,163.707 140,163.707 " />
<polyline fill="none" vector-effect="none" points="974,156.726 140,156.726 " />
<polyline fill="none" vector-effect="none" points="974,150.824 140,150.824 " />
<polyline fill="none" vector-effect="none" points="974,145.711 140,145.711 " />
<polyline fill="none" vector-effect="none" points="974,141.201 140,141.201 " />
<polyline fill="none" vector-effect="none" points="974,110.626 140,110.626 " />
<polyline fill="none" vector-effect="none" points="974,95.1005 140,95.1005 " />
<polyline fill="none" vector-effect="none" points="974,84.085 140,84.085 " />
<polyline fill="none" vector-effect="none" points="974,75.5408 140,75.5408 " />
<polyline fill="none" vector-effect="none" points="974,68.5597 140,68.5597 " />
<polyline fill="none" vector-effect="none" points="974,62.6572 140,62.6572 " />
<polyline fill="none" vector-effect="none" points="974,57.5442 140,57.5442 " />
<polyline fill="none" vector-effect="none" points="974,53.0343 140,53.0343 " />
</g>

<g fill="#212121" fill-opacity="0.14902" stroke="#212121" stroke-opacity="0.14902" stroke-width="0.666667" stroke-linecap="butt" stroke-linejoin="round" transform="matrix(0.749587,0,0,0.749463,-67.8446,-23.4197)"
font-family="MS Shell Dlg 2" font-size="8.25" font-weight="400" font-style="normal" 
>
<polyline fill="none" vector-effect="none" points="974,578 140,578 " />
<polyline fill="none" vector-effect="none" points="974,489.833 140,489.833 " />
<polyline fill="none" vector-effect="none" points="974,401.667 140,401.667 " />
<polyline fill="none" vector-effect="none" points="974,313.5 140,313.5 " />
<polyline fill="none" vector-effect="none" points="974,225.333 140,225.333 " />
<polyline fill="none" vector-effect="none" points="974,137.167 140,137.167 " />
<polyline fill="none" vector-effect="none" points="974,49 140,49 " />
</g>

<g fill="#212121" fill-opacity="1" stroke="#212121" stroke-opacity="1" stroke-width="0.666667" stroke-linecap="square" stroke-linejoin="round" transform="matrix(0.749587,0,0,0.749463,-67.8446,-23.4197)"
font-family="MS Shell Dlg 2" font-size="8.25" font-weight="400" font-style="normal" 
>
<polyline fill="none" vector-effect="none" points="140,578 974,578 " />
<polyline fill="none" vector-effect="none" points="140,49 974,49 " />
<polyline fill="none" vector-effect="none" points="140,578 140,569.66 " />
<polyline fill="none" vector-effect="none" points="279,578 279,569.66 " />
<polyline fill="none" vector-effect="none" points="418,578 418,569.66 " />
<polyline fill="none" vector-effect="none" points="557,578 557,569.66 " />
<polyline fill="none" vector-effect="none" points="696,578 696,569.66 " />
<polyline fill="none" vector-effect="none" points="835,578 835,569.66 " />
<polyline fill="none" vector-effect="none" points="974,578 974,569.66 " />
<polyline fill="none" vector-effect="none" points="140,49 140,57.34 " />
<polyline fill="none" vector-effect="none" points="279,49 279,57.34 " />
<polyline fill="none" vector-effect="none" points="418,49 418,57.34 " />
<polyline fill="none" vector-effect="none" points="557,49 557,57.34 " />
<polyline fill="none" vector-effect="none" points="696,49 696,57.34 " />
<polyline fill="none" vector-effect="none" points="835,49 835,57.34 " />
<polyline fill="none" vector-effect="none" points="974,49 974,57.34 " />
</g>

<g fill="#212121" fill-opacity="1" stroke="#212121" stroke-opacity="1" stroke-width="1" stroke-linecap="square" stroke-linejoin="bevel" transform="matrix(0.749587,0,0,0.749463,30.3513,422.761)"
font-family="Helvetica" font-size="13" font-weight="400" font-style="normal" 
>
<text fill="#212121" fill-opacity="1" stroke="none" xml:space="preserve" x="0" y="0" font-family="Helvetica" font-size="13" font-weight="400" font-style="normal" 
 >-30</text>
</g>

<g fill="#212121" fill-opacity="1" stroke="#212121" stroke-opacity="1" stroke-width="1" stroke-linecap="square" stroke-linejoin="bevel" transform="matrix(0.749587,0,0,0.749463,134.544,422.761)"
font-family="Helvetica" font-size="13" font-weight="400" font-style="normal" 
>
<text fill="#212121" fill-opacity="1" stroke="none" xml:space="preserve" x="0" y="0" font-family="Helvetica" font-size="13" font-weight="400" font-style="normal" 
 >-20</text>
</g>

<g fill="#212121" fill-opacity="1" stroke="#212121" stroke-opacity="1" stroke-width="1" stroke-linecap="square" stroke-linejoin="bevel" transform="matrix(0.749587,0,0,0.749463,238.736,422.761)"
font-family="Helvetica" font-size="13" font-weight="400" font-style="normal" 
>
<text fill="#212121" fill-opacity="1" stroke="none" xml:space="preserve" x="0" y="0" font-family="Helvetica" font-size="13" font-weight="400" font-style="normal" 
 >-10</text>
</g>

<g fill="#212121" fill-opacity="1" stroke="#212121" stroke-opacity="1" stroke-width="1" stroke-linecap="square" stroke-linejoin="bevel" transform="matrix(0.749587,0,0,0.749463,347.052,422.761)"
font-family="Helvetica" font-size="13" font-weight="400" font-style="normal" 
>
<text fill="#212121" fill-opacity="1" stroke="none" xml:space="preserve" x="0" y="0" font-family="Helvetica" font-size="13" font-weight="400" font-style="normal" 
 >0</text>
</g>

<g fill="#212121" fill-opacity="1" stroke="#212121" stroke-opacity="1" stroke-width="1" stroke-linecap="square" stroke-linejoin="bevel" transform="matrix(0.749587,0,0,0.749463,448.621,422.761)"
font-family="Helvetica" font-size="13" font-weight="400" font-style="normal" 
>
<text fill="#212121" fill-opacity="1" stroke="none" xml:space="preserve" x="0" y="0" font-family="Helvetica" font-size="13" font-weight="400" font-style="normal" 
 >10</text>
</g>

<g fill="#212121" fill-opacity="1" stroke="#212121" stroke-opacity="1" stroke-width="1" stroke-linecap="square" stroke-linejoin="bevel" transform="matrix(0.749587,0,0,0.749463,552.813,422.761)"
font-family="Helvetica" font-size="13" font-weight="400" font-style="normal" 
>
<text fill="#212121" fill-opacity="1" stroke="none" xml:space="preserve" x="0" y="0" font-family="Helvetica" font-size="13" font-weight="400" font-style="normal" 
 >20</text>
</g>

<g fill="#212121" fill-opacity="1" stroke="#212121" stroke-opacity="1" stroke-width="1" stroke-linecap="square" stroke-linejoin="bevel" transform="matrix(0.749587,0,0,0.749463,657.006,422.761)"
font-family="Helvetica" font-size="13" font-weight="400" font-style="normal" 
>
<text fill="#212121" fill-opacity="1" stroke="none" xml:space="preserve" x="0" y="0" font-family="Helvetica" font-size="13" font-weight="400" font-style="normal" 
 >30</text>
</g>

<g fill="#212121" fill-opacity="1" stroke="#212121" stroke-opacity="1" stroke-width="1" stroke-linecap="square" stroke-linejoin="bevel" transform="matrix(0.749587,0,0,0.749463,327.937,435.752)"
font-family="Helvetica" font-size="14" font-weight="400" font-style="normal" 
>
<text fill="#212121" fill-opacity="1" stroke="none" xml:space="preserve" x="0" y="0" font-family="Helvetica" font-size="14" font-weight="400" font-style="normal" 
 >SNR [dB]</text>
</g>

<g fill="#212121" fill-opacity="1" stroke="#212121" stroke-opacity="1" stroke-width="0.666667" stroke-linecap="square" stroke-linejoin="round" transform="matrix(0.749587,0,0,0.749463,-67.8446,-23.4197)"
font-family="Helvetica" font-size="14" font-weight="400" font-style="normal" 
>
<polyline fill="none" vector-effect="none" points="140,578 140,49 " />
<polyline fill="none" vector-effect="none" points="974,578 974,49 " />
<polyline fill="none" vector-effect="none" points="140,578 148.34,578 " />
<polyline fill="none" vector-effect="none" points="140,489.833 148.34,489.833 " />
<polyline fill="none" vector-effect="none" points="140,401.667 148.34,401.667 " />
<polyline fill="none" vector-effect="none" points="140,313.5 148.34,313.5 " />
<polyline fill="none" vector-effect="none" points="140,225.333 148.34,225.333 " />
<polyline fill="none" vector-effect="none" points="140,137.167 148.34,137.167 " />
<polyline fill="none" vector-effect="none" points="140,49 148.34,49 " />
<polyline fill="none" vector-effect="none" points="974,578 965.66,578 " />
<polyline fill="none" vector-effect="none" points="974,489.833 965.66,489.833 " />
<polyline fill="none" vector-effect="none" points="974,401.667 965.66,401.667 " />
<polyline fill="none" vector-effect="none" points="974,313.5 965.66,313.5 " />
<polyline fill="none" vector-effect="none" points="974,225.333 965.66,225.333 " />
<polyline fill="none" vector-effect="none" points="974,137.167 965.66,137.167 " />
<polyline fill="none" vector-effect="none" points="974,49 965.66,49 " />
<polyline fill="none" vector-effect="none" points="140,578 144.17,578 " />
<polyline fill="none" vector-effect="none" points="140,551.459 144.17,551.459 " />
<polyline fill="none" vector-effect="none" points="140,535.934 144.17,535.934 " />
<polyline fill="none" vector-effect="none" points="140,524.918 144.17,524.918 " />
<polyline fill="none" vector-effect="none" points="140,516.374 144.17,516.374 " />
<polyline fill="none" vector-effect="none" points="140,509.393 144.17,509.393 " />
<polyline fill="none" vector-effect="none" points="140,503.491 144.17,503.491 " />
<polyline fill="none" vector-effect="none" points="140,498.378 144.17,498.378 " />
<polyline fill="none" vector-effect="none" points="140,493.868 144.17,493.868 " />
<polyline fill="none" vector-effect="none" points="140,489.833 144.17,489.833 " />
<polyline fill="none" vector-effect="none" points="140,463.293 144.17,463.293 " />
<polyline fill="none" vector-effect="none" points="140,447.767 144.17,447.767 " />
<polyline fill="none" vector-effect="none" points="140,436.752 144.17,436.752 " />
<polyline fill="none" vector-effect="none" points="140,428.207 144.17,428.207 " />
<polyline fill="none" vector-effect="none" points="140,421.226 144.17,421.226 " />
<polyline fill="none" vector-effect="none" points="140,415.324 144.17,415.324 " />
<polyline fill="none" vector-effect="none" points="140,410.211 144.17,410.211 " />
<polyline fill="none" vector-effect="none" points="140,405.701 144.17,405.701 " />
<polyline fill="none" vector-effect="none" points="140,401.667 144.17,401.667 " />
<polyline fill="none" vector-effect="none" points="140,375.126 144.17,375.126 " />
<polyline fill="none" vector-effect="none" points="140,359.6 144.17,359.6 " />
<polyline fill="none" vector-effect="none" points="140,348.585 144.17,348.585 " />
<polyline fill="none" vector-effect="none" points="140,340.041 144.17,340.041 " />
<polyline fill="none" vector-effect="none" points="140,333.06 144.17,333.06 " />
<polyline fill="none" vector-effect="none" points="140,327.157 144.17,327.157 " />
<polyline fill="none" vector-effect="none" points="140,322.044 144.17,322.044 " />
<polyline fill="none" vector-effect="none" points="140,317.534 144.17,317.534 " />
<polyline fill="none" vector-effect="none" points="140,313.5 144.17,313.5 " />
<polyline fill="none" vector-effect="none" points="140,286.959 144.17,286.959 " />
<polyline fill="none" vector-effect="none" points="140,271.434 144.17,271.434 " />
<polyline fill="none" vector-effect="none" points="140,260.418 144.17,260.418 " />
<polyline fill="none" vector-effect="none" points="140,251.874 144.17,251.874 " />
<polyline fill="none" vector-effect="none" points="140,244.893 144.17,244.893 " />
<polyline fill="none" vector-effect="none" points="140,238.991 144.17,238.991 " />
<polyline fill="none" vector-effect="none" points="140,233.878 144.17,233.878 " />
<polyline fill="none" vector-effect="none" points="140,229.368 144.17,229.368 " />
<polyline fill="none" vector-effect="none" points="140,225.333 144.17,225.333 " />
<polyline fill="none" vector-effect="none" points="140,198.793 144.17,198.793 " />
<polyline fill="none" vector-effect="none" points="140,183.267 144.17,183.267 " />
<polyline fill="none" vector-effect="none" points="140,172.252 144.17,172.252 " />
<polyline fill="none" vector-effect="none" points="140,163.707 144.17,163.707 " />
<polyline fill="none" vector-effect="none" points="140,156.726 144.17,156.726 " />
<polyline fill="none" vector-effect="none" points="140,150.824 144.17,150.824 " />
<polyline fill="none" vector-effect="none" points="140,145.711 144.17,145.711 " />
<polyline fill="none" vector-effect="none" points="140,141.201 144.17,141.201 " />
<polyline fill="none" vector-effect="none" points="140,137.167 144.17,137.167 " />
<polyline fill="none" vector-effect="none" points="140,110.626 144.17,110.626 " />
<polyline fill="none" vector-effect="none" points="140,95.1005 144.17,95.1005 " />
<polyline fill="none" vector-effect="none" points="140,84.085 144.17,84.085 " />
<polyline fill="none" vector-effect="none" points="140,75.5408 144.17,75.5408 " />
<polyline fill="none" vector-effect="none" points="140,68.5597 144.17,68.5597 " />
<polyline fill="none" vector-effect="none" points="140,62.6572 144.17,62.6572 " />
<polyline fill="none" vector-effect="none" points="140,57.5442 144.17,57.5442 " />
<polyline fill="none" vector-effect="none" points="140,53.0343 144.17,53.0343 " />
<polyline fill="none" vector-effect="none" points="140,49 144.17,49 " />
<polyline fill="none" vector-effect="none" points="974,578 969.83,578 " />
<polyline fill="none" vector-effect="none" points="974,551.459 969.83,551.459 " />
<polyline fill="none" vector-effect="none" points="974,535.934 969.83,535.934 " />
<polyline fill="none" vector-effect="none" points="974,524.918 969.83,524.918 " />
<polyline fill="none" vector-effect="none" points="974,516.374 969.83,516.374 " />
<polyline fill="none" vector-effect="none" points="974,509.393 969.83,509.393 " />
<polyline fill="none" vector-effect="none" points="974,503.491 969.83,503.491 " />
<polyline fill="none" vector-effect="none" points="974,498.378 969.83,498.378 " />
<polyline fill="none" vector-effect="none" points="974,493.868 969.83,493.868 " />
<polyline fill="none" vector-effect="none" points="974,489.833 969.83,489.833 " />
<polyline fill="none" vector-effect="none" points="974,463.293 969.83,463.293 " />
<polyline fill="none" vector-effect="none" points="974,447.767 969.83,447.767 " />
<polyline fill="none" vector-effect="none" points="974,436.752 969.83,436.752 " />
<polyline fill="none" vector-effect="none" points="974,428.207 969.83,428.207 " />
<polyline fill="none" vector-effect="none" points="974,421.226 969.83,421.226 " />
<polyline fill="none" vector-effect="none" points="974,415.324 969.83,415.324 " />
<polyline fill="none" vector-effect="none" points="974,410.211 969.83,410.211 " />
<polyline fill="none" vector-effect="none" points="974,405.701 969.83,405.701 " />
<polyline fill="none" vector-effect="none" points="974,401.667 969.83,401.667 " />
<polyline fill="none" vector-effect="none" points="974,375.126 969.83,375.126 " />
<polyline fill="none" vector-effect="none" points="974,359.6 969.83,359.6 " />
<polyline fill="none" vector-effect="none" points="974,348.585 969.83,348.585 " />
<polyline fill="none" vector-effect="none" points="974,340.041 969.83,340.041 " />
<polyline fill="none" vector-effect="none" points="974,333.06 969.83,333.06 " />
<polyline fill="none" vector-effect="none" points="974,327.157 969.83,327.157 " />
<polyline fill="none" vector-effect="none" points="974,322.044 969.83,322.044 " />
<polyline fill="none" vector-effect="none" points="974,317.534 969.83,317.534 " />
<polyline fill="none" vector-effect="none" points="974,313.5 969.83,313.5 " />
<polyline fill="none" vector-effect="none" points="974,286.959 969.83,286.959 " />
<polyline fill="none" vector-effect="none" points="974,271.434 969.83,271.434 " />
<polyline fill="none" vector-effect="none" points="974,260.418 969.83,260.418 " />
<polyline fill="none" vector-effect="none" points="974,251.874 969.83,251.874 " />
<polyline fill="none" vector-effect="none" points="974,244.893 969.83,244.893 " />
<polyline fill="none" vector-effect="none" points="974,238.991 969.83,238.991 " />
<polyline fill="none" vector-effect="none" points="974,233.878 969.83,233.878 " />
<polyline fill="none" vector-effect="none" points="974,229.368 969.83,229.368 " />
<polyline fill="none" vector-effect="none" points="974,225.333 969.83,225.333 " />
<polyline fill="none" vector-effect="none" points="974,198.793 969.83,198.793 " />
<polyline fill="none" vector-effect="none" points="974,183.267 969.83,183.267 " />
<polyline fill="none" vector-effect="none" points="974,172.252 969.83,172.252 " />
<polyline fill="none" vector-effect="none" points="974,163.707 969.83,163.707 " />
<polyline fill="none" vector-effect="none" points="974,156.726 969.83,156.726 " />
<polyline fill="none" vector-effect="none" points="974,150.824 969.83,150.824 " />
<polyline fill="none" vector-effect="none" points="974,145.711 969.83,145.711 " />
<polyline fill="none" vector-effect="none" points="974,141.201 969.83,141.201 " />
<polyline fill="none" vector-effect="none" points="974,137.167 969.83,137.167 " />
<polyline fill="none" vector-effect="none" points="974,110.626 969.83,110.626 " />
<polyline fill="none" vector-effect="none" points="974,95.1005 969.83,95.1005 " />
<polyline fill="none" vector-effect="none" points="974,84.085 969.83,84.085 " />
<polyline fill="none" vector-effect="none" points="974,75.5408 969.83,75.5408 " />
<polyline fill="none" vector-effect="none" points="974,68.5597 969.83,68.5597 " />
<polyline fill="none" vector-effect="none" points="974,62.6572 969.83,62.6572 " />
<polyline fill="none" vector-effect="none" points="974,57.5442 969.83,57.5442 " />
<polyline fill="none" vector-effect="none" points="974,53.0343 969.83,53.0343 " />
<polyline fill="none" vector-effect="none" points="974,49 969.83,49 " />
</g>

<g fill="#212121" fill-opacity="1" stroke="#212121" stroke-opacity="1" stroke-width="1" stroke-linecap="square" stroke-linejoin="bevel" transform="matrix(0.749587,0,0,0.749463,16.1091,415.016)"
font-family="Helvetica" font-size="13" font-weight="400" font-style="normal" 
>
<text fill="#212121" fill-opacity="1" stroke="none" xml:space="preserve" x="0" y="0" font-family="Helvetica" font-size="13" font-weight="400" font-style="normal" 
 >10</text>
</g>

<g fill="#212121" fill-opacity="1" stroke="#212121" stroke-opacity="1" stroke-width="1" stroke-linecap="square" stroke-linejoin="bevel" transform="matrix(0.749587,0,0,0.749463,26.6034,410.52)"
font-family="Helvetica" font-size="10" font-weight="400" font-style="normal" 
>
<text fill="#212121" fill-opacity="1" stroke="none" xml:space="preserve" x="0" y="0" font-family="Helvetica" font-size="10" font-weight="400" font-style="normal" 
 >-1</text>
</g>

<g fill="#212121" fill-opacity="1" stroke="#212121" stroke-opacity="1" stroke-width="1" stroke-linecap="square" stroke-linejoin="bevel" transform="matrix(0.749587,0,0,0.749463,18.3579,349.064)"
font-family="Helvetica" font-size="13" font-weight="400" font-style="normal" 
>
<text fill="#212121" fill-opacity="1" stroke="none" xml:space="preserve" x="0" y="0" font-family="Helvetica" font-size="13" font-weight="400" font-style="normal" 
 >10</text>
</g>

<g fill="#212121" fill-opacity="1" stroke="#212121" stroke-opacity="1" stroke-width="1" stroke-linecap="square" stroke-linejoin="bevel" transform="matrix(0.749587,0,0,0.749463,28.8521,344.567)"
font-family="Helvetica" font-size="10" font-weight="400" font-style="normal" 
>
<text fill="#212121" fill-opacity="1" stroke="none" xml:space="preserve" x="0" y="0" font-family="Helvetica" font-size="10" font-weight="400" font-style="normal" 
 >0</text>
</g>

<g fill="#212121" fill-opacity="1" stroke="#212121" stroke-opacity="1" stroke-width="1" stroke-linecap="square" stroke-linejoin="bevel" transform="matrix(0.749587,0,0,0.749463,18.3579,283.111)"
font-family="Helvetica" font-size="13" font-weight="400" font-style="normal" 
>
<text fill="#212121" fill-opacity="1" stroke="none" xml:space="preserve" x="0" y="0" font-family="Helvetica" font-size="13" font-weight="400" font-style="normal" 
 >10</text>
</g>

<g fill="#212121" fill-opacity="1" stroke="#212121" stroke-opacity="1" stroke-width="1" stroke-linecap="square" stroke-linejoin="bevel" transform="matrix(0.749587,0,0,0.749463,28.8521,278.614)"
font-family="Helvetica" font-size="10" font-weight="400" font-style="normal" 
>
<text fill="#212121" fill-opacity="1" stroke="none" xml:space="preserve" x="0" y="0" font-family="Helvetica" font-size="10" font-weight="400" font-style="normal" 
 >1</text>
</g>

<g fill="#212121" fill-opacity="1" stroke="#212121" stroke-opacity="1" stroke-width="1" stroke-linecap="square" stroke-linejoin="bevel" transform="matrix(0.749587,0,0,0.749463,18.3579,217.158)"
font-family="Helvetica" font-size="13" font-weight="400" font-style="normal" 
>
<text fill="#212121" fill-opacity="1" stroke="none" xml:space="preserve" x="0" y="0" font-family="Helvetica" font-size="13" font-weight="400" font-style="normal" 
 >10</text>
</g>

<g fill="#212121" fill-opacity="1" stroke="#212121" stroke-opacity="1" stroke-width="1" stroke-linecap="square" stroke-linejoin="bevel" transform="matrix(0.749587,0,0,0.749463,28.8521,212.661)"
font-family="Helvetica" font-size="10" font-weight="400" font-style="normal" 
>
<text fill="#212121" fill-opacity="1" stroke="none" xml:space="preserve" x="0" y="0" font-family="Helvetica" font-size="10" font-weight="400" font-style="normal" 
 >2</text>
</g>

<g fill="#212121" fill-opacity="1" stroke="#212121" stroke-opacity="1" stroke-width="1" stroke-linecap="square" stroke-linejoin="bevel" transform="matrix(0.749587,0,0,0.749463,18.3579,150.456)"
font-family="Helvetica" font-size="13" font-weight="400" font-style="normal" 
>
<text fill="#212121" fill-opacity="1" stroke="none" xml:space="preserve" x="0" y="0" font-family="Helvetica" font-size="13" font-weight="400" font-style="normal" 
 >10</text>
</g>

<g fill="#212121" fill-opacity="1" stroke="#212121" stroke-opacity="1" stroke-width="1" stroke-linecap="square" stroke-linejoin="bevel" transform="matrix(0.749587,0,0,0.749463,28.8521,145.959)"
font-family="Helvetica" font-size="10" font-weight="400" font-style="normal" 
>
<text fill="#212121" fill-opacity="1" stroke="none" xml:space="preserve" x="0" y="0" font-family="Helvetica" font-size="10" font-weight="400" font-style="normal" 
 >3</text>
</g>

<g fill="#212121" fill-opacity="1" stroke="#212121" stroke-opacity="1" stroke-width="1" stroke-linecap="square" stroke-linejoin="bevel" transform="matrix(0.749587,0,0,0.749463,18.3579,84.5031)"
font-family="Helvetica" font-size="13" font-weight="400" font-style="normal" 
>
<text fill="#212121" fill-opacity="1" stroke="none" xml:space="preserve" x="0" y="0" font-family="Helvetica" font-size="13" font-weight="400" font-style="normal" 
 >10</text>
</g>

<g fill="#212121" fill-opacity="1" stroke="#212121" stroke-opacity="1" stroke-width="1" stroke-linecap="square" stroke-linejoin="bevel" transform="matrix(0.749587,0,0,0.749463,28.8521,80.0063)"
font-family="Helvetica" font-size="10" font-weight="400" font-style="normal" 
>
<text fill="#212121" fill-opacity="1" stroke="none" xml:space="preserve" x="0" y="0" font-family="Helvetica" font-size="10" font-weight="400" font-style="normal" 
 >4</text>
</g>

<g fill="#212121" fill-opacity="1" stroke="#212121" stroke-opacity="1" stroke-width="1" stroke-linecap="square" stroke-linejoin="bevel" transform="matrix(0.749587,0,0,0.749463,18.3579,18.5503)"
font-family="Helvetica" font-size="13" font-weight="400" font-style="normal" 
>
<text fill="#212121" fill-opacity="1" stroke="none" xml:space="preserve" x="0" y="0" font-family="Helvetica" font-size="13" font-weight="400" font-style="normal" 
 >10</text>
</g>

<g fill="#212121" fill-opacity="1" stroke="#212121" stroke-opacity="1" stroke-width="1" stroke-linecap="square" stroke-linejoin="bevel" transform="matrix(0.749587,0,0,0.749463,28.8521,14.0535)"
font-family="Helvetica" font-size="10" font-weight="400" font-style="normal" 
>
<text fill="#212121" fill-opacity="1" stroke="none" xml:space="preserve" x="0" y="0" font-family="Helvetica" font-size="10" font-weight="400" font-style="normal" 
 >5</text>
</g>

<g fill="#212121" fill-opacity="1" stroke="#212121" stroke-opacity="1" stroke-width="1" stroke-linecap="square" stroke-linejoin="bevel" transform="matrix(0,-0.749463,0.749587,0,8.99587,257.629)"
font-family="Helvetica" font-size="14" font-weight="400" font-style="normal" 
>
<text fill="#212121" fill-opacity="1" stroke="none" xml:space="preserve" x="0" y="0" font-family="Helvetica" font-size="14" font-weight="400" font-style="normal" 
 >Doppler RMSE [Hz]</text>
</g>

<g fill="#212121" fill-opacity="1" stroke="#212121" stroke-opacity="1" stroke-width="1" stroke-linecap="square" stroke-linejoin="bevel" transform="matrix(0.749587,0,0,0.749463,335.433,8.99463)"
font-family="Helvetica" font-size="14" font-weight="700" font-style="normal" 
>
<text fill="#212121" fill-opacity="1" stroke="none" xml:space="preserve" x="0" y="0" font-family="Helvetica" font-size="14" font-weight="700" font-style="normal" 
 >OTFS</text>
</g>

<g fill="none" stroke="#268cdd" stroke-opacity="1" stroke-width="2.66667" stroke-linecap="butt" stroke-linejoin="round" transform="matrix(0.749587,0,0,0.749463,-67.8446,-23.4197)"
font-family="Helvetica" font-size="14" font-weight="700" font-style="normal" 
>
<polyline fill="none" vector-effect="none" points="140,213.819 153.9,207.842 167.8,204.33 181.7,222.757 195.6,203.143 209.5,220.635 223.4,224.187 237.3,217.433 251.2,227.806 265.1,172.485 279,228.32 292.9,233.36 306.8,232.247 320.7,230.056 334.6,205.113 348.5,233.787 362.4,235.03 376.3,255.724 390.2,247.729 404.1,259.334 418,270.383 431.9,286.854 445.8,288.039 459.7,295.441 473.6,305.152 487.5,314.756 501.4,315.477 515.3,317.397 529.2,324.589 543.1,328.344 557,338.175 570.9,338.653 584.8,348.273 598.7,356.209 612.6,370.226 626.5,377.879 640.4,383.552 654.3,393.927 668.2,402.122 682.1,411.972 696,412.697 709.9,419.09 723.8,427.992 737.7,427.686 751.6,429.534 765.5,436.727 779.4,438.959 793.3,445.505 807.2,446.318 821.1,453.067 835,463.29 848.9,462.631 862.8,469.287 876.7,475.079 890.6,479.128 904.5,483.954 918.4,490.66 932.3,493.44 946.2,492.848 960.1,505.135 974,506.379 " />
</g>

<g fill="none" stroke="#268cdd" stroke-opacity="1" stroke-dasharray="8,8" stroke-dashoffset="0" stroke-width="2.66667" stroke-linecap="butt" stroke-linejoin="round" transform="matrix(0.749587,0,0,0.749463,-67.8446,-23.4197)"
font-family="Helvetica" font-size="14" font-weight="700" font-style="normal" 
>
<polyline fill="none" vector-effect="none" points="140,158.771 153.9,163.035 167.8,167.821 181.7,172.777 195.6,176.567 209.5,180.777 223.4,184.067 237.3,188.98 251.2,194.115 265.1,199.672 279,203.701 292.9,209.619 306.8,216.385 320.7,220.403 334.6,228.641 348.5,233.746 362.4,240.13 376.3,247.358 390.2,252.339 404.1,260.662 418,262.825 431.9,281.256 445.8,288.014 459.7,292.906 473.6,303.358 487.5,311.913 501.4,315.132 515.3,319.155 529.2,329.066 543.1,334.697 557,342.742 570.9,347.918 584.8,354.293 598.7,365.526 612.6,375.186 626.5,380.735 640.4,389.694 654.3,396.297 668.2,402.897 682.1,409.29 696,415.072 709.9,419.849 723.8,424.379 737.7,428.81 751.6,433.221 765.5,437.687 779.4,442.038 793.3,446.448 807.2,450.856 821.1,455.295 835,459.656 848.9,464.125 862.8,468.467 876.7,472.945 890.6,477.265 904.5,481.726 918.4,486.065 932.3,490.529 946.2,494.966 960.1,499.417 974,503.756 " />
</g>

<g fill="none" stroke="#f57729" stroke-opacity="1" stroke-width="2.66667" stroke-linecap="butt" stroke-linejoin="round" transform="matrix(0.749587,0,0,0.749463,-67.8446,-23.4197)"
font-family="Helvetica" font-size="14" font-weight="700" font-style="normal" 
>
<polyline fill="none" vector-effect="none" points="140,217.716 153.9,177.351 167.8,215.636 181.7,213.567 195.6,211.122 209.5,218.131 223.4,166.753 237.3,129.954 251.2,179.18 265.1,220.245 279,138.157 292.9,228.995 306.8,207.813 320.7,220.326 334.6,241.879 348.5,224.851 362.4,231.418 376.3,256.197 390.2,252.845 404.1,249.872 418,270.332 431.9,284.409 445.8,285.607 459.7,294.694 473.6,305.179 487.5,315.277 501.4,313.572 515.3,315.793 529.2,322.184 543.1,324.696 557,332.201 570.9,330.732 584.8,338.541 598.7,342.628 612.6,352.021 626.5,352.659 640.4,358.854 654.3,361.716 668.2,361.478 682.1,365.302 696,369.689 709.9,369.474 723.8,372.206 737.7,375.321 751.6,377.25 765.5,379.895 779.4,380.301 793.3,380.322 807.2,387.57 821.1,383.335 835,389.5 848.9,385.708 862.8,390.02 876.7,388.707 890.6,388.115 904.5,387.697 918.4,389.722 932.3,390.561 946.2,389.255 960.1,390.528 974,384.636 " />
</g>

<g fill="none" stroke="#f57729" stroke-opacity="1" stroke-dasharray="8,8" stroke-dashoffset="0" stroke-width="2.66667" stroke-linecap="butt" stroke-linejoin="round" transform="matrix(0.749587,0,0,0.749463,-67.8446,-23.4197)"
font-family="Helvetica" font-size="14" font-weight="700" font-style="normal" 
>
<polyline fill="none" vector-effect="none" points="140,199.62 153.9,204.029 167.8,208.437 181.7,212.845 195.6,217.254 209.5,221.662 223.4,226.07 237.3,230.479 251.2,234.887 265.1,239.295 279,243.704 292.9,248.112 306.8,252.52 320.7,256.929 334.6,261.337 348.5,265.745 362.4,270.154 376.3,274.562 390.2,278.97 404.1,283.379 418,287.787 431.9,292.195 445.8,296.604 459.7,301.012 473.6,305.42 487.5,309.829 501.4,314.237 515.3,318.645 529.2,323.054 543.1,327.462 557,331.87 570.9,336.279 584.8,340.687 598.7,345.095 612.6,349.504 626.5,353.912 640.4,358.32 654.3,362.729 668.2,367.137 682.1,371.545 696,375.954 709.9,380.362 723.8,384.77 737.7,389.179 751.6,393.587 765.5,397.995 779.4,402.404 793.3,406.812 807.2,411.22 821.1,415.629 835,420.037 848.9,424.445 862.8,428.854 876.7,433.262 890.6,437.67 904.5,442.079 918.4,446.487 932.3,450.895 946.2,455.304 960.1,459.712 974,464.12 " />
</g>

<g fill="none" stroke="#ffe864" stroke-opacity="1" stroke-width="2.66667" stroke-linecap="butt" stroke-linejoin="round" transform="matrix(0.749587,0,0,0.749463,-67.8446,-23.4197)"
font-family="Helvetica" font-size="14" font-weight="700" font-style="normal" 
>
<polyline fill="none" vector-effect="none" points="140,200.586 153.9,224.815 167.8,216.276 181.7,225.012 195.6,208.401 209.5,223.923 223.4,232.304 237.3,237.416 251.2,245.837 265.1,261.286 279,263.122 292.9,165.395 306.8,271.471 320.7,288.255 334.6,296.892 348.5,301.772 362.4,309.81 376.3,316.392 390.2,318.404 404.1,325.379 418,333.508 431.9,328.594 445.8,340.126 459.7,342.043 473.6,343.429 487.5,345.014 501.4,351.747 515.3,362.164 529.2,357.983 543.1,368.861 557,372.689 570.9,371.586 584.8,380.248 598.7,387.397 612.6,389.632 626.5,390.588 640.4,394.789 654.3,402.196 668.2,405.808 682.1,412.767 696,412.962 709.9,419.459 723.8,427.837 737.7,427.686 751.6,429.536 765.5,436.727 779.4,438.959 793.3,445.505 807.2,446.318 821.1,453.067 835,463.29 848.9,462.631 862.8,469.287 876.7,475.079 890.6,479.128 904.5,483.954 918.4,490.66 932.3,493.44 946.2,492.848 960.1,505.135 974,506.379 " />
</g>

<g fill="none" stroke="#ffe864" stroke-opacity="1" stroke-dasharray="8,8" stroke-dashoffset="0" stroke-width="2.66667" stroke-linecap="butt" stroke-linejoin="round" transform="matrix(0.749587,0,0,0.749463,-67.8446,-23.4197)"
font-family="Helvetica" font-size="14" font-weight="700" font-style="normal" 
>
<polyline fill="none" vector-effect="none" points="140,239.244 153.9,243.684 167.8,248.032 181.7,252.484 195.6,256.915 209.5,261.301 223.4,265.706 237.3,270.115 251.2,274.562 265.1,278.935 279,283.344 292.9,287.74 306.8,292.158 320.7,296.567 334.6,300.974 348.5,305.402 362.4,309.816 376.3,314.192 390.2,318.628 404.1,323.029 418,327.438 431.9,331.761 445.8,336.238 459.7,340.653 473.6,345.043 487.5,349.467 501.4,353.887 515.3,358.297 529.2,362.745 543.1,367.113 557,371.529 570.9,375.899 584.8,380.315 598.7,384.734 612.6,389.153 626.5,393.583 640.4,397.959 654.3,402.419 668.2,406.835 682.1,411.17 696,415.612 709.9,419.98 723.8,424.421 737.7,428.81 751.6,433.221 765.5,437.687 779.4,442.038 793.3,446.448 807.2,450.856 821.1,455.295 835,459.656 848.9,464.125 862.8,468.467 876.7,472.945 890.6,477.265 904.5,481.726 918.4,486.065 932.3,490.529 946.2,494.966 960.1,499.417 974,503.756 " />
</g>

<g fill="#ffffff" fill-opacity="1" stroke="none" transform="matrix(7.49587e-05,0,0,7.49463e-05,-67.8446,-23.4197)"
font-family="Helvetica" font-size="14" font-weight="700" font-style="normal" 
>
<path vector-effect="none" fill-rule="evenodd" d="M8.13e+06,600000 L8.13e+06,1.5e+06 L9.63e+06,1.5e+06 L9.63e+06,600000 L8.13e+06,600000"/>
</g>

<g fill="#268cdd" fill-opacity="1" stroke="#268cdd" stroke-opacity="1" stroke-width="2.66667" stroke-linecap="butt" stroke-linejoin="round" transform="matrix(0.749587,0,0,0.749463,-67.8446,-23.4197)"
font-family="Helvetica" font-size="14" font-weight="700" font-style="normal" 
>
<polyline fill="none" vector-effect="none" points="817,68.9503 857,68.9503 " />
</g>

<g fill="#268cdd" fill-opacity="1" stroke="#268cdd" stroke-opacity="1" stroke-dasharray="8,8" stroke-dashoffset="0" stroke-width="2.66667" stroke-linecap="butt" stroke-linejoin="round" transform="matrix(0.749587,0,0,0.749463,-67.8446,-23.4197)"
font-family="Helvetica" font-size="14" font-weight="700" font-style="normal" 
>
<polyline fill="none" vector-effect="none" points="817,83.3702 857,83.3702 " />
</g>

<g fill="#f57729" fill-opacity="1" stroke="#f57729" stroke-opacity="1" stroke-width="2.66667" stroke-linecap="butt" stroke-linejoin="round" transform="matrix(0.749587,0,0,0.749463,-67.8446,-23.4197)"
font-family="Helvetica" font-size="14" font-weight="700" font-style="normal" 
>
<polyline fill="none" vector-effect="none" points="817,97.7901 857,97.7901 " />
</g>

<g fill="#f57729" fill-opacity="1" stroke="#f57729" stroke-opacity="1" stroke-dasharray="8,8" stroke-dashoffset="0" stroke-width="2.66667" stroke-linecap="butt" stroke-linejoin="round" transform="matrix(0.749587,0,0,0.749463,-67.8446,-23.4197)"
font-family="Helvetica" font-size="14" font-weight="700" font-style="normal" 
>
<polyline fill="none" vector-effect="none" points="817,112.21 857,112.21 " />
</g>

<g fill="#ffe864" fill-opacity="1" stroke="#ffe864" stroke-opacity="1" stroke-width="2.66667" stroke-linecap="butt" stroke-linejoin="round" transform="matrix(0.749587,0,0,0.749463,-67.8446,-23.4197)"
font-family="Helvetica" font-size="14" font-weight="700" font-style="normal" 
>
<polyline fill="none" vector-effect="none" points="817,126.63 857,126.63 " />
</g>

<g fill="#ffe864" fill-opacity="1" stroke="#ffe864" stroke-opacity="1" stroke-dasharray="8,8" stroke-dashoffset="0" stroke-width="2.66667" stroke-linecap="butt" stroke-linejoin="round" transform="matrix(0.749587,0,0,0.749463,-67.8446,-23.4197)"
font-family="Helvetica" font-size="14" font-weight="700" font-style="normal" 
>
<polyline fill="none" vector-effect="none" points="817,141.05 857,141.05 " />
</g>

<g fill="#212121" fill-opacity="1" stroke="#212121" stroke-opacity="1" stroke-width="1" stroke-linecap="square" stroke-linejoin="bevel" transform="matrix(0.749587,0,0,0.749463,576.8,31.2539)"
font-family="Helvetica" font-size="12" font-weight="400" font-style="normal" 
>
<text fill="#212121" fill-opacity="1" stroke="none" xml:space="preserve" x="0" y="0" font-family="Helvetica" font-size="12" font-weight="400" font-style="normal" 
 >Data Aided MLE</text>
</g>

<g fill="#212121" fill-opacity="1" stroke="#212121" stroke-opacity="1" stroke-width="1" stroke-linecap="square" stroke-linejoin="bevel" transform="matrix(0.749587,0,0,0.749463,576.8,42.0611)"
font-family="Helvetica" font-size="12" font-weight="400" font-style="normal" 
>
<text fill="#212121" fill-opacity="1" stroke="none" xml:space="preserve" x="0" y="0" font-family="Helvetica" font-size="12" font-weight="400" font-style="normal" 
 >Data Aided MCRB</text>
</g>

<g fill="#212121" fill-opacity="1" stroke="#212121" stroke-opacity="1" stroke-width="1" stroke-linecap="square" stroke-linejoin="bevel" transform="matrix(0.749587,0,0,0.749463,576.8,52.8683)"
font-family="Helvetica" font-size="12" font-weight="400" font-style="normal" 
>
<text fill="#212121" fill-opacity="1" stroke="none" xml:space="preserve" x="0" y="0" font-family="Helvetica" font-size="12" font-weight="400" font-style="normal" 
 >Pilot Only MLE</text>
</g>

<g fill="#212121" fill-opacity="1" stroke="#212121" stroke-opacity="1" stroke-width="1" stroke-linecap="square" stroke-linejoin="bevel" transform="matrix(0.749587,0,0,0.749463,576.8,63.6754)"
font-family="Helvetica" font-size="12" font-weight="400" font-style="normal" 
>
<text fill="#212121" fill-opacity="1" stroke="none" xml:space="preserve" x="0" y="0" font-family="Helvetica" font-size="12" font-weight="400" font-style="normal" 
 >Pilot Only CRB</text>
</g>

<g fill="#212121" fill-opacity="1" stroke="#212121" stroke-opacity="1" stroke-width="1" stroke-linecap="square" stroke-linejoin="bevel" transform="matrix(0.749587,0,0,0.749463,576.8,74.4826)"
font-family="Helvetica" font-size="12" font-weight="400" font-style="normal" 
>
<text fill="#212121" fill-opacity="1" stroke="none" xml:space="preserve" x="0" y="0" font-family="Helvetica" font-size="12" font-weight="400" font-style="normal" 
 >Full Data MLE</text>
</g>

<g fill="#212121" fill-opacity="1" stroke="#212121" stroke-opacity="1" stroke-width="1" stroke-linecap="square" stroke-linejoin="bevel" transform="matrix(0.749587,0,0,0.749463,576.8,85.2898)"
font-family="Helvetica" font-size="12" font-weight="400" font-style="normal" 
>
<text fill="#212121" fill-opacity="1" stroke="none" xml:space="preserve" x="0" y="0" font-family="Helvetica" font-size="12" font-weight="400" font-style="normal" 
 >Full Data CRB</text>
</g>

<g fill="none" stroke="#212121" stroke-opacity="1" stroke-width="0.666667" stroke-linecap="butt" stroke-linejoin="miter" stroke-miterlimit="2" transform="matrix(0.749587,0,0,0.749463,-67.8446,-23.4197)"
font-family="Helvetica" font-size="12" font-weight="400" font-style="normal" 
>
<path vector-effect="none" fill-rule="evenodd" d="M813,150 L813,60 L963,60 L963,150 L813,150"/>
</g>
</g>
</svg>
